<?xml version="1.0" encoding="utf-8"?>
<!-- Generator: Adobe Illustrator 21.0.2, SVG Export Plug-In . SVG Version: 6.00 Build 0)  -->
<svg version="1.1" id="Layer_1" xmlns="http://www.w3.org/2000/svg" xmlns:xlink="http://www.w3.org/1999/xlink" x="0px" y="0px"
	 viewBox="0 0 214 90.9" style="enable-background:new 0 0 214 90.9;" xml:space="preserve">
<style type="text/css">
	.st0{display:none;}
	.st1{display:inline;fill:#E6E6E6;}
	.st2{display:inline;fill:#FFCC05;}
	.st3{display:inline;}
	.st4{fill:#9D5BC2;}
	.st5{font-family:'FjallaOne-Regular';}
	.st6{font-size:23px;}
	.st7{display:inline;fill:#9D5BC2;}
	.st8{display:inline;fill:#4EAFE9;}
	.st9{fill:#FFFFFF;}
	.st10{fill:#EC1313;}
</style>
<g id="Layer_1_1_" class="st0">
	<circle class="st1" cx="45.3" cy="45.5" r="41.2"/>
	<circle class="st1" cx="167.7" cy="45.5" r="40"/>
	<path class="st2" d="M130.5,21.2L168,46.1l40.6-21.9c3.4,6.4,5.4,13.7,5.4,21.4c0,25-20.3,45.3-45.3,45.3s-45.3-20.3-45.3-45.3
		C123.4,36.6,126,28.2,130.5,21.2"/>
	<g class="st3">
		<path class="st4" d="M45.3,0c-0.4,0-0.9,0-1.3,0"/>
		<path class="st4" d="M78.4,14.3l-0.5-0.2L44,44.8V0C19.6,0.7,0,20.7,0,45.3c0,25,20.3,45.3,45.3,45.3s45.3-20.3,45.3-45.3
			C90.6,33.3,86,22.5,78.4,14.3z"/>
	</g>
	<g class="st3">
		<path d="M26,48.8c0-0.6,0.1-1.1,0.2-1.5s0.3-0.8,0.5-1.1s0.5-0.6,0.8-0.8s0.6-0.4,0.9-0.6v-0.1c-0.2-0.1-0.5-0.3-0.7-0.5
			c-0.3-0.2-0.5-0.5-0.7-0.7c-0.2-0.3-0.4-0.6-0.5-1s-0.2-0.9-0.2-1.4v-1.3c0-0.6,0.1-1.2,0.2-1.6s0.3-0.8,0.6-1.2
			c0.2-0.3,0.5-0.6,0.8-0.8s0.7-0.4,1-0.5s0.7-0.2,1-0.2s0.7-0.1,0.9-0.1c0.3,0,0.6,0,0.9,0.1s0.7,0.1,1,0.2s0.7,0.3,1,0.5
			s0.6,0.5,0.8,0.8s0.4,0.7,0.6,1.2s0.2,1,0.2,1.6V41c0,0.5-0.1,1-0.2,1.4c-0.1,0.4-0.3,0.7-0.5,1s-0.4,0.5-0.7,0.7
			s-0.5,0.4-0.7,0.5v0.1c0.3,0.2,0.7,0.4,0.9,0.6c0.3,0.2,0.5,0.5,0.8,0.8c0.2,0.3,0.4,0.7,0.5,1.1s0.2,0.9,0.2,1.5V50
			c0,0.7-0.1,1.2-0.2,1.7s-0.2,1-0.4,1.3c-0.2,0.4-0.5,0.7-0.8,0.9s-0.7,0.4-1,0.6c-0.4,0.1-0.7,0.2-1.1,0.3
			c-0.4,0.1-0.8,0.1-1.2,0.1s-0.8,0-1.2-0.1c-0.4-0.1-0.8-0.2-1.1-0.3c-0.4-0.1-0.7-0.3-1-0.6S27,53.4,26.7,53
			c-0.2-0.4-0.4-0.8-0.5-1.3S26,50.7,26,50V48.8z M28.9,50.3c0,0.5,0.1,0.9,0.2,1.2s0.3,0.6,0.4,0.7c0.2,0.2,0.4,0.3,0.6,0.4
			s0.5,0.1,0.7,0.1s0.5,0,0.7-0.1s0.4-0.2,0.6-0.4s0.3-0.4,0.4-0.7s0.2-0.7,0.2-1.2v-2.1c0-0.4,0-0.8-0.1-1.1s-0.2-0.5-0.4-0.7
			s-0.3-0.3-0.6-0.4c-0.2-0.1-0.5-0.1-0.7-0.1h-0.3c-0.5,0-1,0.2-1.3,0.6c-0.3,0.4-0.5,1-0.5,1.8L28.9,50.3L28.9,50.3z M31,43.7
			c0.2,0,0.4,0,0.6-0.1s0.4-0.2,0.5-0.4s0.3-0.4,0.3-0.7s0.1-0.7,0.1-1.1v-1.6c0-0.8-0.1-1.4-0.4-1.8c-0.3-0.4-0.7-0.6-1.3-0.6
			s-1,0.2-1.3,0.6c-0.3,0.4-0.4,1-0.4,1.8v1.6c0,0.4,0,0.8,0.1,1.1s0.2,0.5,0.3,0.7c0.1,0.2,0.3,0.3,0.5,0.4
			c0.2,0.1,0.4,0.1,0.6,0.1H31z"/>
		<path d="M38.1,50.7c0-0.7,0.1-1.4,0.3-2.2h2.3v1.6c0,0.9,0.1,1.6,0.4,2c0.3,0.4,0.7,0.6,1.3,0.6s1-0.2,1.3-0.7s0.4-1.1,0.4-1.9
			v-3.7c0-0.5,0-0.9-0.1-1.2s-0.2-0.5-0.3-0.7s-0.3-0.3-0.5-0.3c-0.2-0.1-0.4-0.1-0.6-0.1c-0.4,0-0.8,0.1-1.1,0.4
			c-0.3,0.2-0.5,0.5-0.7,0.8h-2.1v-9.8h8.2v2.6h-5.8v4.7c0.3-0.4,0.7-0.6,1.2-0.8s1-0.3,1.5-0.3c1.2,0,2.1,0.4,2.6,1.2
			s0.8,2,0.8,3.5v3.3c0,1-0.1,1.8-0.4,2.5s-0.6,1.2-1,1.6c-0.4,0.4-0.9,0.7-1.5,0.9S43.2,55,42.6,55c-0.7,0-1.3-0.1-1.9-0.3
			s-1-0.5-1.4-0.8c-0.4-0.4-0.7-0.8-0.8-1.3C38.2,51.9,38.1,51.4,38.1,50.7z"/>
		<path d="M53.6,45.8c-0.4,0-0.9-0.1-1.3-0.2c-0.4-0.1-0.8-0.4-1.2-0.7c-0.3-0.3-0.6-0.8-0.8-1.5C50.1,42.8,50,42,50,41v-1.2
			c0-0.7,0.1-1.3,0.2-1.8c0.1-0.5,0.2-0.9,0.4-1.3c0.2-0.4,0.4-0.6,0.6-0.9s0.5-0.4,0.8-0.5s0.5-0.2,0.8-0.2s0.6-0.1,0.8-0.1
			c0.3,0,0.5,0,0.8,0.1c0.3,0,0.5,0.1,0.8,0.2c0.3,0.1,0.5,0.3,0.8,0.5c0.2,0.2,0.4,0.5,0.6,0.8s0.3,0.8,0.4,1.3s0.2,1.1,0.2,1.8V41
			c0,1-0.1,1.9-0.3,2.5S56.4,44.6,56,45s-0.7,0.6-1.2,0.7C54.4,45.8,54,45.8,53.6,45.8z M53.7,44.1c0.5,0,0.8-0.2,1-0.6
			c0.2-0.4,0.3-1,0.3-1.9v-2.2c0-0.9-0.1-1.5-0.3-1.9s-0.5-0.6-1-0.6s-0.8,0.2-1,0.6c-0.2,0.4-0.3,1.1-0.3,1.9v2.2
			c0,0.9,0.1,1.5,0.3,1.9C52.8,43.8,53.2,44.1,53.7,44.1z M60.5,35.3h2l-5.2,19.4h-2L60.5,35.3z M60.5,48.7c0-1,0.1-1.8,0.3-2.5
			c0.2-0.6,0.5-1.1,0.9-1.4c0.4-0.3,0.7-0.6,1.2-0.7c0.4-0.1,0.8-0.2,1.2-0.2c0.3,0,0.5,0,0.8,0.1c0.3,0,0.5,0.1,0.8,0.2
			c0.3,0.1,0.5,0.3,0.8,0.5c0.2,0.2,0.4,0.5,0.6,0.8s0.3,0.8,0.4,1.3s0.2,1.1,0.2,1.8v1.2c0,0.7-0.1,1.3-0.2,1.8s-0.3,0.9-0.4,1.3
			c-0.2,0.4-0.4,0.7-0.6,0.9s-0.5,0.4-0.8,0.5s-0.5,0.2-0.8,0.3s-0.5,0.1-0.8,0.1c-0.3,0-0.6,0-0.9-0.1c-0.3,0-0.6-0.1-0.8-0.3
			c-0.3-0.1-0.5-0.3-0.8-0.5c-0.2-0.2-0.4-0.5-0.6-0.9s-0.3-0.8-0.4-1.3c-0.1-0.5-0.2-1.1-0.2-1.8v-1.1H60.5z M62.8,50.5
			c0,0.9,0.1,1.5,0.3,1.9s0.5,0.6,1,0.6s0.8-0.2,1-0.6s0.3-1,0.3-1.9v-2.2c0-0.9-0.1-1.5-0.3-1.9s-0.5-0.6-1-0.6s-0.8,0.2-1,0.6
			c-0.2,0.4-0.3,1.1-0.3,1.9V50.5z"/>
	</g>
	<g class="st3">
		<path d="M148.1,50.8c0-0.3,0-0.7,0.1-1.1c0-0.4,0.1-0.8,0.2-1.2h2.3v1c0,0.6,0.1,1.1,0.2,1.5c0.1,0.4,0.2,0.7,0.4,1
			c0.2,0.2,0.4,0.4,0.6,0.5c0.2,0.1,0.5,0.2,0.8,0.2s0.5,0,0.8-0.1s0.4-0.2,0.6-0.4s0.3-0.4,0.4-0.7s0.1-0.6,0.1-1v-2.1
			c0-0.4,0-0.8-0.1-1.1s-0.2-0.6-0.3-0.8c-0.2-0.2-0.4-0.4-0.6-0.5s-0.6-0.2-0.9-0.2h-1.2v-2.1h1.2c0.2,0,0.5,0,0.7-0.1
			s0.4-0.2,0.6-0.4c0.2-0.2,0.3-0.4,0.4-0.7s0.1-0.6,0.1-1v-2c0-0.7-0.1-1.2-0.4-1.6c-0.3-0.3-0.7-0.5-1.2-0.5
			c-0.6,0-1.1,0.3-1.4,0.8c-0.3,0.5-0.5,1.3-0.5,2.3v1.1h-2.2c-0.1-0.4-0.2-0.7-0.2-1.1c-0.1-0.4-0.1-0.8-0.1-1.2
			c0-0.5,0.1-1,0.3-1.5s0.5-0.9,0.8-1.3s0.8-0.7,1.4-0.9c0.6-0.2,1.2-0.4,2-0.4s1.5,0.1,2.1,0.3s1.1,0.5,1.4,0.8
			c0.4,0.4,0.6,0.8,0.8,1.3s0.3,1.1,0.3,1.8v1.2c0,0.5-0.1,1-0.2,1.5c-0.1,0.4-0.3,0.8-0.5,1.1s-0.5,0.6-0.8,0.8s-0.6,0.4-0.9,0.5
			v0.1c0.4,0.1,0.7,0.3,1,0.5s0.6,0.5,0.8,0.8s0.4,0.7,0.6,1.2s0.2,1,0.2,1.6V50c0,0.9-0.1,1.6-0.4,2.2c-0.3,0.6-0.6,1.1-1,1.5
			s-0.9,0.6-1.5,0.8s-1.2,0.2-1.8,0.2c-1.5,0-2.6-0.4-3.4-1.1C148.5,53.1,148.1,52.1,148.1,50.8z"/>
		<path d="M160.3,52.5h2.2V39.4l-2.4,2.1l-1.3-1.5l4.4-4.5h2.2l0,0l0,0v17h2.2v2.2h-7.3L160.3,52.5L160.3,52.5z"/>
		<path d="M173.3,45.8c-0.4,0-0.9-0.1-1.3-0.2c-0.4-0.1-0.8-0.4-1.2-0.7c-0.3-0.3-0.6-0.8-0.8-1.5c-0.2-0.6-0.3-1.5-0.3-2.5v-1.2
			c0-0.7,0.1-1.3,0.2-1.8c0.1-0.5,0.3-0.9,0.4-1.3c0.2-0.4,0.4-0.6,0.6-0.9s0.5-0.4,0.8-0.5s0.5-0.2,0.8-0.2s0.6-0.1,0.8-0.1
			c0.3,0,0.5,0,0.8,0.1c0.3,0,0.5,0.1,0.8,0.2s0.5,0.3,0.8,0.5c0.2,0.2,0.4,0.5,0.6,0.8s0.3,0.8,0.4,1.3s0.2,1.1,0.2,1.8V41
			c0,1-0.1,1.9-0.3,2.5s-0.5,1.1-0.9,1.5s-0.7,0.6-1.2,0.7C174.1,45.8,173.7,45.8,173.3,45.8z M173.3,44.1c0.5,0,0.8-0.2,1-0.6
			c0.2-0.4,0.3-1,0.3-1.9v-2.2c0-0.9-0.1-1.5-0.3-1.9s-0.5-0.6-1-0.6s-0.8,0.2-1,0.6c-0.2,0.4-0.3,1.1-0.3,1.9v2.2
			c0,0.9,0.1,1.5,0.3,1.9C172.5,43.8,172.9,44.1,173.3,44.1z M180.1,35.3h2L177,54.7h-2L180.1,35.3z M180.2,48.7
			c0-1,0.1-1.8,0.3-2.5c0.2-0.6,0.5-1.1,0.9-1.4c0.4-0.3,0.7-0.6,1.2-0.7c0.4-0.1,0.8-0.2,1.2-0.2c0.3,0,0.5,0,0.8,0.1
			c0.3,0,0.5,0.1,0.8,0.2c0.3,0.1,0.5,0.3,0.8,0.5c0.2,0.2,0.4,0.5,0.6,0.8s0.3,0.8,0.4,1.3s0.2,1.1,0.2,1.8v1.2
			c0,0.7-0.1,1.3-0.2,1.8c-0.1,0.5-0.3,0.9-0.4,1.3s-0.4,0.7-0.6,0.9s-0.5,0.4-0.8,0.5s-0.5,0.2-0.8,0.3s-0.5,0.1-0.8,0.1
			s-0.6,0-0.9-0.1c-0.3,0-0.6-0.1-0.8-0.3s-0.5-0.3-0.8-0.5s-0.4-0.5-0.6-0.9s-0.3-0.8-0.4-1.3c-0.1-0.5-0.2-1.1-0.2-1.8v-1.1H180.2
			z M182.5,50.5c0,0.9,0.1,1.5,0.3,1.9s0.5,0.6,1,0.6s0.8-0.2,1-0.6s0.3-1,0.3-1.9v-2.2c0-0.9-0.1-1.5-0.3-1.9s-0.5-0.6-1-0.6
			s-0.8,0.2-1,0.6c-0.2,0.4-0.3,1.1-0.3,1.9V50.5z"/>
	</g>
	<text transform="matrix(1 0 0 1 95 54.8335)" class="st3 st5 st6">vs.</text>
</g>
<g id="Layer_2" class="st0">
	<path class="st7" d="M23.3,33.3c-0.2,0-0.4,0-0.6,0.1c-0.2-0.1-0.5-0.1-0.7-0.1h-2.6c1.9-1,3.3-3,3.3-5.3c0-3.3-2.7-6-6-6
		s-6,2.7-6,6c0,2.3,1.3,4.3,3.3,5.3h-2.6c-0.2,0-0.5,0-0.7,0.1c-0.2-0.1-0.4-0.1-0.6-0.1c-1.1,0-2,0.9-2,2V48c0,1.1,0.9,2,2,2
		c0.2,0,0.5,0,0.7-0.1V50c0,0.3,0,0.6,0.1,0.8c0,0.2-0.1,0.3-0.1,0.5v15.3c0,1.1,0.9,2,2,2H14c1.1,0,2-0.9,2-2V56c0.2,0,0.4,0,0.7,0
		c0.2,0,0.4,0,0.7,0v10.7c0,1.1,0.9,2,2,2h1.3c1.1,0,2-0.9,2-2V51.3c0-0.2,0-0.3-0.1-0.5c0-0.3,0.1-0.6,0.1-0.8v-0.1
		c0.2,0.1,0.4,0.1,0.7,0.1c1.1,0,2-0.9,2-2V35.3C25.3,34.2,24.4,33.3,23.3,33.3z"/>
	<path class="st8" d="M68.3,33.3c-0.2,0-0.4,0-0.6,0.1c-0.2-0.1-0.5-0.1-0.7-0.1h-2.6c1.9-1,3.3-3,3.3-5.3c0-3.3-2.7-6-6-6
		c-3.3,0-6,2.7-6,6c0,2.3,1.3,4.3,3.3,5.3h-2.6c-0.2,0-0.5,0-0.7,0.1c-0.2-0.1-0.4-0.1-0.6-0.1c-1.1,0-2,0.9-2,2V48c0,1.1,0.9,2,2,2
		c0.2,0,0.5,0,0.7-0.1V50c0,0.3,0,0.6,0.1,0.8c0,0.2-0.1,0.3-0.1,0.5v15.3c0,1.1,0.9,2,2,2H59c1.1,0,2-0.9,2-2V56c0.2,0,0.4,0,0.7,0
		c0.2,0,0.4,0,0.7,0v10.7c0,1.1,0.9,2,2,2h1.3c1.1,0,2-0.9,2-2V51.3c0-0.2,0-0.3-0.1-0.5c0-0.3,0.1-0.6,0.1-0.8v-0.1
		c0.2,0.1,0.4,0.1,0.7,0.1c1.1,0,2-0.9,2-2V35.3C70.3,34.2,69.4,33.3,68.3,33.3z"/>
	<path class="st8" d="M87,33.3c-0.2,0-0.4,0-0.6,0.1c-0.2-0.1-0.5-0.1-0.7-0.1h-2.6c1.9-1,3.3-3,3.3-5.3c0-3.3-2.7-6-6-6s-6,2.7-6,6
		c0,2.3,1.3,4.3,3.3,5.3H75c-0.2,0-0.5,0-0.7,0.1c-0.2-0.1-0.4-0.1-0.6-0.1c-1.1,0-2,0.9-2,2V48c0,1.1,0.9,2,2,2
		c0.2,0,0.5,0,0.7-0.1V50c0,0.3,0,0.6,0.1,0.8c0,0.2-0.1,0.3-0.1,0.5v15.3c0,1.1,0.9,2,2,2h1.3c1.1,0,2-0.9,2-2V56
		c0.2,0,0.4,0,0.7,0c0.2,0,0.4,0,0.7,0v10.7c0,1.1,0.9,2,2,2h1.3c1.1,0,2-0.9,2-2V51.3c0-0.2,0-0.3-0.1-0.5c0-0.3,0.1-0.6,0.1-0.8
		v-0.1C86.5,50,86.8,50,87,50c1.1,0,2-0.9,2-2V35.3C89,34.2,88.1,33.3,87,33.3z"/>
	<path class="st8" d="M105.7,33.3c-0.2,0-0.4,0-0.6,0.1c-0.2-0.1-0.5-0.1-0.7-0.1h-2.6c1.9-1,3.3-3,3.3-5.3c0-3.3-2.7-6-6-6
		s-6,2.7-6,6c0,2.3,1.3,4.3,3.3,5.3h-2.6c-0.2,0-0.5,0-0.7,0.1c-0.2-0.1-0.4-0.1-0.6-0.1c-1.1,0-2,0.9-2,2V48c0,1.1,0.9,2,2,2
		c0.2,0,0.5,0,0.7-0.1V50c0,0.3,0,0.6,0.1,0.8c0,0.2-0.1,0.3-0.1,0.5v15.3c0,1.1,0.9,2,2,2h1.3c1.1,0,2-0.9,2-2V56
		c0.2,0,0.4,0,0.7,0s0.4,0,0.7,0v10.7c0,1.1,0.9,2,2,2h1.3c1.1,0,2-0.9,2-2V51.3c0-0.2,0-0.3-0.1-0.5c0-0.3,0.1-0.6,0.1-0.8v-0.1
		c0.2,0.1,0.4,0.1,0.7,0.1c1.1,0,2-0.9,2-2V35.3C107.7,34.2,106.8,33.3,105.7,33.3z"/>
	<path class="st8" d="M124.3,33.3c-0.2,0-0.4,0-0.6,0.1c-0.2-0.1-0.5-0.1-0.7-0.1h-2.6c1.9-1,3.3-3,3.3-5.3c0-3.3-2.7-6-6-6
		s-6,2.7-6,6c0,2.3,1.3,4.3,3.3,5.3h-2.6c-0.2,0-0.5,0-0.7,0.1c-0.2-0.1-0.4-0.1-0.6-0.1c-1.1,0-2,0.9-2,2V48c0,1.1,0.9,2,2,2
		c0.2,0,0.5,0,0.7-0.1V50c0,0.3,0,0.6,0.1,0.8c0,0.2-0.1,0.3-0.1,0.5v15.3c0,1.1,0.9,2,2,2h1.3c1.1,0,2-0.9,2-2V56
		c0.2,0,0.4,0,0.7,0c0.2,0,0.4,0,0.7,0v10.7c0,1.1,0.9,2,2,2h1.3c1.1,0,2-0.9,2-2V51.3c0-0.2,0-0.3-0.1-0.5c0-0.3,0.1-0.6,0.1-0.8
		v-0.1c0.2,0.1,0.4,0.1,0.7,0.1c1.1,0,2-0.9,2-2V35.3C126.3,34.2,125.4,33.3,124.3,33.3z"/>
	<path class="st8" d="M143,33.3c-0.2,0-0.4,0-0.6,0.1c-0.2-0.1-0.5-0.1-0.7-0.1h-2.6c1.9-1,3.3-3,3.3-5.3c0-3.3-2.7-6-6-6
		s-6,2.7-6,6c0,2.3,1.3,4.3,3.3,5.3H131c-0.2,0-0.5,0-0.7,0.1c-0.2-0.1-0.4-0.1-0.6-0.1c-1.1,0-2,0.9-2,2V48c0,1.1,0.9,2,2,2
		c0.2,0,0.5,0,0.7-0.1V50c0,0.3,0,0.6,0.1,0.8c0,0.2-0.1,0.3-0.1,0.5v15.3c0,1.1,0.9,2,2,2h1.3c1.1,0,2-0.9,2-2V56
		c0.2,0,0.4,0,0.7,0c0.2,0,0.4,0,0.7,0v10.7c0,1.1,0.9,2,2,2h1.3c1.1,0,2-0.9,2-2V51.3c0-0.2,0-0.3-0.1-0.5c0-0.3,0.1-0.6,0.1-0.8
		v-0.1c0.2,0.1,0.4,0.1,0.7,0.1c1.1,0,2-0.9,2-2V35.3C145,34.2,144.1,33.3,143,33.3z"/>
	<path class="st8" d="M162,33.3c-0.2,0-0.4,0-0.6,0.1c-0.2-0.1-0.5-0.1-0.7-0.1h-2.6c1.9-1,3.3-3,3.3-5.3c0-3.3-2.7-6-6-6
		s-6,2.7-6,6c0,2.3,1.3,4.3,3.3,5.3H150c-0.2,0-0.5,0-0.7,0.1c-0.2-0.1-0.4-0.1-0.6-0.1c-1.1,0-2,0.9-2,2V48c0,1.1,0.9,2,2,2
		c0.2,0,0.5,0,0.7-0.1V50c0,0.3,0,0.6,0.1,0.8c0,0.2-0.1,0.3-0.1,0.5v15.3c0,1.1,0.9,2,2,2h1.3c1.1,0,2-0.9,2-2V56
		c0.2,0,0.4,0,0.7,0c0.2,0,0.4,0,0.7,0v10.7c0,1.1,0.9,2,2,2h1.3c1.1,0,2-0.9,2-2V51.3c0-0.2,0-0.3-0.1-0.5c0-0.3,0.1-0.6,0.1-0.8
		v-0.1c0.2,0.1,0.4,0.1,0.7,0.1c1.1,0,2-0.9,2-2V35.3C164,34.2,163.1,33.3,162,33.3z"/>
	<path class="st8" d="M181,33.3c-0.2,0-0.4,0-0.6,0.1c-0.2-0.1-0.5-0.1-0.7-0.1h-2.6c1.9-1,3.3-3,3.3-5.3c0-3.3-2.7-6-6-6
		s-6,2.7-6,6c0,2.3,1.3,4.3,3.3,5.3H169c-0.2,0-0.5,0-0.7,0.1c-0.2-0.1-0.4-0.1-0.6-0.1c-1.1,0-2,0.9-2,2V48c0,1.1,0.9,2,2,2
		c0.2,0,0.5,0,0.7-0.1V50c0,0.3,0,0.6,0.1,0.8c0,0.2-0.1,0.3-0.1,0.5v15.3c0,1.1,0.9,2,2,2h1.3c1.1,0,2-0.9,2-2V56
		c0.2,0,0.4,0,0.7,0c0.2,0,0.4,0,0.7,0v10.7c0,1.1,0.9,2,2,2h1.3c1.1,0,2-0.9,2-2V51.3c0-0.2,0-0.3-0.1-0.5c0-0.3,0.1-0.6,0.1-0.8
		v-0.1c0.2,0.1,0.4,0.1,0.7,0.1c1.1,0,2-0.9,2-2V35.3C183,34.2,182.1,33.3,181,33.3z"/>
	<path class="st8" d="M200,33.3c-0.2,0-0.4,0-0.6,0.1c-0.2-0.1-0.5-0.1-0.7-0.1h-2.6c1.9-1,3.3-3,3.3-5.3c0-3.3-2.7-6-6-6
		s-6,2.7-6,6c0,2.3,1.3,4.3,3.3,5.3H188c-0.2,0-0.5,0-0.7,0.1c-0.2-0.1-0.4-0.1-0.6-0.1c-1.1,0-2,0.9-2,2V48c0,1.1,0.9,2,2,2
		c0.2,0,0.5,0,0.7-0.1V50c0,0.3,0,0.6,0.1,0.8c0,0.2-0.1,0.3-0.1,0.5v15.3c0,1.1,0.9,2,2,2h1.3c1.1,0,2-0.9,2-2V56
		c0.2,0,0.4,0,0.7,0c0.2,0,0.4,0,0.7,0v10.7c0,1.1,0.9,2,2,2h1.3c1.1,0,2-0.9,2-2V51.3c0-0.2,0-0.3-0.1-0.5c0-0.3,0.1-0.6,0.1-0.8
		v-0.1c0.2,0.1,0.4,0.1,0.7,0.1c1.1,0,2-0.9,2-2V35.3C202,34.2,201.1,33.3,200,33.3z"/>
	<path class="st3" d="M45,41H34c-1.1,0-2-0.9-2-2l0,0c0-1.1,0.9-2,2-2h11c1.1,0,2,0.9,2,2l0,0C47,40.1,46.1,41,45,41z"/>
	<path class="st3" d="M45,49H34c-1.1,0-2-0.9-2-2l0,0c0-1.1,0.9-2,2-2h11c1.1,0,2,0.9,2,2l0,0C47,48.1,46.1,49,45,49z"/>
</g>
<g id="Layer_3">
	<path class="st9" d="M68,77H11V12h57V77z M16,72h47V17H16V72z"/>
	<g>
		<path class="st9" d="M35.2,59.5h2.5V44.7L35,47.1l-1.4-1.7l4.9-5.1H41l0,0l0,0v19.2h2.5V62h-8.3V59.5z"/>
	</g>
	<g>
		<path class="st9" d="M25,24.2h-2.2v-1.3h6.5v1.3H27v9.5h-2V24.2z"/>
		<path class="st9" d="M30.5,25h2v6.6c0,0.4,0.1,0.7,0.2,0.8c0.2,0.2,0.4,0.2,0.7,0.2c0.2,0,0.4,0,0.6-0.1s0.4-0.2,0.5-0.4V25h2v8.7
			h-1.6l-0.2-0.9l0,0c-0.2,0.2-0.3,0.4-0.5,0.5s-0.4,0.2-0.6,0.3c-0.2,0.1-0.4,0.1-0.6,0.2c-0.2,0-0.4,0.1-0.6,0.1
			c-0.7,0-1.2-0.2-1.5-0.5c-0.4-0.4-0.5-0.9-0.5-1.6L30.5,25L30.5,25z"/>
		<path class="st9" d="M41.4,33.8c-0.5,0-0.9-0.1-1.3-0.2s-0.7-0.4-0.9-0.7c-0.3-0.3-0.4-0.7-0.6-1.1c-0.1-0.5-0.2-1-0.2-1.7v-1.7
			c0-0.6,0.1-1,0.2-1.4c0.1-0.4,0.2-0.7,0.4-1s0.4-0.5,0.6-0.6s0.5-0.3,0.7-0.4s0.5-0.1,0.7-0.2c0.2,0,0.5,0,0.6,0
			c0.4,0,0.7,0,1.1,0.1c0.3,0.1,0.6,0.2,0.9,0.4c0.3,0.2,0.5,0.5,0.6,0.8s0.2,0.8,0.2,1.3c0,0.2,0,0.4,0,0.5s0,0.4-0.1,0.5
			c0,0.2,0,0.3-0.1,0.5c0,0.2-0.1,0.3-0.1,0.5h-3.7v0.9c0,0.4,0,0.7,0.1,1c0,0.3,0.1,0.5,0.2,0.6c0.1,0.2,0.2,0.3,0.4,0.3
			c0.2,0.1,0.3,0.1,0.6,0.1c0.1,0,0.2,0,0.4-0.1c0.1,0,0.2-0.1,0.3-0.2s0.2-0.2,0.2-0.4c0.1-0.2,0.1-0.3,0.1-0.6v-0.3h1.7V31
			c0,0.8-0.3,1.4-0.8,1.8C43.1,33.7,42.4,33.8,41.4,33.8z M42.6,28.6c0,0,0-0.1,0-0.2s0-0.2,0-0.2c0-0.1,0-0.2,0-0.3
			c0-0.1,0-0.2,0-0.2c0-0.6-0.1-1-0.3-1.2c-0.2-0.3-0.4-0.4-0.8-0.4c-0.2,0-0.3,0-0.5,0.1c-0.1,0.1-0.2,0.2-0.3,0.3
			c-0.1,0.2-0.2,0.4-0.2,0.6c0,0.3-0.1,0.6-0.1,0.9v0.5h2.2V28.6z"/>
		<path class="st9" d="M45.8,31.9c0-0.2,0-0.4,0.1-0.6c0-0.2,0.1-0.3,0.1-0.4h1.4c0,0.3,0,0.6,0.1,0.8c0,0.2,0.1,0.4,0.2,0.5
			c0.1,0.1,0.2,0.2,0.4,0.3s0.3,0.1,0.6,0.1s0.5-0.1,0.7-0.2c0.1-0.1,0.2-0.3,0.2-0.5c0-0.1,0-0.2,0-0.3s-0.1-0.2-0.1-0.3
			c-0.1-0.1-0.1-0.2-0.2-0.3s-0.2-0.2-0.3-0.3l-1.5-1.4c-0.2-0.2-0.4-0.4-0.6-0.6c-0.2-0.2-0.3-0.4-0.5-0.6
			c-0.1-0.2-0.2-0.4-0.3-0.7S46,26.9,46,26.7c0-0.3,0.1-0.6,0.2-0.9s0.3-0.5,0.6-0.6s0.5-0.3,0.9-0.4c0.3-0.1,0.7-0.1,1-0.1
			c0.4,0,0.8,0,1.1,0.1s0.6,0.2,0.8,0.3s0.4,0.3,0.5,0.6c0.1,0.2,0.2,0.5,0.2,0.8c0,0.2,0,0.4-0.1,0.6c0,0.2-0.1,0.4-0.1,0.5h-1.4
			c0-0.3,0-0.5,0-0.8s-0.1-0.4-0.1-0.5c-0.1-0.1-0.2-0.2-0.3-0.3s-0.3-0.1-0.5-0.1s-0.3,0-0.4,0.1c-0.1,0-0.2,0.1-0.3,0.2
			s-0.1,0.2-0.2,0.2c0,0.1,0,0.2,0,0.3c0,0.2,0.1,0.4,0.2,0.6c0.1,0.2,0.3,0.4,0.5,0.6l1.6,1.5c0.1,0.1,0.3,0.3,0.4,0.4
			c0.2,0.2,0.3,0.3,0.4,0.5c0.1,0.2,0.3,0.4,0.4,0.6c0.1,0.2,0.1,0.5,0.1,0.7c0,0.3-0.1,0.6-0.2,0.8c-0.1,0.3-0.3,0.5-0.5,0.6
			s-0.5,0.3-0.9,0.4s-0.8,0.1-1.2,0.1s-0.7,0-1-0.1s-0.6-0.2-0.9-0.3c-0.2-0.1-0.4-0.3-0.6-0.6S45.8,32.3,45.8,31.9z"/>
		<path class="st9" d="M52.6,32.6c0-0.4,0.1-0.8,0.3-1s0.5-0.3,0.9-0.3s0.7,0.1,0.9,0.3s0.3,0.5,0.3,0.9s-0.1,0.7-0.3,0.9
			s-0.5,0.3-0.9,0.3s-0.7-0.1-0.9-0.3S52.6,33,52.6,32.6z"/>
	</g>
	<path class="st9" d="M136,77H79V12h57V77z M84,72h47V17H84V72z"/>
	<g>
		<path class="st9" d="M102.5,60.1l4.8-9.2c0.4-0.8,0.8-1.6,1.1-2.2c0.3-0.6,0.5-1.2,0.6-1.6s0.3-0.9,0.3-1.2s0.1-0.7,0.1-0.9
			c0-0.4,0-0.8-0.1-1.1s-0.2-0.5-0.4-0.7s-0.4-0.3-0.6-0.4s-0.5-0.1-0.8-0.1c-0.7,0-1.3,0.3-1.6,0.9s-0.5,1.5-0.5,2.6v1.2h-2.5
			c-0.1-0.5-0.2-0.9-0.2-1.3s-0.1-0.8-0.1-1.3c0-0.6,0.1-1.1,0.3-1.6s0.5-1,0.9-1.5s0.9-0.8,1.6-1.1s1.4-0.4,2.3-0.4
			s1.8,0.1,2.4,0.3s1.2,0.5,1.7,1s0.7,0.9,0.9,1.5s0.3,1.3,0.3,2.1c0,0.4,0,0.9-0.1,1.3s-0.2,0.9-0.4,1.4s-0.4,1-0.7,1.6
			c-0.3,0.6-0.7,1.2-1.1,2l-4.3,8.1h6.3V62h-10.1v-1.9H102.5z"/>
	</g>
	<g>
		<path class="st9" d="M92.8,22.9h2l0.9,6.6l0.1,1.5H96l0.2-1.7l1.5-6.4h1.7l1.4,6.4L101,31h0.2l0.1-1.5l0.8-6.6h2l-1.9,10.8h-2.1
			L99,28.5l-0.4-2.3h-0.2l-0.3,2.3l-1.2,5.2h-2.1L92.8,22.9z"/>
		<path class="st9" d="M108.1,33.8c-0.5,0-0.9-0.1-1.3-0.2s-0.7-0.4-0.9-0.7c-0.3-0.3-0.4-0.7-0.6-1.1c-0.1-0.5-0.2-1-0.2-1.7v-1.7
			c0-0.6,0.1-1,0.2-1.4s0.2-0.7,0.4-1c0.2-0.3,0.4-0.5,0.6-0.6s0.5-0.3,0.7-0.4s0.5-0.1,0.7-0.2c0.2,0,0.5,0,0.6,0
			c0.4,0,0.7,0,1.1,0.1c0.3,0.1,0.6,0.2,0.9,0.4c0.3,0.2,0.5,0.5,0.6,0.8s0.2,0.8,0.2,1.3c0,0.2,0,0.4,0,0.5s0,0.4-0.1,0.5
			c0,0.2,0,0.3-0.1,0.5c0,0.2-0.1,0.3-0.1,0.5h-3.7v0.9c0,0.4,0,0.7,0.1,1c0,0.3,0.1,0.5,0.2,0.6c0.1,0.2,0.2,0.3,0.4,0.3
			c0.2,0.1,0.3,0.1,0.6,0.1c0.1,0,0.2,0,0.4-0.1c0.1,0,0.2-0.1,0.3-0.2s0.2-0.2,0.2-0.4c0.1-0.2,0.1-0.3,0.1-0.6v-0.3h1.7V31
			c0,0.8-0.3,1.4-0.8,1.8C109.8,33.7,109.1,33.8,108.1,33.8z M109.3,28.6c0,0,0-0.1,0-0.2s0-0.2,0-0.2c0-0.1,0-0.2,0-0.3
			c0-0.1,0-0.2,0-0.2c0-0.6-0.1-1-0.3-1.2c-0.2-0.3-0.4-0.4-0.8-0.4c-0.2,0-0.3,0-0.5,0.1c-0.1,0.1-0.2,0.2-0.3,0.3
			c-0.1,0.2-0.2,0.4-0.2,0.6c0,0.3-0.1,0.6-0.1,0.9v0.5h2.2V28.6z"/>
		<path class="st9" d="M115,33.9c-0.1,0-0.3,0-0.4,0c-0.2,0-0.3-0.1-0.5-0.1s-0.4-0.2-0.5-0.3c-0.2-0.1-0.3-0.3-0.5-0.6
			c-0.1-0.2-0.2-0.5-0.3-0.9c-0.1-0.3-0.1-0.8-0.1-1.3v-2.8c0-0.5,0-0.9,0.1-1.2c0.1-0.3,0.2-0.6,0.4-0.8c0.1-0.2,0.3-0.4,0.5-0.5
			s0.4-0.2,0.5-0.3c0.2-0.1,0.4-0.1,0.5-0.1s0.3,0,0.4,0c0.2,0,0.4,0,0.6,0.1c0.2,0,0.3,0.1,0.5,0.2c0.1,0.1,0.3,0.1,0.4,0.2
			s0.2,0.2,0.3,0.3l0,0l-0.1-1.1v-2.3h2v11.5h-1.6l-0.2-0.8c-0.1,0.1-0.2,0.2-0.3,0.3s-0.3,0.2-0.4,0.3c-0.2,0.1-0.3,0.2-0.5,0.2
			C115.5,33.8,115.3,33.9,115,33.9z M115.7,32.6c0.1,0,0.3,0,0.4-0.1c0.1,0,0.2-0.1,0.3-0.1c0.1-0.1,0.2-0.1,0.2-0.2
			s0.1-0.2,0.2-0.2v-5.3c-0.1-0.2-0.2-0.3-0.4-0.5c-0.2-0.1-0.4-0.2-0.6-0.2s-0.3,0-0.4,0.1s-0.2,0.1-0.3,0.2
			c-0.1,0.1-0.2,0.3-0.2,0.5c-0.1,0.2-0.1,0.5-0.1,0.8V31c0,0.3,0,0.6,0.1,0.8c0.1,0.2,0.1,0.4,0.2,0.5s0.2,0.2,0.3,0.2
			C115.4,32.6,115.6,32.6,115.7,32.6z"/>
		<path class="st9" d="M120.6,32.6c0-0.4,0.1-0.8,0.3-1s0.5-0.3,0.9-0.3s0.7,0.1,0.9,0.3c0.2,0.2,0.3,0.5,0.3,0.9s-0.1,0.7-0.3,0.9
			c-0.2,0.2-0.5,0.3-0.9,0.3s-0.7-0.1-0.9-0.3S120.6,33,120.6,32.6z"/>
	</g>
	<path class="st10" d="M204,77h-57V12h57V77z M152,72h47V17h-47V72z"/>
	<g>
		<path class="st10" d="M170.5,57.6c0-0.4,0-0.8,0.1-1.2s0.1-0.9,0.2-1.4h2.6v1.1c0,0.7,0.1,1.2,0.2,1.7c0.1,0.5,0.3,0.8,0.5,1.1
			s0.4,0.5,0.7,0.6s0.6,0.2,0.9,0.2c0.3,0,0.6,0,0.9-0.1c0.3-0.1,0.5-0.2,0.6-0.4s0.3-0.5,0.4-0.8c0.1-0.3,0.1-0.7,0.1-1.2v-2.4
			c0-0.5,0-0.9-0.1-1.2c-0.1-0.4-0.2-0.7-0.4-0.9s-0.4-0.4-0.7-0.6s-0.6-0.2-1.1-0.2H174v-2.3h1.4c0.3,0,0.5,0,0.8-0.1
			c0.2-0.1,0.4-0.2,0.6-0.4c0.2-0.2,0.3-0.5,0.4-0.8s0.2-0.7,0.2-1.1v-2.3c0-0.8-0.2-1.4-0.5-1.8s-0.8-0.6-1.4-0.6
			c-0.7,0-1.2,0.3-1.6,0.9c-0.4,0.6-0.6,1.5-0.6,2.6v1.2h-2.5c-0.1-0.4-0.2-0.8-0.2-1.3s-0.1-0.9-0.1-1.3c0-0.6,0.1-1.1,0.3-1.6
			s0.5-1,0.9-1.5c0.4-0.4,0.9-0.8,1.6-1.1c0.6-0.3,1.4-0.4,2.2-0.4c0.9,0,1.7,0.1,2.4,0.3s1.2,0.5,1.6,0.9c0.4,0.4,0.7,0.9,0.9,1.5
			s0.3,1.3,0.3,2V46c0,0.6-0.1,1.2-0.2,1.6c-0.2,0.5-0.4,0.9-0.6,1.3c-0.3,0.4-0.5,0.7-0.9,0.9c-0.3,0.2-0.6,0.5-1,0.6v0.1
			c0.4,0.1,0.8,0.3,1.2,0.6c0.4,0.2,0.7,0.5,0.9,0.9c0.3,0.4,0.5,0.8,0.6,1.3s0.2,1.1,0.2,1.8v1.4c0,1-0.1,1.8-0.4,2.5
			s-0.7,1.2-1.2,1.7c-0.5,0.4-1.1,0.7-1.7,0.9c-0.7,0.2-1.3,0.3-2.1,0.3c-1.7,0-2.9-0.4-3.8-1.2S170.5,59,170.5,57.6z"/>
	</g>
	<g>
		<path class="st10" d="M158,24.2h-2.2v-1.3h6.5v1.3H160v9.5h-2V24.2z"/>
		<path class="st10" d="M163.5,22.2h2v2.1l-0.1,1.5c0.2-0.2,0.3-0.3,0.5-0.4s0.4-0.2,0.5-0.3c0.2-0.1,0.4-0.1,0.6-0.1
			c0.2,0,0.4,0,0.6,0c0.7,0,1.2,0.2,1.5,0.5c0.4,0.4,0.5,0.9,0.5,1.6v6.7h-2v-6.6c0-0.4-0.1-0.7-0.2-0.8c-0.2-0.2-0.4-0.2-0.7-0.2
			c-0.2,0-0.4,0.1-0.6,0.2c-0.2,0.1-0.4,0.3-0.5,0.4v7.1h-2V22.2H163.5z"/>
		<path class="st10" d="M171.8,25h2v6.6c0,0.4,0.1,0.7,0.2,0.8c0.2,0.2,0.4,0.2,0.7,0.2c0.2,0,0.4,0,0.6-0.1s0.4-0.2,0.5-0.4V25h2
			v8.7h-1.6l-0.2-0.9l0,0c-0.2,0.2-0.3,0.4-0.5,0.5s-0.4,0.2-0.6,0.3c-0.2,0.1-0.4,0.1-0.6,0.2s-0.4,0.1-0.6,0.1
			c-0.7,0-1.2-0.2-1.5-0.5s-0.5-0.9-0.5-1.6V25H171.8z"/>
		<path class="st10" d="M180,25h1.5l0.2,0.9c0.2-0.3,0.5-0.6,0.8-0.7s0.6-0.2,0.9-0.2c0.6,0,1,0.1,1.3,0.4s0.4,0.7,0.4,1.3
			c0,0.1,0,0.2,0,0.3c0,0.1,0,0.2-0.1,0.3c0,0.1-0.1,0.2-0.1,0.3c0,0.1-0.1,0.2-0.1,0.3h-1.4V27c0-0.2,0-0.3,0-0.4s-0.1-0.2-0.1-0.3
			c0-0.1-0.1-0.1-0.2-0.1c-0.1,0-0.1,0-0.2,0c-0.2,0-0.3,0-0.4,0.1c-0.1,0.1-0.3,0.2-0.3,0.3v7.2h-2V25H180z"/>
		<path class="st10" d="M185.9,31.9c0-0.2,0-0.4,0.1-0.6c0-0.2,0.1-0.3,0.1-0.4h1.4c0,0.3,0,0.6,0.1,0.8c0,0.2,0.1,0.4,0.2,0.5
			s0.2,0.2,0.4,0.3s0.3,0.1,0.6,0.1s0.5-0.1,0.7-0.2c0.1-0.1,0.2-0.3,0.2-0.5c0-0.1,0-0.2,0-0.3c0-0.1-0.1-0.2-0.1-0.3
			c-0.1-0.1-0.1-0.2-0.2-0.3s-0.2-0.2-0.3-0.3l-1.5-1.4c-0.2-0.2-0.4-0.4-0.6-0.6c-0.2-0.2-0.3-0.4-0.5-0.6
			c-0.1-0.2-0.2-0.4-0.3-0.7c-0.1-0.2-0.1-0.5-0.1-0.7c0-0.3,0.1-0.6,0.2-0.9c0.1-0.2,0.3-0.5,0.6-0.6s0.5-0.3,0.9-0.4
			s0.7-0.1,1-0.1c0.4,0,0.8,0,1.1,0.1s0.6,0.2,0.8,0.3c0.2,0.2,0.4,0.3,0.5,0.6c0.1,0.2,0.2,0.5,0.2,0.8c0,0.2,0,0.4-0.1,0.6
			c0,0.2-0.1,0.4-0.1,0.5h-1.4c0-0.3,0-0.5,0-0.8c0-0.2-0.1-0.4-0.1-0.5c-0.1-0.1-0.2-0.2-0.3-0.3c-0.1-0.1-0.3-0.1-0.5-0.1
			s-0.3,0-0.4,0.1c-0.1,0-0.2,0.1-0.3,0.2s-0.1,0.2-0.2,0.2s0,0.2,0,0.3c0,0.2,0.1,0.4,0.2,0.6c0.1,0.2,0.3,0.4,0.5,0.6l1.6,1.5
			c0.1,0.1,0.3,0.3,0.4,0.4c0.2,0.2,0.3,0.3,0.4,0.5c0.1,0.2,0.3,0.4,0.4,0.6c0.1,0.2,0.1,0.5,0.1,0.7c0,0.3-0.1,0.6-0.2,0.8
			c-0.1,0.3-0.3,0.5-0.5,0.6s-0.5,0.3-0.9,0.4s-0.8,0.1-1.2,0.1s-0.7,0-1-0.1s-0.6-0.2-0.9-0.3c-0.2-0.1-0.4-0.3-0.6-0.6
			C186,32.6,185.9,32.3,185.9,31.9z"/>
		<path class="st10" d="M192.7,32.6c0-0.4,0.1-0.8,0.3-1s0.5-0.3,0.9-0.3s0.7,0.1,0.9,0.3c0.2,0.2,0.3,0.5,0.3,0.9s-0.1,0.7-0.3,0.9
			s-0.5,0.3-0.9,0.3s-0.7-0.1-0.9-0.3S192.7,33,192.7,32.6z"/>
	</g>
</g>
</svg>
