<?xml version="1.0" encoding="utf-8"?>
<!-- Generator: Adobe Illustrator 21.0.2, SVG Export Plug-In . SVG Version: 6.00 Build 0)  -->
<svg version="1.1" id="arrow" xmlns="http://www.w3.org/2000/svg" xmlns:xlink="http://www.w3.org/1999/xlink" x="0px" y="0px"
	 viewBox="0 0 300 300" style="enable-background:new 0 0 300 300;" xml:space="preserve">
<style type="text/css">
	.st0{fill:#FFFFFF;}
</style>
<path class="st0" d="M263.4,140.2l-50-63c-5.7-7.1-16-8.3-23.2-2.7c-7.1,5.7-8.3,16-2.7,23.2l28.8,36.2H38.5
	c-9.1,0-16.5,7.4-16.5,16.5c0,9.1,7.4,16.5,16.5,16.5h177.9l-30.6,39c-5.6,7.2-4.4,17.5,2.8,23.2c3,2.4,6.6,3.5,10.2,3.5
	c4.9,0,9.7-2.2,13-6.3l50.2-63.9c1.4-1.3,2.6-2.9,3.5-4.7C268.1,152,267.4,145.2,263.4,140.2z"/>
</svg>
