<?xml version="1.0" encoding="utf-8"?>
<!-- Generator: Adobe Illustrator 21.0.2, SVG Export Plug-In . SVG Version: 6.00 Build 0)  -->
<svg version="1.1" id="Layer_1" xmlns="http://www.w3.org/2000/svg" xmlns:xlink="http://www.w3.org/1999/xlink" x="0px" y="0px"
	 viewBox="0 0 83 64" style="enable-background:new 0 0 83 64;" xml:space="preserve">
<style type="text/css">
	.st0{fill:#FFFFFF;}
</style>
<path class="st0" d="M82.5,2.4C82.2,2.1,81.7,2,81.3,2l-5.8,0.8V1.5c0-0.5-0.2-0.9-0.6-1.2C74.5,0,74.1-0.1,73.6,0l-5.2,1.2
	c-0.1-0.3-0.3-0.7-0.6-0.9c-0.4-0.3-0.9-0.4-1.3-0.2L42.1,7l-0.3-0.1L16.3,0.1c-0.4-0.1-0.9,0-1.3,0.3c-0.3,0.2-0.5,0.5-0.5,0.8
	L9.3,0C8.9-0.1,8.4,0,8,0.3C7.6,0.6,7.4,1,7.4,1.5V3L1.7,2C1.3,1.9,0.8,2,0.5,2.3C0.2,2.6,0,3.1,0,3.5v52c0,0.7,0.5,1.4,1.2,1.5
	l40,7c0.1,0,0.2,0,0.3,0l0,0l0,0l0,0l0,0c0.1,0,0.2,0,0.3,0l40-7c0.7-0.1,1.2-0.7,1.2-1.5v-52C83,3.1,82.8,2.7,82.5,2.4z M17.5,4.8
	L40,9.5v18c0,0.8,0.7,1.5,1.5,1.5s1.5-0.7,1.5-1.5V9.9l22.5-5v47.4L43,58.5v-17c0-0.8-0.7-1.5-1.5-1.5S40,40.7,40,41.5v17l-22.5-6.2
	V4.8z M68.5,4.3l4-0.9v48.9l-4,0.9V4.3z M10.5,3.3l4,0.8v49l-4-0.9V3.3z M3,5.3l4.5,0.8v47.5c0,0.7,0.5,1.3,1.2,1.5l6.6,1.4L3,54.2
	V5.3z M80,54.2l-12.3,2.2l6.6-1.4c0.7-0.1,1.2-0.8,1.2-1.5V5.9L80,5.3C80,5.3,80,54.2,80,54.2z"/>
</svg>
