<?xml version="1.0" encoding="utf-8"?>
<!-- Generator: Adobe Illustrator 21.0.2, SVG Export Plug-In . SVG Version: 6.00 Build 0)  -->
<svg version="1.1" id="Layer_1" xmlns="http://www.w3.org/2000/svg" xmlns:xlink="http://www.w3.org/1999/xlink" x="0px" y="0px"
	 viewBox="0 0 95.2 52.7" style="enable-background:new 0 0 95.2 52.7;" xml:space="preserve">
<style type="text/css">
	.st0{fill:#ADADAD;}
	.st1{fill:#ED1414;}
</style>
<g id="hand1">
	<path class="st0" d="M44.2,15.4L44,15.3c-0.5-0.3-1-0.5-1.5-0.6l0.8-1.3c1.4-2.3,0.8-5.2-1.3-6.6l-0.2-0.1
		c-0.5-0.3-1.1-0.6-1.8-0.6c0.2-0.7,0.3-1.5,0.1-2.3c-0.2-1.3-1-2.3-2-3l-0.2-0.1c-1.1-0.7-2.3-0.8-3.6-0.5
		c-1.2,0.3-2.2,1.1-2.9,2.2l-0.8,1.3c-0.3-0.4-0.7-0.8-1.2-1.1l-0.2-0.1C27,1,24.1,1.8,22.7,4.1L20.3,8c-0.4-0.5-0.8-0.9-1.3-1.3
		l-0.2-0.1c-2.2-1.4-5.3-0.6-6.7,1.7l-6.9,11c-0.8,0.9-1.6,1.9-2.3,2.9c-5.5,8.4-2.9,19.7,5.6,25c3.3,2.1,6.9,3.1,10.3,3.1
		c5.7,0,11.1-2.8,14.4-8.2l2-3.9L45.5,22C46.9,19.7,46.3,16.8,44.2,15.4z M40.3,9.4c0.7,0.5,0.9,1.6,0.4,2.4l-3.2,5.1l0,0l-4.1,6.6
		L31.8,26l-2.9-1.9l2.7-4.3l0,0l6.2-9.9C38.1,9.5,38.5,9.2,39,9c0.3,0,0.8,0,1.1,0.2L40.3,9.4z M33.9,3.9c0.3-0.4,0.7-0.7,1.2-0.9
		c0.4-0.1,0.9-0.1,1.2,0.2l0.2,0.1c0.3,0.2,0.6,0.6,0.7,1c0.1,0.5,0,1-0.3,1.4l-1.6,2.6l0,0l-8.9,14.1l-2.9-1.9l7.3-11.6l0,0
		L33.9,3.9z M42.9,20.4L32.7,36.7l-2,3.9c-4.5,7.2-13,8.9-20.6,4.1c-3.4-2.2-5.8-5.5-6.7-9.5s-0.2-8,2-11.5c0.5-0.8,1.2-1.6,1.8-2.3
		c0.1-0.1,0.2-0.2,0.3-0.3l7-11.2c0.6-0.9,1.8-1.3,2.6-0.8l0.2,0.1c0.9,0.5,1,1.7,0.8,2l-6.6,10.4c-0.1,0.1-0.1,0.2-0.1,0.3
		c0,0,0,0-0.1,0.1c-0.5,0.6-0.4,1.6,0.2,2.1c3.3,2.7,4.1,7.4,1.8,11c-0.3,0.4-0.5,0.8-0.9,1.2c-0.6,0.6-0.5,1.6,0.1,2.1
		c0.3,0.3,0.6,0.4,1,0.4s0.8-0.2,1.1-0.5c0.4-0.5,0.8-1,1.2-1.6c2.8-4.5,2.1-10.3-1.5-14l2.8-4.5l0,0L25,5.7
		c0.5-0.9,1.6-1.2,2.3-0.7l0.2,0.1c0.7,0.5,0.9,1.6,0.4,2.4l-4.6,7.4l0,0L20.9,19l-1.6-1c-0.7-0.4-1.6-0.2-2.1,0.5
		c-0.4,0.7-0.2,1.6,0.5,2.1L34,30.9c0.2,0.2,0.5,0.2,0.8,0.2c0.5,0,1-0.2,1.3-0.7c0.4-0.7,0.2-1.6-0.5-2.1l-1.3-0.8l1.5-2.4l4.1-6.6
		c0.5-0.9,1.6-1.2,2.3-0.7l0.2,0.1C43.3,18.4,43.5,19.5,42.9,20.4z"/>
	<path class="st0" d="M49.8,22L60,38.3l2,3.9c3.4,5.4,8.7,8.2,14.4,8.2c3.4,0,7-1,10.3-3.1c8.5-5.3,11.1-16.6,5.7-25.1
		c-0.7-1-1.4-2-2.3-2.9l-6.9-11c-1.5-2.3-4.5-3.1-6.7-1.7l-0.2,0.1C75.8,7,75.3,7.5,75,8l-2.4-3.9c-1.4-2.3-4.3-3-6.5-1.7l-0.2,0.1
		c-0.5,0.3-0.9,0.7-1.2,1.1l-0.8-1.3c-0.7-1.1-1.7-1.8-2.9-2.2c-1.2-0.3-2.5-0.2-3.6,0.5l-0.2,0.1c-1.1,0.7-1.8,1.7-2,3
		c-0.1,0.8-0.1,1.5,0.1,2.3c-0.6,0.1-1.2,0.3-1.8,0.6l-0.2,0.1c-2.2,1.4-2.7,4.3-1.3,6.6l0.8,1.3c-0.5,0.1-1.1,0.3-1.5,0.6l-0.2,0.1
		C48.9,16.8,48.4,19.7,49.8,22z M55.1,9.2C55.5,9,55.9,9,56.3,9.1c0.5,0.1,0.9,0.4,1.2,0.9l6.2,9.9l0,0l2.7,4.3L63.5,26L62,23.6
		L57.9,17l0,0l-3.2-5.1c-0.5-0.9-0.4-2,0.4-2.4L55.1,9.2z M64.6,9.1L64.6,9.1l7.3,11.6L69,22.6L60,8.4l0,0l-1.6-2.6
		c-0.3-0.4-0.4-0.9-0.3-1.4c0.1-0.4,0.3-0.8,0.7-1L59,3.2C59.3,3,59.8,2.9,60.2,3c0.5,0.1,0.9,0.4,1.2,0.9L64.6,9.1z M52.7,18
		l0.2-0.1c0.7-0.5,1.8-0.1,2.3,0.7l4.1,6.6l1.5,2.4l-1.3,0.8c-0.7,0.4-0.9,1.4-0.5,2.1c0.3,0.5,0.8,0.7,1.3,0.7
		c0.3,0,0.6-0.1,0.8-0.2l16.4-10.4c0.7-0.4,0.9-1.4,0.5-2.1s-1.4-0.9-2.1-0.5l-1.6,1l-2.6-4.1l0,0l-4.6-7.4c-0.5-0.9-0.4-2,0.4-2.4
		L67.7,5c0.7-0.5,1.8-0.1,2.3,0.7l7.9,12.5l0,0l2.8,4.5c-3.7,3.7-4.4,9.5-1.5,14c0.3,0.6,0.7,1.1,1.2,1.6c0.3,0.3,0.7,0.5,1.1,0.5
		s0.7-0.1,1-0.4c0.6-0.6,0.7-1.5,0.1-2.1c-0.3-0.4-0.6-0.7-0.9-1.2c-2.3-3.6-1.5-8.3,1.8-11c0.6-0.5,0.8-1.5,0.2-2.1
		c0,0,0,0-0.1-0.1c0-0.1-0.1-0.2-0.1-0.3l-6.6-10.4c-0.2-0.3,0-1.5,0.8-2l0.2-0.1c0.8-0.5,2-0.2,2.6,0.8l7,11.2
		c0.1,0.1,0.2,0.3,0.3,0.3c0.7,0.7,1.3,1.5,1.8,2.3c2.2,3.4,2.9,7.5,2,11.5s-3.3,7.3-6.7,9.5c-7.6,4.8-16,3.1-20.6-4.1l-2-3.9
		l-10-16.3C51.8,19.5,52,18.4,52.7,18z"/>
</g>
<g id="Layer_1_1_">
	<path class="st1" d="M65.1,34.3c0.3-0.9,0.4-1.8,0.4-2.7c0-5.8-4.7-10.5-10.5-10.5c-3,0-5.6,1.2-7.5,3.2c-1.9-2-4.6-3.2-7.5-3.2
		c-5.8,0-10.5,4.7-10.5,10.5c-0.1,0.9,0.1,1.8,0.4,2.7c0.4,1.6,1.2,3,2.2,4.2c5,7.1,15.5,14.2,15.5,14.2s10.5-7.1,15.5-14.2
		C63.9,37.3,64.7,35.9,65.1,34.3z M47.4,39L47.4,39L47.4,39L47.4,39L47.4,39z"/>
</g>
</svg>
