<?xml version="1.0" encoding="utf-8"?>
<!-- Generator: Adobe Illustrator 21.0.2, SVG Export Plug-In . SVG Version: 6.00 Build 0)  -->
<svg version="1.1" id="feather" xmlns="http://www.w3.org/2000/svg" xmlns:xlink="http://www.w3.org/1999/xlink" x="0px" y="0px"
	 viewBox="0 0 300 300" style="enable-background:new 0 0 300 300;" xml:space="preserve">
<style type="text/css">
	.st0{fill:#FFFFFF;}
</style>
<path class="st0" d="M271,18.3c-0.9-3.4-4.3-5.4-7.7-4.6c-2.5,0.6-61.2,14.4-97.3,55.1c-1-4.1-2.8-8.7-7.8-10.2
	c-5.6-1.7-10.5,2.2-13.7,5.2c-11.5,10.9-21.9,33.6-27.8,48.4c-1.7-1.6-3.7-2.9-6.1-3.4c-3.4-0.7-8.5-0.1-13.7,6.6
	c-11.2,14.7-28.6,61.2-31,88.6C65,213,66,220,68.7,225c-20.5,31.6-32.8,55.4-33.9,57.6c-1.6,3.2-0.4,7.1,2.8,8.7
	c0.9,0.5,2,0.7,3,0.7c2.4,0,4.6-1.3,5.8-3.5c0.3-0.5,12.4-24,32.8-55.4c1.8,0.4,3.5,0.4,4.8,0.3c4.2,1.8,14.3,5.5,27.5,5.5
	c13.5,0,30.2-3.8,47-17.3c15.7-12.5,21.3-19.7,19.7-25.9c17.4-7.9,45-21.9,55.6-35.4c5.6-7,7-13.3,4.2-18.7c-2-4-5.9-6.2-10.1-7.5
	c11.8-12.8,30.7-36.9,36.8-64.8C273.1,31.4,271.6,20.7,271,18.3z M252.1,66.4c-8,36.5-42.2,67.4-42.6,67.7c-2.1,1.8-2.7,4.8-1.7,7.3
	c1,2.6,3.6,4.2,6.3,4c4.8-0.2,10.6,0.7,12.2,2c-0.1,0.5-0.6,2-2.7,4.7c-11.3,14.3-51,32.2-65.3,37.9c-3.2,1.3-4.8,4.8-3.8,8.1
	c0.9,2.7,3.3,4.4,6,4.5c-2.2,2.2-5.5,5-10.1,8.8c-31.2,25-61.2,10.2-62.6,9.5c-0.1-0.1-0.3-0.1-0.4-0.2
	c25.2-37.3,60.3-82.4,100.2-114c2.8-2.2,3.3-6.3,1.1-9.1c-2.2-2.8-6.3-3.3-9.1-1.1c-40.4,32-75.4,76.3-100.9,113.7
	c0-1.4,0.1-3,0.2-4.9c2.3-26.1,19.4-70.1,28.4-81.9c0.4-0.5,0.7-0.9,1-1.2c1.1,1.5,2.5,4.7,3.2,7.4c0.7,2.8,3.2,4.8,6,4.9
	c2.9,0.1,5.5-1.7,6.4-4.4c0.1-0.4,14.5-42.5,29.6-56.8c0.1-0.1,0.1-0.1,0.2-0.1c0.1,0.3,0.1,0.5,0.2,0.8c1,4.2,2.3,10,7.9,11.4
	c6,1.5,10.6-3.9,12.6-6.2c25.9-30.2,67.1-45.3,84.1-50.5C257.9,35,256.5,46.6,252.1,66.4z"/>
</svg>
