<?xml version="1.0" encoding="utf-8"?>
<!-- Generator: Adobe Illustrator 21.0.2, SVG Export Plug-In . SVG Version: 6.00 Build 0)  -->
<svg version="1.1" id="Layer_1" xmlns="http://www.w3.org/2000/svg" xmlns:xlink="http://www.w3.org/1999/xlink" x="0px" y="0px"
	 viewBox="0 0 248.7 33.4" style="enable-background:new 0 0 248.7 33.4;" xml:space="preserve">
<style type="text/css">
	.st0{fill:#FFFFFF;}
</style>
<g>
	<path class="st0" d="M0,0.3h5c0.7,0,1.5,0,2.3,0.1c0.8,0.1,1.6,0.2,2.3,0.3c0.8,0.2,1.5,0.4,2.2,0.7c0.7,0.3,1.3,0.8,1.8,1.3
		c0.5,0.6,0.9,1.2,1.2,2c0.3,0.8,0.5,1.8,0.5,2.9v1.6c0,0.9-0.1,1.7-0.4,2.4c-0.2,0.7-0.6,1.4-1,1.9c-0.4,0.6-0.9,1-1.4,1.4
		c-0.5,0.4-1.1,0.6-1.6,0.7v0.2c1.6,0.3,2.9,1.1,3.7,2.3c0.8,1.2,1.2,2.8,1.2,4.8v1.7c0,1.2-0.1,2.2-0.4,3.1
		c-0.3,0.9-0.6,1.6-1.1,2.2c-0.5,0.6-1,1.1-1.7,1.5c-0.7,0.4-1.4,0.7-2.2,0.9C9.7,32.7,8.8,32.9,8,33s-1.8,0.1-2.7,0.1H0V0.3z
		 M5.8,14.3c0.7,0,1.3-0.1,1.8-0.2c0.6-0.2,1-0.4,1.4-0.7C9.5,13,9.8,12.6,10,12c0.2-0.5,0.3-1.2,0.3-2V8.7c0-0.8-0.1-1.4-0.2-2
		C9.9,6.1,9.7,5.6,9.3,5.2C9,4.8,8.5,4.4,7.9,4.2C7.4,4,6.7,3.9,5.8,3.9h-1v10.4H5.8z M6.3,29.7c0.7,0,1.3-0.1,1.8-0.3
		c0.5-0.2,1-0.4,1.4-0.8c0.4-0.4,0.7-0.8,0.9-1.4c0.2-0.6,0.3-1.2,0.3-2v-2.6c0-0.8-0.1-1.5-0.2-2c-0.2-0.6-0.4-1.1-0.8-1.5
		c-0.4-0.4-0.8-0.7-1.4-0.9c-0.6-0.2-1.3-0.3-2.1-0.3H4.9v11.8H6.3z"/>
	<path class="st0" d="M20.1,0.3h12.2v3.9h-7.2V14h5.6v3.9h-5.6v11.2h7.4v3.9H20.1V0.3z"/>
	<path class="st0" d="M43.1,33.4c-0.5,0-1.1,0-1.7-0.1c-0.6-0.1-1.2-0.3-1.8-0.5c-0.6-0.3-1.2-0.6-1.7-1.1c-0.5-0.5-1-1.1-1.4-2
		c-0.4-0.8-0.7-1.8-1-3c-0.2-1.2-0.4-2.6-0.4-4.2V10.8c0-1.7,0.1-3.1,0.4-4.2c0.3-1.2,0.6-2.2,1-3C37,2.8,37.5,2.2,38,1.7
		c0.6-0.5,1.1-0.8,1.7-1.1c0.6-0.2,1.2-0.4,1.8-0.5C42.1,0,42.6,0,43.1,0c1.3,0,2.4,0.2,3.3,0.5C47.3,0.9,48,1.4,48.5,2
		c0.5,0.6,0.9,1.4,1.1,2.2C49.9,5.1,50,6,50,7c0,0.7,0,1.4-0.1,2c-0.1,0.6-0.2,1.3-0.3,2h-4V9.2c0-1.8-0.2-3.2-0.6-4.1
		c-0.4-0.9-1-1.3-1.7-1.3c-0.5,0-0.9,0.1-1.2,0.3c-0.3,0.2-0.6,0.5-0.9,0.9c-0.2,0.4-0.4,1-0.5,1.7c-0.1,0.7-0.2,1.6-0.2,2.6v15
		c0,1,0,1.9,0.1,2.6c0.1,0.7,0.3,1.2,0.5,1.6c0.2,0.4,0.5,0.7,0.9,0.9c0.4,0.2,0.8,0.3,1.3,0.3c0.3,0,0.6-0.1,0.9-0.2
		c0.3-0.1,0.6-0.4,0.8-0.7c0.2-0.3,0.4-0.7,0.5-1.2c0.1-0.5,0.2-1,0.2-1.7v-3.2h4.6v3c0,2.6-0.6,4.6-1.8,5.8
		C47.1,32.8,45.4,33.4,43.1,33.4z"/>
	<path class="st0" d="M57.7,0.3h5.7l6.1,32.8h-5l-0.9-5.9h-6l-0.9,5.9h-5.1L57.7,0.3z M63,23.5L60.6,7.1h-0.2l-2.3,16.4H63z"/>
	<path class="st0" d="M72.5,0.3h5v24.1c0,1,0.1,1.9,0.2,2.6c0.1,0.7,0.3,1.2,0.5,1.6c0.2,0.4,0.5,0.7,0.9,0.9
		c0.4,0.2,0.8,0.3,1.3,0.3c0.5,0,0.9-0.1,1.3-0.3c0.4-0.2,0.7-0.5,0.9-0.9c0.2-0.4,0.4-0.9,0.5-1.6c0.1-0.7,0.2-1.5,0.2-2.6V0.3h5
		V23c0,1.6-0.1,3-0.4,4.1c-0.3,1.1-0.6,2.1-1,2.9c-0.4,0.8-0.9,1.4-1.5,1.8c-0.5,0.4-1.1,0.8-1.7,1c-0.6,0.2-1.2,0.4-1.7,0.5
		s-1.1,0.1-1.6,0.1c-0.5,0-1,0-1.6-0.1c-0.6-0.1-1.1-0.2-1.7-0.5c-0.6-0.2-1.1-0.6-1.7-1s-1-1.1-1.4-1.8c-0.4-0.8-0.8-1.7-1-2.9
		c-0.2-1.1-0.4-2.5-0.4-4.1V0.3z"/>
	<path class="st0" d="M92.4,26.5c0-0.7,0-1.4,0.1-2c0.1-0.6,0.2-1.2,0.4-1.9h3.9v1.6c0,0.9,0.1,1.7,0.2,2.3c0.1,0.7,0.3,1.3,0.5,1.7
		c0.2,0.5,0.6,0.8,1,1.1c0.4,0.2,0.9,0.4,1.5,0.4c0.9,0,1.7-0.3,2.2-0.8c0.5-0.5,0.7-1.3,0.7-2.3c0-0.5,0-1-0.1-1.4
		c-0.1-0.4-0.2-0.9-0.4-1.3c-0.2-0.4-0.4-0.9-0.7-1.3c-0.3-0.5-0.7-1-1.1-1.6l-5.2-6.2c-0.9-1.2-1.6-2.4-2.1-3.6
		c-0.5-1.2-0.7-2.5-0.7-3.8c0-1.1,0.2-2.1,0.5-3c0.3-0.9,0.8-1.7,1.5-2.4c0.6-0.7,1.4-1.2,2.4-1.5c0.9-0.4,2-0.5,3.2-0.5
		c1.4,0,2.7,0.2,3.6,0.6c1,0.4,1.7,0.9,2.3,1.6c0.6,0.7,1,1.4,1.2,2.2c0.2,0.8,0.4,1.7,0.4,2.5c0,0.7-0.1,1.4-0.2,2
		c-0.1,0.6-0.2,1.3-0.4,2h-3.8V9.3c0-1.7-0.2-3.1-0.7-4c-0.5-0.9-1.3-1.4-2.4-1.4c-0.9,0-1.6,0.3-2.1,0.8c-0.5,0.5-0.7,1.2-0.7,2.1
		c0,0.5,0,0.9,0.1,1.2c0.1,0.4,0.2,0.7,0.3,1c0.1,0.3,0.3,0.6,0.5,0.9c0.2,0.3,0.4,0.6,0.7,0.9l5.8,7c1.1,1.4,1.9,2.7,2.4,3.9
		c0.6,1.3,0.8,2.6,0.8,4c0,1.2-0.2,2.2-0.5,3.2c-0.4,0.9-0.9,1.7-1.6,2.4c-0.7,0.7-1.5,1.2-2.5,1.5c-1,0.4-2,0.5-3.2,0.5
		c-1.5,0-2.7-0.2-3.7-0.6c-1-0.4-1.8-0.9-2.3-1.6c-0.6-0.7-1-1.4-1.2-2.2C92.5,28.2,92.4,27.3,92.4,26.5z"/>
	<path class="st0" d="M112,0.3h12.2v3.9H117V14h5.6v3.9H117v11.2h7.4v3.9H112V0.3z"/>
	<g>
		<path class="st0" d="M126.5,0.2v32.9h6.3c-0.2-0.1-0.3-0.1-0.5-0.2c-0.6-0.3-1.2-0.8-1.6-1.3c-0.4-0.6-0.8-1.2-1-2
			c-0.2-0.8-0.3-1.6-0.3-2.5c0-1.1,0.1-2.1,0.4-2.9c0.3-0.8,0.7-1.6,1.2-2.3s1.2-1.3,1.9-1.9c0.8-0.6,1.7-1.1,2.7-1.6
			c0.5-0.2,1-0.5,1.6-0.7c0.6-0.2,1.1-0.5,1.6-0.6v-3.5c0-0.5,0-1-0.1-1.4c0-0.4-0.1-0.8-0.3-1.2c-0.1-0.3-0.4-0.6-0.7-0.8
			c-0.3-0.2-0.7-0.3-1.2-0.3c-0.3,0-0.7,0.1-1,0.2c-0.3,0.1-0.6,0.3-0.9,0.7c-0.2,0.3-0.4,0.7-0.6,1.2c-0.1,0.5-0.2,1.1-0.2,1.9V15
			h-3.7c-0.1-0.5-0.2-1-0.3-1.4c-0.1-0.4-0.1-0.8-0.1-1.2c0-1,0.2-1.9,0.5-2.6c0.3-0.8,0.8-1.4,1.4-1.9c0.6-0.5,1.3-0.9,2.2-1.2
			c0.8-0.3,1.8-0.4,2.8-0.4c1.3,0,2.4,0.1,3.3,0.4c0.9,0.3,1.6,0.7,2.1,1.3s0.9,1.3,1.1,2.2c0.2,0.9,0.3,1.9,0.3,3.1v19.8H140
			l-0.3-2.3c-0.5,0.8-1.2,1.4-2.1,1.8c-0.3,0.2-0.7,0.3-1,0.4h10.7V0.2H126.5z"/>
		<path class="st0" d="M136.7,29.7c0.4,0,0.8-0.1,1.2-0.3c0.4-0.2,0.7-0.5,1-0.8v-8.3c-0.3,0.1-0.5,0.2-0.9,0.4s-0.7,0.3-1,0.6
			c-0.3,0.2-0.7,0.5-1,0.8c-0.3,0.3-0.6,0.7-0.9,1.1c-0.3,0.4-0.5,0.9-0.6,1.4c-0.2,0.5-0.2,1.1-0.2,1.8c0,1,0.2,1.8,0.6,2.4
			C135.2,29.3,135.8,29.7,136.7,29.7z"/>
	</g>
	<path class="st0" d="M150.2,0.3h5.2c0.8,0,1.6,0,2.4,0.1c0.8,0,1.7,0.2,2.5,0.4c0.8,0.2,1.6,0.6,2.3,1.1c0.7,0.5,1.3,1.2,1.9,2
		c0.5,0.9,1,2,1.3,3.3c0.3,1.3,0.5,2.9,0.5,4.8v9.5c0,1.9-0.2,3.5-0.5,4.8c-0.3,1.3-0.7,2.4-1.3,3.3c-0.5,0.9-1.2,1.5-1.9,2
		c-0.7,0.5-1.5,0.8-2.3,1.1c-0.8,0.2-1.6,0.4-2.5,0.4c-0.8,0-1.6,0.1-2.4,0.1h-5.2V0.3z M156.4,29.6c0.9,0,1.6-0.1,2.2-0.3
		c0.6-0.2,1-0.6,1.4-1.2c0.3-0.6,0.6-1.4,0.7-2.4s0.2-2.3,0.2-3.8V11.7c0-1.5-0.1-2.8-0.2-3.8c-0.1-1-0.4-1.8-0.7-2.4
		c-0.3-0.6-0.8-1-1.4-1.2c-0.6-0.2-1.3-0.3-2.2-0.3h-1.3v25.7H156.4z"/>
	<path class="st0" d="M177.8,33.4c-0.5,0-1.1,0-1.7-0.1c-0.6-0.1-1.2-0.3-1.8-0.5c-0.6-0.3-1.2-0.6-1.7-1.1c-0.6-0.5-1.1-1.1-1.5-2
		c-0.4-0.8-0.8-1.8-1-3c-0.3-1.2-0.4-2.6-0.4-4.2V10.8c0-1.7,0.1-3.1,0.4-4.2c0.3-1.2,0.6-2.2,1-3c0.4-0.8,0.9-1.4,1.5-1.9
		c0.6-0.5,1.1-0.8,1.7-1.1c0.6-0.2,1.2-0.4,1.8-0.5c0.6-0.1,1.2-0.1,1.7-0.1c0.5,0,1,0,1.6,0.1c0.6,0.1,1.2,0.2,1.8,0.5
		c0.6,0.2,1.2,0.6,1.7,1.1c0.6,0.5,1.1,1.1,1.5,1.9c0.4,0.8,0.8,1.8,1,3c0.3,1.2,0.4,2.6,0.4,4.3v11.6c0,1.6-0.1,3-0.4,4.2
		c-0.3,1.2-0.6,2.2-1.1,3c-0.4,0.8-0.9,1.5-1.5,2c-0.6,0.5-1.2,0.9-1.7,1.2c-0.6,0.3-1.2,0.5-1.8,0.5
		C178.8,33.4,178.3,33.4,177.8,33.4z M177.8,29.7c0.5,0,0.9-0.1,1.3-0.2c0.4-0.2,0.7-0.5,0.9-0.9c0.2-0.4,0.4-1,0.5-1.6
		c0.1-0.7,0.2-1.5,0.2-2.5V9.4c0-1.1-0.1-1.9-0.2-2.6s-0.3-1.3-0.5-1.7c-0.2-0.4-0.5-0.7-0.9-0.9c-0.4-0.2-0.8-0.3-1.3-0.3
		c-0.5,0-0.9,0.1-1.3,0.3c-0.4,0.2-0.7,0.5-0.9,0.9c-0.2,0.4-0.4,1-0.5,1.7c-0.1,0.7-0.2,1.6-0.2,2.6v14.9c0,1,0.1,1.9,0.2,2.5
		c0.1,0.7,0.3,1.2,0.5,1.6c0.2,0.4,0.6,0.7,0.9,0.9C176.9,29.6,177.3,29.7,177.8,29.7z"/>
	<path class="st0" d="M190.6,0.3h4l8,22h0.1c0-0.5-0.1-1.1-0.2-1.7c-0.1-0.6-0.1-1.3-0.2-2.1c-0.1-0.8-0.1-1.7-0.1-2.7
		c0-1-0.1-2.2-0.1-3.4v-12h4.5v32.8h-4.1l-7.9-21.4h-0.2c0,0.6,0.1,1.2,0.2,1.9c0.1,0.7,0.1,1.5,0.2,2.4c0.1,0.9,0.1,2,0.1,3.2
		c0,1.2,0.1,2.6,0.1,4.3v9.6h-4.4V0.3z"/>
	<path class="st0" d="M219.6,33.4c-0.5,0-1.1,0-1.7-0.1c-0.6-0.1-1.2-0.3-1.8-0.5c-0.6-0.3-1.2-0.6-1.7-1.1c-0.6-0.5-1.1-1.1-1.5-2
		c-0.4-0.8-0.8-1.8-1-3c-0.3-1.2-0.4-2.6-0.4-4.2V10.8c0-1.7,0.1-3.1,0.4-4.2c0.3-1.2,0.6-2.2,1-3c0.4-0.8,0.9-1.4,1.5-1.9
		c0.6-0.5,1.1-0.8,1.7-1.1c0.6-0.2,1.2-0.4,1.8-0.5C218.5,0,219,0,219.6,0c0.5,0,1,0,1.6,0.1s1.2,0.2,1.8,0.5
		c0.6,0.2,1.2,0.6,1.7,1.1c0.6,0.5,1.1,1.1,1.5,1.9c0.4,0.8,0.8,1.8,1,3c0.3,1.2,0.4,2.6,0.4,4.3v11.6c0,1.6-0.1,3-0.4,4.2
		c-0.3,1.2-0.6,2.2-1.1,3c-0.4,0.8-0.9,1.5-1.5,2c-0.6,0.5-1.2,0.9-1.7,1.2c-0.6,0.3-1.2,0.5-1.8,0.5
		C220.6,33.4,220,33.4,219.6,33.4z M219.6,29.7c0.5,0,0.9-0.1,1.3-0.2c0.4-0.2,0.7-0.5,0.9-0.9c0.2-0.4,0.4-1,0.5-1.6
		c0.1-0.7,0.2-1.5,0.2-2.5V9.4c0-1.1-0.1-1.9-0.2-2.6c-0.1-0.7-0.3-1.3-0.5-1.7c-0.2-0.4-0.5-0.7-0.9-0.9c-0.4-0.2-0.8-0.3-1.3-0.3
		c-0.5,0-0.9,0.1-1.3,0.3c-0.4,0.2-0.7,0.5-0.9,0.9c-0.2,0.4-0.4,1-0.5,1.7c-0.1,0.7-0.2,1.6-0.2,2.6v14.9c0,1,0.1,1.9,0.2,2.5
		c0.1,0.7,0.3,1.2,0.5,1.6c0.2,0.4,0.6,0.7,0.9,0.9C218.6,29.6,219.1,29.7,219.6,29.7z"/>
	<path class="st0" d="M232.4,0.3h5.4c0.6,0,1.3,0,2,0.1c0.7,0.1,1.5,0.2,2.2,0.4c0.7,0.2,1.4,0.5,2.1,0.9c0.7,0.4,1.3,0.9,1.8,1.6
		c0.5,0.7,1,1.6,1.3,2.6c0.3,1,0.5,2.3,0.5,3.8v0.8c0,2.5-0.4,4.5-1.1,6.1c-0.7,1.6-1.8,2.7-3.2,3.4l5.3,13.1h-5.3l-4.4-12.3h-1.9
		v12.3h-4.9V0.3z M238,17.2c0.9,0,1.6-0.1,2.2-0.3c0.6-0.2,1.1-0.5,1.5-1c0.4-0.5,0.6-1.1,0.8-1.8c0.2-0.7,0.2-1.7,0.2-2.8V8.8
		c0-0.8-0.1-1.6-0.2-2.2c-0.2-0.6-0.4-1.1-0.8-1.5c-0.4-0.4-0.8-0.7-1.5-0.9c-0.6-0.2-1.4-0.3-2.3-0.3h-0.7v13.3H238z"/>
</g>
</svg>
