<?xml version="1.0" encoding="utf-8"?>
<!-- Generator: Adobe Illustrator 21.0.2, SVG Export Plug-In . SVG Version: 6.00 Build 0)  -->
<svg version="1.1" id="Layer_3" xmlns="http://www.w3.org/2000/svg" xmlns:xlink="http://www.w3.org/1999/xlink" x="0px" y="0px"
	 viewBox="0 0 214 90.9" style="enable-background:new 0 0 214 90.9;" xml:space="preserve">
<style type="text/css">
	.st0{fill:none;}
	.st1{fill:#FFCC05;stroke:#FFFFFF;stroke-width:3;stroke-miterlimit:10;}
	.st2{fill:#9D5BC2;}
	.st3{fill:#488ECC;stroke:#FFFFFF;stroke-width:3;stroke-miterlimit:10;}
	.st4{fill:#FFFFFF;}
</style>
<g>
	<g id="Layer_1_2_">
		<circle class="st0" cx="52.2" cy="45.5" r="38.5"/>
		<circle class="st0" cx="166.5" cy="45.5" r="37.4"/>
		<path class="st1" d="M201.9,66.2l-35.2-23l-37.8,20.7l-0.2,0.2c7.3,13.3,21.4,22.2,37.6,22.1c15.1-0.1,30.2-7.1,37.6-19
			L201.9,66.2z"/>
		<g>
			<path class="st2" d="M51.9,3c0,0-0.6,0-0.9,0"/>
			<path class="st3" d="M83.1,16.4l-0.5-0.2L51,44.8V3C28.2,3.7,9.9,22.3,9.9,45.3c0,23.3,19,42.3,42.3,42.3s42.3-19,42.3-42.3
				C94.5,34.1,90.2,24,83.1,16.4z"/>
		</g>
		<g>
			<path class="st4" d="M98.6,39.4h2.7l1.5,8l0.4,3.2h0.1l0.4-3.2l1.5-8h2.6l-3.4,14.9H102L98.6,39.4z"/>
			<path class="st4" d="M108.5,51.4c0-0.3,0-0.7,0.1-1s0.1-0.6,0.2-0.8h1.9c0,0.6,0,1,0.1,1.4s0.1,0.7,0.3,0.9
				c0.1,0.2,0.3,0.4,0.5,0.5s0.5,0.1,0.8,0.1c0.4,0,0.7-0.1,0.9-0.4c0.2-0.2,0.3-0.5,0.3-0.8c0-0.2,0-0.3-0.1-0.5
				c0-0.2-0.1-0.3-0.2-0.5s-0.2-0.3-0.3-0.5c-0.1-0.2-0.3-0.3-0.4-0.5l-2-2.3c-0.3-0.3-0.5-0.7-0.8-1s-0.5-0.7-0.7-1.1
				c-0.2-0.4-0.3-0.8-0.5-1.2c-0.2-0.4-0.2-0.8-0.2-1.3c0-0.6,0.1-1.1,0.3-1.5s0.5-0.8,0.8-1.1s0.8-0.5,1.2-0.7
				c0.4-0.2,0.9-0.2,1.4-0.2c0.6,0,1.1,0.1,1.4,0.2s0.8,0.3,1.2,0.6c0.3,0.3,0.6,0.6,0.7,1c0.2,0.4,0.3,0.9,0.3,1.4
				c0,0.4,0,0.7-0.1,1s-0.1,0.6-0.2,0.9h-1.9c0-0.5,0-1-0.1-1.3s-0.1-0.7-0.2-0.9c-0.1-0.3-0.2-0.4-0.4-0.6s-0.4-0.2-0.7-0.2
				c-0.2,0-0.5,0-0.6,0.1c-0.2,0.1-0.3,0.2-0.4,0.3c-0.1,0.1-0.2,0.3-0.2,0.4s-0.1,0.3-0.1,0.5c0,0.4,0.1,0.7,0.3,1
				c0.2,0.3,0.4,0.6,0.7,1l2.2,2.6c0.2,0.2,0.4,0.4,0.6,0.7c0.2,0.3,0.4,0.6,0.6,1c0.2,0.3,0.4,0.7,0.5,1.1c0.1,0.4,0.2,0.8,0.2,1.3
				s-0.1,1-0.3,1.4c-0.2,0.4-0.4,0.8-0.8,1.1c-0.3,0.3-0.8,0.6-1.2,0.7c-0.5,0.2-1,0.3-1.6,0.3c-0.5,0-1-0.1-1.4-0.2
				c-0.5-0.1-0.9-0.3-1.2-0.6c-0.3-0.3-0.6-0.6-0.8-1.1C108.6,52.6,108.5,52,108.5,51.4z"/>
			<path class="st4" d="M117.4,52.3c0-0.7,0.2-1.3,0.5-1.6s0.7-0.5,1.2-0.5c0.6,0,0.9,0.2,1.2,0.6c0.3,0.4,0.5,0.8,0.5,1.6
				c0,0.7-0.2,1.1-0.5,1.5c-0.3,0.4-0.7,0.6-1.2,0.6c-0.5,0-0.9-0.2-1.2-0.5S117.4,53,117.4,52.3z"/>
		</g>
	</g>
</g>
<g>
	<path class="st4" d="M30.8,48.2c0-0.6,0.1-1.2,0.2-1.7c0.1-0.5,0.3-0.9,0.6-1.3c0.2-0.4,0.5-0.7,0.9-1c0.3-0.3,0.7-0.5,1.1-0.7
		v-0.1c-0.3-0.2-0.6-0.3-0.8-0.6c-0.3-0.2-0.5-0.5-0.8-0.8c-0.2-0.3-0.4-0.7-0.6-1.2c-0.1-0.5-0.2-1-0.2-1.6v-1.5
		c0-0.7,0.1-1.3,0.3-1.8c0.2-0.5,0.4-1,0.7-1.3c0.3-0.4,0.6-0.7,1-0.9c0.4-0.2,0.7-0.4,1.1-0.5c0.4-0.1,0.8-0.2,1.2-0.3
		c0.4,0,0.7-0.1,1.1-0.1c0.3,0,0.7,0,1.1,0.1c0.4,0,0.8,0.1,1.2,0.3c0.4,0.1,0.8,0.3,1.1,0.5c0.4,0.2,0.7,0.5,1,0.9
		c0.3,0.4,0.5,0.8,0.7,1.3c0.2,0.5,0.3,1.1,0.3,1.8v1.5c0,0.6-0.1,1.1-0.2,1.6c-0.1,0.5-0.3,0.9-0.6,1.2c-0.2,0.3-0.5,0.6-0.8,0.8
		c-0.3,0.2-0.6,0.4-0.8,0.6v0.1c0.4,0.2,0.8,0.4,1.1,0.7c0.3,0.3,0.6,0.6,0.9,1c0.2,0.4,0.4,0.8,0.6,1.3c0.1,0.5,0.2,1.1,0.2,1.7
		v1.3c0,0.7-0.1,1.4-0.2,2c-0.2,0.6-0.4,1-0.6,1.5c-0.3,0.4-0.6,0.7-0.9,1c-0.4,0.3-0.7,0.5-1.2,0.6c-0.4,0.2-0.8,0.3-1.3,0.3
		C37.2,55,36.8,55,36.3,55c-0.4,0-0.9,0-1.3-0.1c-0.4-0.1-0.9-0.2-1.3-0.3c-0.4-0.2-0.8-0.4-1.2-0.6c-0.4-0.3-0.7-0.6-0.9-1
		c-0.3-0.4-0.5-0.9-0.6-1.4c-0.2-0.6-0.2-1.2-0.2-2V48.2z M34.1,49.8c0,0.6,0.1,1,0.2,1.4c0.1,0.4,0.3,0.6,0.5,0.8
		c0.2,0.2,0.4,0.3,0.7,0.4c0.3,0.1,0.5,0.1,0.8,0.1c0.3,0,0.6,0,0.8-0.1c0.3-0.1,0.5-0.2,0.7-0.4c0.2-0.2,0.4-0.5,0.5-0.8
		c0.1-0.4,0.2-0.8,0.2-1.4v-2.4c0-0.5,0-0.9-0.1-1.2c-0.1-0.3-0.2-0.6-0.4-0.8s-0.4-0.4-0.7-0.5c-0.3-0.1-0.5-0.1-0.8-0.1h-0.3
		c-0.6,0-1.1,0.2-1.5,0.6c-0.4,0.4-0.5,1.1-0.5,2V49.8z M36.5,42.4c0.2,0,0.5,0,0.7-0.1c0.2-0.1,0.4-0.2,0.6-0.4
		c0.2-0.2,0.3-0.5,0.4-0.8c0.1-0.3,0.1-0.7,0.1-1.3V38c0-0.9-0.2-1.6-0.5-2.1c-0.3-0.5-0.8-0.7-1.5-0.7s-1.2,0.2-1.5,0.7
		c-0.3,0.5-0.4,1.2-0.4,2.1v1.8c0,0.5,0,0.9,0.1,1.2c0.1,0.3,0.2,0.6,0.4,0.8c0.2,0.2,0.3,0.3,0.6,0.4c0.2,0.1,0.5,0.1,0.7,0.1H36.5
		z"/>
	<path class="st4" d="M44.6,50.3c0-0.8,0.1-1.6,0.3-2.5h2.6v1.8c0,1,0.2,1.8,0.5,2.2c0.3,0.5,0.8,0.7,1.5,0.7c0.7,0,1.2-0.3,1.5-0.8
		c0.3-0.5,0.4-1.2,0.4-2.2v-4.2c0-0.5,0-1-0.1-1.3c-0.1-0.3-0.2-0.6-0.4-0.8c-0.2-0.2-0.4-0.3-0.6-0.4c-0.2-0.1-0.5-0.1-0.7-0.1
		c-0.5,0-0.9,0.1-1.2,0.4c-0.3,0.3-0.6,0.6-0.8,1H45V33h9.4v2.9h-6.6v5.4c0.4-0.4,0.8-0.7,1.3-1c0.5-0.2,1.1-0.3,1.7-0.3
		c1.4,0,2.3,0.5,3,1.4c0.6,0.9,0.9,2.3,0.9,4v3.7c0,1.1-0.1,2.1-0.4,2.8c-0.3,0.8-0.7,1.4-1.1,1.8c-0.5,0.5-1,0.8-1.7,1
		c-0.6,0.2-1.3,0.3-1.9,0.3c-0.8,0-1.5-0.1-2.1-0.3c-0.6-0.2-1.1-0.5-1.6-0.9c-0.4-0.4-0.7-0.9-1-1.5S44.6,51.1,44.6,50.3z"/>
	<path class="st4" d="M62.2,44.8c-0.5,0-1-0.1-1.5-0.2c-0.5-0.1-0.9-0.4-1.3-0.8c-0.4-0.4-0.7-1-1-1.7c-0.2-0.7-0.4-1.7-0.4-2.9
		v-1.4c0-0.8,0.1-1.4,0.2-2c0.1-0.6,0.3-1,0.5-1.4c0.2-0.4,0.4-0.7,0.7-1c0.3-0.2,0.6-0.4,0.9-0.6c0.3-0.1,0.6-0.2,0.9-0.3
		s0.6-0.1,0.9-0.1c0.3,0,0.6,0,0.9,0.1c0.3,0,0.6,0.1,0.9,0.3c0.3,0.1,0.6,0.3,0.9,0.6c0.3,0.2,0.5,0.6,0.7,1
		c0.2,0.4,0.4,0.9,0.5,1.5c0.1,0.6,0.2,1.2,0.2,2v1.4c0,1.2-0.1,2.1-0.4,2.8c-0.3,0.7-0.6,1.3-1,1.7c-0.4,0.4-0.8,0.7-1.3,0.8
		C63.1,44.7,62.7,44.8,62.2,44.8z M62.3,42.8c0.5,0,0.9-0.2,1.1-0.7c0.2-0.5,0.3-1.2,0.3-2.2v-2.5c0-1-0.1-1.7-0.3-2.2
		c-0.2-0.5-0.6-0.7-1.1-0.7c-0.6,0-1,0.2-1.2,0.7c-0.2,0.5-0.3,1.2-0.3,2.2v2.5c0,1,0.1,1.7,0.3,2.2C61.3,42.5,61.7,42.8,62.3,42.8z
		 M70,32.8h2.3l-5.9,22h-2.3L70,32.8z M70,48.1c0-1.2,0.1-2.1,0.4-2.8c0.3-0.7,0.6-1.2,1-1.6c0.4-0.4,0.8-0.6,1.3-0.8
		c0.5-0.1,1-0.2,1.4-0.2c0.3,0,0.6,0,0.9,0.1c0.3,0,0.6,0.1,0.9,0.3c0.3,0.1,0.6,0.3,0.9,0.6c0.3,0.2,0.5,0.6,0.7,1
		c0.2,0.4,0.4,0.9,0.5,1.5c0.1,0.6,0.2,1.2,0.2,2v1.4c0,0.8-0.1,1.5-0.2,2c-0.1,0.6-0.3,1.1-0.5,1.5c-0.2,0.4-0.4,0.7-0.7,1
		c-0.3,0.3-0.6,0.5-0.9,0.6c-0.3,0.2-0.6,0.3-0.9,0.3C74.7,55,74.4,55,74.1,55c-0.3,0-0.6,0-1-0.1c-0.3-0.1-0.6-0.2-0.9-0.3
		c-0.3-0.1-0.6-0.3-0.9-0.6c-0.3-0.3-0.5-0.6-0.7-1c-0.2-0.4-0.4-0.9-0.5-1.5c-0.1-0.6-0.2-1.3-0.2-2.1V48.1z M72.6,50.1
		c0,1,0.1,1.7,0.3,2.2c0.2,0.5,0.6,0.7,1.2,0.7c0.5,0,0.9-0.2,1.1-0.7c0.2-0.5,0.3-1.2,0.3-2.2v-2.5c0-1-0.1-1.7-0.3-2.2
		c-0.2-0.5-0.6-0.7-1.1-0.7c-0.6,0-1,0.2-1.2,0.7c-0.2,0.5-0.3,1.2-0.3,2.2V50.1z"/>
</g>
<g>
	<path class="st4" d="M145.3,49.4c0-0.4,0-0.8,0.1-1.2c0.1-0.4,0.1-0.9,0.2-1.4h2.6V48c0,0.7,0.1,1.3,0.2,1.7
		c0.1,0.5,0.3,0.8,0.5,1.1c0.2,0.3,0.4,0.5,0.7,0.6c0.3,0.1,0.6,0.2,0.9,0.2c0.3,0,0.6,0,0.9-0.1c0.3-0.1,0.5-0.2,0.7-0.4
		s0.3-0.5,0.4-0.8c0.1-0.3,0.1-0.7,0.1-1.2v-2.4c0-0.5,0-0.9-0.1-1.2s-0.2-0.7-0.4-0.9s-0.4-0.4-0.7-0.6c-0.3-0.1-0.6-0.2-1.1-0.2
		h-1.4v-2.4h1.4c0.3,0,0.5,0,0.8-0.1c0.2-0.1,0.4-0.2,0.6-0.4c0.2-0.2,0.3-0.5,0.4-0.8c0.1-0.3,0.2-0.7,0.2-1.1v-2.3
		c0-0.8-0.2-1.4-0.5-1.8c-0.3-0.4-0.8-0.6-1.4-0.6c-0.7,0-1.2,0.3-1.6,0.9c-0.4,0.6-0.6,1.5-0.6,2.7v1.2h-2.6
		c-0.1-0.4-0.2-0.8-0.2-1.3c-0.1-0.4-0.1-0.9-0.1-1.3c0-0.6,0.1-1.1,0.3-1.7c0.2-0.5,0.5-1,0.9-1.5c0.4-0.4,0.9-0.8,1.6-1.1
		c0.6-0.3,1.4-0.4,2.2-0.4c0.9,0,1.7,0.1,2.4,0.3c0.7,0.2,1.2,0.5,1.6,0.9c0.4,0.4,0.7,0.9,0.9,1.5c0.2,0.6,0.3,1.3,0.3,2v1.3
		c0,0.6-0.1,1.2-0.2,1.7c-0.2,0.5-0.4,0.9-0.6,1.3c-0.3,0.4-0.5,0.7-0.9,0.9c-0.3,0.3-0.6,0.5-1,0.6v0.1c0.4,0.1,0.8,0.3,1.2,0.6
		c0.4,0.2,0.7,0.5,1,0.9c0.3,0.4,0.5,0.8,0.6,1.3c0.2,0.5,0.2,1.1,0.2,1.9v1.4c0,1-0.1,1.9-0.4,2.5c-0.3,0.7-0.7,1.2-1.2,1.7
		c-0.5,0.4-1.1,0.7-1.7,0.9c-0.7,0.2-1.4,0.3-2.1,0.3c-1.7,0-2.9-0.4-3.8-1.2C145.7,52.1,145.3,50.9,145.3,49.4z"/>
	<path class="st4" d="M159.1,51.4h2.5V36.5l-2.7,2.4l-1.4-1.7l5-5.2h2.5l0,0l0,0v19.3h2.5v2.5h-8.3V51.4z"/>
	<path class="st4" d="M173.9,43.9c-0.5,0-1-0.1-1.5-0.2c-0.5-0.1-0.9-0.4-1.3-0.8c-0.4-0.4-0.7-1-1-1.7c-0.2-0.7-0.4-1.7-0.4-2.9
		v-1.4c0-0.8,0.1-1.4,0.2-2c0.1-0.6,0.3-1,0.5-1.4c0.2-0.4,0.4-0.7,0.7-1c0.3-0.2,0.6-0.4,0.9-0.6c0.3-0.1,0.6-0.2,0.9-0.3
		c0.3-0.1,0.6-0.1,0.9-0.1c0.3,0,0.6,0,0.9,0.1c0.3,0,0.6,0.1,0.9,0.3c0.3,0.1,0.6,0.3,0.9,0.6c0.3,0.2,0.5,0.6,0.7,1
		c0.2,0.4,0.4,0.9,0.5,1.5c0.1,0.6,0.2,1.2,0.2,2v1.4c0,1.2-0.1,2.1-0.4,2.8c-0.3,0.7-0.6,1.3-1,1.7c-0.4,0.4-0.8,0.7-1.3,0.8
		C174.8,43.8,174.3,43.9,173.9,43.9z M173.9,41.8c0.5,0,0.9-0.2,1.1-0.7c0.2-0.5,0.3-1.2,0.3-2.2v-2.5c0-1-0.1-1.7-0.3-2.2
		c-0.2-0.5-0.6-0.7-1.1-0.7c-0.6,0-1,0.2-1.2,0.7c-0.2,0.5-0.3,1.2-0.3,2.2V39c0,1,0.1,1.7,0.3,2.2C173,41.6,173.4,41.8,173.9,41.8z
		 M181.6,31.8h2.3l-5.9,22h-2.3L181.6,31.8z M181.7,47.2c0-1.2,0.1-2.1,0.4-2.8c0.3-0.7,0.6-1.2,1-1.6c0.4-0.4,0.8-0.6,1.3-0.8
		c0.5-0.1,1-0.2,1.4-0.2c0.3,0,0.6,0,0.9,0.1c0.3,0,0.6,0.1,0.9,0.3c0.3,0.1,0.6,0.3,0.9,0.6c0.3,0.2,0.5,0.6,0.7,1
		c0.2,0.4,0.4,0.9,0.5,1.5c0.1,0.6,0.2,1.2,0.2,2v1.4c0,0.8-0.1,1.5-0.2,2c-0.1,0.6-0.3,1.1-0.5,1.5c-0.2,0.4-0.4,0.7-0.7,1
		c-0.3,0.3-0.6,0.5-0.9,0.6s-0.6,0.3-0.9,0.3c-0.3,0.1-0.6,0.1-0.9,0.1c-0.3,0-0.6,0-1-0.1c-0.3-0.1-0.6-0.2-0.9-0.3
		c-0.3-0.1-0.6-0.3-0.9-0.6c-0.3-0.3-0.5-0.6-0.7-1c-0.2-0.4-0.4-0.9-0.5-1.5c-0.1-0.6-0.2-1.3-0.2-2.1V47.2z M184.3,49.2
		c0,1,0.1,1.7,0.3,2.2c0.2,0.5,0.6,0.7,1.2,0.7c0.5,0,0.9-0.2,1.1-0.7c0.2-0.5,0.3-1.2,0.3-2.2v-2.5c0-1-0.1-1.7-0.3-2.2
		c-0.2-0.5-0.6-0.7-1.1-0.7c-0.6,0-1,0.2-1.2,0.7c-0.2,0.5-0.3,1.2-0.3,2.2V49.2z"/>
</g>
</svg>
