<?xml version="1.0" encoding="utf-8"?>
<!-- Generator: Adobe Illustrator 21.0.2, SVG Export Plug-In . SVG Version: 6.00 Build 0)  -->
<svg version="1.1" id="Talker" xmlns="http://www.w3.org/2000/svg" xmlns:xlink="http://www.w3.org/1999/xlink" x="0px" y="0px"
	 viewBox="0 0 300 300" style="enable-background:new 0 0 300 300;" xml:space="preserve">
<style type="text/css">
	.st0{fill:#FFFFFF;}
</style>
<path class="st0" d="M95.5,290C48.4,290,10,251.6,10,204.5S48.4,119,95.5,119s85.5,38.4,85.5,85.5S142.6,290,95.5,290z M95.5,130
	C54.4,130,21,163.4,21,204.5S54.4,279,95.5,279s74.5-33.4,74.5-74.5S136.6,130,95.5,130z"/>
<path class="st0" d="M182.2,157.4c-0.8,0-1.6-0.2-2.3-0.5c-1.9-0.9-3.1-2.7-3.2-4.8c-0.5-15.5-5.8-30.5-8-36.2
	c-31.5-8.7-51.8-29.1-51.8-52.3c0-15.5,9-30,25.3-40.7C158,12.6,178.6,7,200.5,7s42.5,5.6,58.2,15.8C275,33.5,284,48,284,63.5
	c0,27.7-29.5,51.1-69.4,55.7c-4.9,17.6-26.4,34.9-29,37C184.6,157,183.4,157.4,182.2,157.4z M173.2,105.6l0.8,0.2
	c1.7,0.4,3.2,1.5,3.9,3.2c0.3,0.7,6.3,14.5,8.9,31.6c7.4-7.2,16.4-17.6,17.8-26.1v-0.3c0-2.9,2.2-5.3,5.1-5.5
	c36.2-2.9,63.5-22.3,63.5-45.1c0-11.7-7.2-22.9-20.4-31.5c-13.8-9.1-32.4-14-52.1-14s-38.3,5-52.1,14C135.2,40.6,128,51.8,128,63.5
	C128,81.7,146.1,98.6,173.2,105.6z M209.9,114.9L209.9,114.9L209.9,114.9z"/>
<path class="st0" d="M95.5,265c-26.9,0-50.9-18.1-58.2-44c-0.5-1.7-0.1-3.4,0.9-4.8c1-1.4,2.7-2.2,4.4-2.2h105.8
	c1.7,0,3.3,0.8,4.4,2.2c1,1.4,1.4,3.2,0.9,4.8C146.4,246.9,122.4,265,95.5,265z M50.4,225c7.9,17.4,25.5,29,45.1,29
	s37.1-11.6,45.1-29H50.4z"/>
</svg>
