<?xml version="1.0" standalone="no"?>
<!DOCTYPE svg PUBLIC "-//W3C//DTD SVG 20010904//EN"
 "http://www.w3.org/TR/2001/REC-SVG-20010904/DTD/svg10.dtd">
<svg version="1.0" xmlns="http://www.w3.org/2000/svg"
 width="16.000000pt" height="16.000000pt" viewBox="0 0 16.000000 16.000000"
 preserveAspectRatio="xMidYMid meet">
<metadata>
Created by potrace 1.11, written by Peter Selinger 2001-2013
</metadata>
<g transform="translate(0.000000,16.000000) scale(0.003200,-0.003200)"
fill="#000000" stroke="none">
<path d="M1818 3865 c-62 -15 -112 -55 -155 -122 l-35 -55 -31 29 c-74 69
-194 88 -272 44 -69 -39 -92 -68 -188 -234 -34 -59 -44 -64 -67 -34 -34 44
-119 78 -183 76 -56 -2 -131 -32 -170 -67 -10 -9 -103 -152 -207 -318 -104
-166 -213 -332 -242 -368 -99 -124 -153 -230 -194 -381 -22 -82 -27 -291 -10
-380 71 -359 316 -632 670 -744 391 -124 786 12 1006 347 27 41 51 79 53 85 1
5 61 -49 132 -120 198 -198 561 -492 588 -477 29 16 243 181 338 260 57 48
162 146 233 217 72 72 131 126 133 120 10 -28 79 -133 120 -181 265 -311 701
-389 1086 -196 239 120 408 312 487 555 40 121 45 155 44 309 -1 148 -20 248
-71 364 -38 87 -106 192 -168 260 -16 17 -69 100 -230 361 -82 132 -168 259
-191 281 -97 96 -249 97 -344 4 -17 -17 -32 -30 -34 -30 -2 0 -30 43 -62 95
-31 53 -75 116 -96 140 -83 95 -229 106 -329 26 -21 -17 -40 -31 -42 -31 -3 0
-19 22 -37 49 -55 86 -124 126 -219 126 -147 0 -246 -108 -236 -258 l3 -53
-44 -12 c-56 -15 -125 -78 -147 -132 -26 -68 -17 -156 27 -235 32 -58 34 -66
18 -71 -147 -48 -218 -217 -147 -354 9 -17 15 -35 13 -39 -2 -5 -29 -29 -61
-55 -62 -50 -66 -50 -107 -6 -3 3 -19 16 -36 28 l-31 21 25 51 c63 127 6 286
-118 336 -22 9 -40 20 -40 25 0 5 11 26 24 47 76 118 55 268 -47 346 -19 14
-36 26 -39 26 -3 0 -22 7 -41 15 -31 13 -35 18 -28 36 9 27 -3 112 -24 155
-18 38 -76 91 -121 110 -47 20 -102 23 -156 9z m127 -177 c44 -52 43 -53 -160
-376 -49 -78 -99 -157 -110 -176 -98 -163 -261 -416 -267 -416 -15 0 -138 85
-138 96 0 5 14 32 32 60 18 27 37 58 44 69 12 21 400 645 441 708 49 77 111
90 158 35z m1242 17 c12 -8 39 -45 61 -82 49 -85 115 -192 312 -506 194 -309
188 -300 189 -312 1 -9 -99 -78 -131 -90 -10 -4 -26 12 -50 52 -27 45 -434
695 -478 763 -24 37 -46 86 -44 98 1 6 2 19 3 27 0 9 13 27 27 40 31 29 78 33
111 10z m-1728 -90 c28 -14 41 -39 41 -83 0 -13 -32 -76 -72 -140 -213 -349
-261 -428 -266 -442 -3 -8 -13 -25 -22 -37 l-17 -22 -44 30 c-67 44 -127 37
-147 -19 -12 -36 7 -85 40 -103 13 -6 55 -33 93 -58 39 -25 78 -50 88 -56 9
-5 112 -71 228 -144 l211 -135 -7 -35 c-3 -20 -9 -72 -12 -117 -5 -68 -2 -93
20 -165 15 -46 43 -110 63 -143 l37 -59 -38 -73 c-192 -369 -595 -498 -980
-314 -300 143 -475 422 -467 745 4 188 64 339 196 499 23 27 73 100 111 162
39 63 114 185 167 272 54 87 110 172 125 190 36 41 79 54 122 36 36 -15 65
-71 53 -102 -4 -10 -58 -99 -120 -198 -63 -98 -119 -188 -125 -199 -7 -11 -28
-44 -48 -75 -88 -134 -90 -160 -19 -232 163 -165 176 -400 33 -587 -36 -48
-42 -84 -18 -118 21 -29 69 -39 99 -19 56 36 141 199 161 307 8 40 8 173 0
209 -20 97 -73 210 -131 279 l-26 31 54 85 c29 48 60 98 69 113 22 37 345 550
402 639 61 95 87 109 146 78z m2155 1 c25 -10 46 -33 76 -83 43 -71 139 -225
189 -303 15 -25 65 -102 109 -173 48 -75 74 -123 62 -117 -32 17 -71 11 -121
-20 l-48 -29 -107 172 c-59 95 -121 195 -139 222 -152 240 -165 277 -108 322
33 27 42 28 87 9z m568 -235 c14 -14 104 -154 201 -311 97 -157 191 -301 208
-320 281 -314 262 -809 -42 -1096 -227 -213 -539 -291 -798 -200 -178 63 -324
193 -410 364 l-32 63 32 56 c18 30 44 94 60 142 28 88 28 93 16 290 l-2 34
323 207 c178 114 328 213 333 221 5 8 9 24 9 37 0 12 3 22 8 22 4 -1 33 -44
65 -97 l58 -96 -25 -26 c-40 -42 -95 -141 -117 -211 -27 -85 -33 -216 -13
-300 31 -138 137 -300 196 -300 32 0 78 45 78 77 0 20 -47 102 -71 123 -3 3
-15 28 -26 55 -72 170 -36 347 98 486 27 28 50 58 50 67 2 31 -3 57 -12 60 -5
2 -9 8 -9 12 0 5 -75 127 -166 272 -92 145 -171 272 -176 284 -7 15 -5 31 6
58 27 65 111 80 158 27z m-2051 0 c53 -54 49 -65 -159 -399 -129 -209 -207
-324 -250 -369 l-61 -66 -60 39 -60 39 230 370 c126 204 241 380 255 393 34
30 70 28 105 -7z m864 -3 c12 -13 111 -167 220 -343 109 -176 211 -339 227
-363 16 -23 26 -46 23 -51 -12 -20 -127 -83 -134 -74 -3 5 -22 29 -42 54 -30
36 -109 158 -186 285 -6 10 -63 102 -126 204 -63 102 -117 196 -120 209 -7 28
4 59 33 89 27 28 73 24 105 -10z m-734 -456 c24 -31 21 -78 -9 -119 -20 -27
-22 -28 -126 -28 -102 0 -105 0 -92 20 7 11 30 49 51 84 57 95 122 111 176 43z
m613 10 c17 -16 33 -38 83 -122 l21 -35 -103 0 c-100 0 -104 1 -118 25 -23 39
-28 82 -14 110 25 50 88 60 131 22z"/>
</g>
</svg>
