<?xml version="1.0" encoding="utf-8"?>
<!-- Generator: Adobe Illustrator 21.0.2, SVG Export Plug-In . SVG Version: 6.00 Build 0)  -->
<svg version="1.1" id="Layer_1" xmlns="http://www.w3.org/2000/svg" xmlns:xlink="http://www.w3.org/1999/xlink" x="0px" y="0px"
	 viewBox="0 0 214 90.9" style="enable-background:new 0 0 214 90.9;" xml:space="preserve">
<style type="text/css">
	.st0{fill:#F91515;}
	.st1{fill:#FFFFFF;}
</style>
<rect x="152" y="17" class="st0" width="47" height="55"/>
<g id="Layer_3">
	<path class="st1" d="M68,77H11V12h57V77z M16,72h47V17H16V72z"/>
	<g>
		<path class="st1" d="M35.2,59.5h2.5V44.7L35,47.1l-1.4-1.7l4.9-5.1H41l0,0l0,0v19.2h2.5V62h-8.3V59.5z"/>
	</g>
	<g>
		<path class="st1" d="M25,24.2h-2.2v-1.3h6.5v1.3H27v9.5h-2V24.2z"/>
		<path class="st1" d="M30.5,25h2v6.6c0,0.4,0.1,0.7,0.2,0.8c0.2,0.2,0.4,0.2,0.7,0.2c0.2,0,0.4,0,0.6-0.1s0.4-0.2,0.5-0.4V25h2v8.7
			h-1.6l-0.2-0.9l0,0c-0.2,0.2-0.3,0.4-0.5,0.5s-0.4,0.2-0.6,0.3c-0.2,0.1-0.4,0.1-0.6,0.2c-0.2,0-0.4,0.1-0.6,0.1
			c-0.7,0-1.2-0.2-1.5-0.5c-0.4-0.4-0.5-0.9-0.5-1.6L30.5,25L30.5,25z"/>
		<path class="st1" d="M41.4,33.8c-0.5,0-0.9-0.1-1.3-0.2s-0.7-0.4-0.9-0.7c-0.3-0.3-0.4-0.7-0.6-1.1c-0.1-0.5-0.2-1-0.2-1.7v-1.7
			c0-0.6,0.1-1,0.2-1.4c0.1-0.4,0.2-0.7,0.4-1s0.4-0.5,0.6-0.6s0.5-0.3,0.7-0.4s0.5-0.1,0.7-0.2c0.2,0,0.5,0,0.6,0
			c0.4,0,0.7,0,1.1,0.1c0.3,0.1,0.6,0.2,0.9,0.4c0.3,0.2,0.5,0.5,0.6,0.8s0.2,0.8,0.2,1.3c0,0.2,0,0.4,0,0.5s0,0.4-0.1,0.5
			c0,0.2,0,0.3-0.1,0.5c0,0.2-0.1,0.3-0.1,0.5h-3.7v0.9c0,0.4,0,0.7,0.1,1c0,0.3,0.1,0.5,0.2,0.6c0.1,0.2,0.2,0.3,0.4,0.3
			c0.2,0.1,0.3,0.1,0.6,0.1c0.1,0,0.2,0,0.4-0.1c0.1,0,0.2-0.1,0.3-0.2s0.2-0.2,0.2-0.4c0.1-0.2,0.1-0.3,0.1-0.6v-0.3h1.7V31
			c0,0.8-0.3,1.4-0.8,1.8C43.1,33.7,42.4,33.8,41.4,33.8z M42.6,28.6c0,0,0-0.1,0-0.2s0-0.2,0-0.2c0-0.1,0-0.2,0-0.3
			c0-0.1,0-0.2,0-0.2c0-0.6-0.1-1-0.3-1.2c-0.2-0.3-0.4-0.4-0.8-0.4c-0.2,0-0.3,0-0.5,0.1c-0.1,0.1-0.2,0.2-0.3,0.3
			c-0.1,0.2-0.2,0.4-0.2,0.6c0,0.3-0.1,0.6-0.1,0.9v0.5h2.2C42.6,28.5,42.6,28.6,42.6,28.6z"/>
		<path class="st1" d="M45.8,31.9c0-0.2,0-0.4,0.1-0.6c0-0.2,0.1-0.3,0.1-0.4h1.4c0,0.3,0,0.6,0.1,0.8c0,0.2,0.1,0.4,0.2,0.5
			c0.1,0.1,0.2,0.2,0.4,0.3s0.3,0.1,0.6,0.1s0.5-0.1,0.7-0.2c0.1-0.1,0.2-0.3,0.2-0.5c0-0.1,0-0.2,0-0.3s-0.1-0.2-0.1-0.3
			c-0.1-0.1-0.1-0.2-0.2-0.3s-0.2-0.2-0.3-0.3l-1.5-1.4c-0.2-0.2-0.4-0.4-0.6-0.6c-0.2-0.2-0.3-0.4-0.5-0.6
			c-0.1-0.2-0.2-0.4-0.3-0.7S46,26.9,46,26.7c0-0.3,0.1-0.6,0.2-0.9s0.3-0.5,0.6-0.6s0.5-0.3,0.9-0.4c0.3-0.1,0.7-0.1,1-0.1
			c0.4,0,0.8,0,1.1,0.1s0.6,0.2,0.8,0.3s0.4,0.3,0.5,0.6c0.1,0.2,0.2,0.5,0.2,0.8c0,0.2,0,0.4-0.1,0.6c0,0.2-0.1,0.4-0.1,0.5h-1.4
			c0-0.3,0-0.5,0-0.8s-0.1-0.4-0.1-0.5c-0.1-0.1-0.2-0.2-0.3-0.3s-0.3-0.1-0.5-0.1s-0.3,0-0.4,0.1c-0.1,0-0.2,0.1-0.3,0.2
			s-0.1,0.2-0.2,0.2c0,0.1,0,0.2,0,0.3c0,0.2,0.1,0.4,0.2,0.6c0.1,0.2,0.3,0.4,0.5,0.6l1.6,1.5c0.1,0.1,0.3,0.3,0.4,0.4
			c0.2,0.2,0.3,0.3,0.4,0.5c0.1,0.2,0.3,0.4,0.4,0.6c0.1,0.2,0.1,0.5,0.1,0.7c0,0.3-0.1,0.6-0.2,0.8c-0.1,0.3-0.3,0.5-0.5,0.6
			s-0.5,0.3-0.9,0.4s-0.8,0.1-1.2,0.1s-0.7,0-1-0.1s-0.6-0.2-0.9-0.3c-0.2-0.1-0.4-0.3-0.6-0.6S45.8,32.3,45.8,31.9z"/>
		<path class="st1" d="M52.6,32.6c0-0.4,0.1-0.8,0.3-1s0.5-0.3,0.9-0.3s0.7,0.1,0.9,0.3s0.3,0.5,0.3,0.9s-0.1,0.7-0.3,0.9
			s-0.5,0.3-0.9,0.3s-0.7-0.1-0.9-0.3S52.6,33,52.6,32.6z"/>
	</g>
	<path class="st1" d="M136,77H79V12h57V77z M84,72h47V17H84V72z"/>
	<g>
		<path class="st1" d="M102.5,60.1l4.8-9.2c0.4-0.8,0.8-1.6,1.1-2.2c0.3-0.6,0.5-1.2,0.6-1.6s0.3-0.9,0.3-1.2s0.1-0.7,0.1-0.9
			c0-0.4,0-0.8-0.1-1.1s-0.2-0.5-0.4-0.7s-0.4-0.3-0.6-0.4s-0.5-0.1-0.8-0.1c-0.7,0-1.3,0.3-1.6,0.9s-0.5,1.5-0.5,2.6v1.2h-2.5
			c-0.1-0.5-0.2-0.9-0.2-1.3s-0.1-0.8-0.1-1.3c0-0.6,0.1-1.1,0.3-1.6s0.5-1,0.9-1.5s0.9-0.8,1.6-1.1s1.4-0.4,2.3-0.4
			s1.8,0.1,2.4,0.3s1.2,0.5,1.7,1s0.7,0.9,0.9,1.5s0.3,1.3,0.3,2.1c0,0.4,0,0.9-0.1,1.3s-0.2,0.9-0.4,1.4s-0.4,1-0.7,1.6
			c-0.3,0.6-0.7,1.2-1.1,2l-4.3,8.1h6.3V62h-10.1v-1.9H102.5z"/>
	</g>
	<g>
		<path class="st1" d="M92.8,22.9h2l0.9,6.6l0.1,1.5H96l0.2-1.7l1.5-6.4h1.7l1.4,6.4L101,31h0.2l0.1-1.5l0.8-6.6h2l-1.9,10.8h-2.1
			L99,28.5l-0.4-2.3h-0.2l-0.3,2.3l-1.2,5.2h-2.1L92.8,22.9z"/>
		<path class="st1" d="M108.1,33.8c-0.5,0-0.9-0.1-1.3-0.2s-0.7-0.4-0.9-0.7c-0.3-0.3-0.4-0.7-0.6-1.1c-0.1-0.5-0.2-1-0.2-1.7v-1.7
			c0-0.6,0.1-1,0.2-1.4s0.2-0.7,0.4-1c0.2-0.3,0.4-0.5,0.6-0.6s0.5-0.3,0.7-0.4s0.5-0.1,0.7-0.2c0.2,0,0.5,0,0.6,0
			c0.4,0,0.7,0,1.1,0.1c0.3,0.1,0.6,0.2,0.9,0.4c0.3,0.2,0.5,0.5,0.6,0.8s0.2,0.8,0.2,1.3c0,0.2,0,0.4,0,0.5s0,0.4-0.1,0.5
			c0,0.2,0,0.3-0.1,0.5c0,0.2-0.1,0.3-0.1,0.5h-3.7v0.9c0,0.4,0,0.7,0.1,1c0,0.3,0.1,0.5,0.2,0.6c0.1,0.2,0.2,0.3,0.4,0.3
			c0.2,0.1,0.3,0.1,0.6,0.1c0.1,0,0.2,0,0.4-0.1c0.1,0,0.2-0.1,0.3-0.2s0.2-0.2,0.2-0.4c0.1-0.2,0.1-0.3,0.1-0.6v-0.3h1.7V31
			c0,0.8-0.3,1.4-0.8,1.8C109.8,33.7,109.1,33.8,108.1,33.8z M109.3,28.6c0,0,0-0.1,0-0.2s0-0.2,0-0.2c0-0.1,0-0.2,0-0.3
			c0-0.1,0-0.2,0-0.2c0-0.6-0.1-1-0.3-1.2c-0.2-0.3-0.4-0.4-0.8-0.4c-0.2,0-0.3,0-0.5,0.1c-0.1,0.1-0.2,0.2-0.3,0.3
			c-0.1,0.2-0.2,0.4-0.2,0.6c0,0.3-0.1,0.6-0.1,0.9v0.5h2.2C109.3,28.5,109.3,28.6,109.3,28.6z"/>
		<path class="st1" d="M115,33.9c-0.1,0-0.3,0-0.4,0c-0.2,0-0.3-0.1-0.5-0.1s-0.4-0.2-0.5-0.3c-0.2-0.1-0.3-0.3-0.5-0.6
			c-0.1-0.2-0.2-0.5-0.3-0.9c-0.1-0.3-0.1-0.8-0.1-1.3v-2.8c0-0.5,0-0.9,0.1-1.2c0.1-0.3,0.2-0.6,0.4-0.8c0.1-0.2,0.3-0.4,0.5-0.5
			s0.4-0.2,0.5-0.3c0.2-0.1,0.4-0.1,0.5-0.1s0.3,0,0.4,0c0.2,0,0.4,0,0.6,0.1c0.2,0,0.3,0.1,0.5,0.2c0.1,0.1,0.3,0.1,0.4,0.2
			s0.2,0.2,0.3,0.3l0,0l-0.1-1.1v-2.3h2v11.5h-1.6l-0.2-0.8c-0.1,0.1-0.2,0.2-0.3,0.3s-0.3,0.2-0.4,0.3c-0.2,0.1-0.3,0.2-0.5,0.2
			C115.5,33.8,115.3,33.9,115,33.9z M115.7,32.6c0.1,0,0.3,0,0.4-0.1c0.1,0,0.2-0.1,0.3-0.1c0.1-0.1,0.2-0.1,0.2-0.2
			s0.1-0.2,0.2-0.2v-5.3c-0.1-0.2-0.2-0.3-0.4-0.5c-0.2-0.1-0.4-0.2-0.6-0.2s-0.3,0-0.4,0.1s-0.2,0.1-0.3,0.2
			c-0.1,0.1-0.2,0.3-0.2,0.5c-0.1,0.2-0.1,0.5-0.1,0.8V31c0,0.3,0,0.6,0.1,0.8c0.1,0.2,0.1,0.4,0.2,0.5s0.2,0.2,0.3,0.2
			C115.4,32.6,115.6,32.6,115.7,32.6z"/>
		<path class="st1" d="M120.6,32.6c0-0.4,0.1-0.8,0.3-1s0.5-0.3,0.9-0.3s0.7,0.1,0.9,0.3c0.2,0.2,0.3,0.5,0.3,0.9s-0.1,0.7-0.3,0.9
			c-0.2,0.2-0.5,0.3-0.9,0.3s-0.7-0.1-0.9-0.3S120.6,33,120.6,32.6z"/>
	</g>
	<path class="st1" d="M204,77h-57V12h57V77z M152,72h47V17h-47V72z"/>
	<g>
		<path class="st1" d="M170.5,57.6c0-0.4,0-0.8,0.1-1.2s0.1-0.9,0.2-1.4h2.6v1.1c0,0.7,0.1,1.2,0.2,1.7c0.1,0.5,0.3,0.8,0.5,1.1
			s0.4,0.5,0.7,0.6s0.6,0.2,0.9,0.2c0.3,0,0.6,0,0.9-0.1c0.3-0.1,0.5-0.2,0.6-0.4s0.3-0.5,0.4-0.8c0.1-0.3,0.1-0.7,0.1-1.2v-2.4
			c0-0.5,0-0.9-0.1-1.2c-0.1-0.4-0.2-0.7-0.4-0.9s-0.4-0.4-0.7-0.6s-0.6-0.2-1.1-0.2H174v-2.3h1.4c0.3,0,0.5,0,0.8-0.1
			c0.2-0.1,0.4-0.2,0.6-0.4c0.2-0.2,0.3-0.5,0.4-0.8s0.2-0.7,0.2-1.1v-2.3c0-0.8-0.2-1.4-0.5-1.8s-0.8-0.6-1.4-0.6
			c-0.7,0-1.2,0.3-1.6,0.9c-0.4,0.6-0.6,1.5-0.6,2.6v1.2h-2.5c-0.1-0.4-0.2-0.8-0.2-1.3s-0.1-0.9-0.1-1.3c0-0.6,0.1-1.1,0.3-1.6
			s0.5-1,0.9-1.5c0.4-0.4,0.9-0.8,1.6-1.1c0.6-0.3,1.4-0.4,2.2-0.4c0.9,0,1.7,0.1,2.4,0.3s1.2,0.5,1.6,0.9c0.4,0.4,0.7,0.9,0.9,1.5
			s0.3,1.3,0.3,2V46c0,0.6-0.1,1.2-0.2,1.6c-0.2,0.5-0.4,0.9-0.6,1.3c-0.3,0.4-0.5,0.7-0.9,0.9c-0.3,0.2-0.6,0.5-1,0.6v0.1
			c0.4,0.1,0.8,0.3,1.2,0.6c0.4,0.2,0.7,0.5,0.9,0.9c0.3,0.4,0.5,0.8,0.6,1.3s0.2,1.1,0.2,1.8v1.4c0,1-0.1,1.8-0.4,2.5
			s-0.7,1.2-1.2,1.7c-0.5,0.4-1.1,0.7-1.7,0.9c-0.7,0.2-1.3,0.3-2.1,0.3c-1.7,0-2.9-0.4-3.8-1.2S170.5,59,170.5,57.6z"/>
	</g>
	<g>
		<path class="st1" d="M158,24.2h-2.2v-1.3h6.5v1.3H160v9.5h-2V24.2z"/>
		<path class="st1" d="M163.5,22.2h2v2.1l-0.1,1.5c0.2-0.2,0.3-0.3,0.5-0.4s0.4-0.2,0.5-0.3c0.2-0.1,0.4-0.1,0.6-0.1
			c0.2,0,0.4,0,0.6,0c0.7,0,1.2,0.2,1.5,0.5c0.4,0.4,0.5,0.9,0.5,1.6v6.7h-2v-6.6c0-0.4-0.1-0.7-0.2-0.8c-0.2-0.2-0.4-0.2-0.7-0.2
			c-0.2,0-0.4,0.1-0.6,0.2c-0.2,0.1-0.4,0.3-0.5,0.4v7.1h-2V22.2H163.5z"/>
		<path class="st1" d="M171.8,25h2v6.6c0,0.4,0.1,0.7,0.2,0.8c0.2,0.2,0.4,0.2,0.7,0.2c0.2,0,0.4,0,0.6-0.1s0.4-0.2,0.5-0.4V25h2
			v8.7h-1.6l-0.2-0.9l0,0c-0.2,0.2-0.3,0.4-0.5,0.5s-0.4,0.2-0.6,0.3c-0.2,0.1-0.4,0.1-0.6,0.2s-0.4,0.1-0.6,0.1
			c-0.7,0-1.2-0.2-1.5-0.5s-0.5-0.9-0.5-1.6V25H171.8z"/>
		<path class="st1" d="M180,25h1.5l0.2,0.9c0.2-0.3,0.5-0.6,0.8-0.7s0.6-0.2,0.9-0.2c0.6,0,1,0.1,1.3,0.4s0.4,0.7,0.4,1.3
			c0,0.1,0,0.2,0,0.3c0,0.1,0,0.2-0.1,0.3c0,0.1-0.1,0.2-0.1,0.3c0,0.1-0.1,0.2-0.1,0.3h-1.4V27c0-0.2,0-0.3,0-0.4s-0.1-0.2-0.1-0.3
			c0-0.1-0.1-0.1-0.2-0.1c-0.1,0-0.1,0-0.2,0c-0.2,0-0.3,0-0.4,0.1c-0.1,0.1-0.3,0.2-0.3,0.3v7.2h-2V25H180z"/>
		<path class="st1" d="M185.9,31.9c0-0.2,0-0.4,0.1-0.6c0-0.2,0.1-0.3,0.1-0.4h1.4c0,0.3,0,0.6,0.1,0.8c0,0.2,0.1,0.4,0.2,0.5
			s0.2,0.2,0.4,0.3s0.3,0.1,0.6,0.1s0.5-0.1,0.7-0.2c0.1-0.1,0.2-0.3,0.2-0.5c0-0.1,0-0.2,0-0.3c0-0.1-0.1-0.2-0.1-0.3
			c-0.1-0.1-0.1-0.2-0.2-0.3s-0.2-0.2-0.3-0.3l-1.5-1.4c-0.2-0.2-0.4-0.4-0.6-0.6c-0.2-0.2-0.3-0.4-0.5-0.6
			c-0.1-0.2-0.2-0.4-0.3-0.7c-0.1-0.2-0.1-0.5-0.1-0.7c0-0.3,0.1-0.6,0.2-0.9c0.1-0.2,0.3-0.5,0.6-0.6s0.5-0.3,0.9-0.4
			s0.7-0.1,1-0.1c0.4,0,0.8,0,1.1,0.1s0.6,0.2,0.8,0.3c0.2,0.2,0.4,0.3,0.5,0.6c0.1,0.2,0.2,0.5,0.2,0.8c0,0.2,0,0.4-0.1,0.6
			c0,0.2-0.1,0.4-0.1,0.5h-1.4c0-0.3,0-0.5,0-0.8c0-0.2-0.1-0.4-0.1-0.5c-0.1-0.1-0.2-0.2-0.3-0.3c-0.1-0.1-0.3-0.1-0.5-0.1
			s-0.3,0-0.4,0.1c-0.1,0-0.2,0.1-0.3,0.2s-0.1,0.2-0.2,0.2s0,0.2,0,0.3c0,0.2,0.1,0.4,0.2,0.6c0.1,0.2,0.3,0.4,0.5,0.6l1.6,1.5
			c0.1,0.1,0.3,0.3,0.4,0.4c0.2,0.2,0.3,0.3,0.4,0.5c0.1,0.2,0.3,0.4,0.4,0.6c0.1,0.2,0.1,0.5,0.1,0.7c0,0.3-0.1,0.6-0.2,0.8
			c-0.1,0.3-0.3,0.5-0.5,0.6s-0.5,0.3-0.9,0.4s-0.8,0.1-1.2,0.1s-0.7,0-1-0.1s-0.6-0.2-0.9-0.3c-0.2-0.1-0.4-0.3-0.6-0.6
			C186,32.6,185.9,32.3,185.9,31.9z"/>
		<path class="st1" d="M192.7,32.6c0-0.4,0.1-0.8,0.3-1s0.5-0.3,0.9-0.3s0.7,0.1,0.9,0.3c0.2,0.2,0.3,0.5,0.3,0.9s-0.1,0.7-0.3,0.9
			s-0.5,0.3-0.9,0.3s-0.7-0.1-0.9-0.3S192.7,33,192.7,32.6z"/>
	</g>
</g>
</svg>
