<?xml version="1.0" encoding="utf-8"?>
<!-- Generator: Adobe Illustrator 21.0.2, SVG Export Plug-In . SVG Version: 6.00 Build 0)  -->
<svg version="1.1" id="Layer_3" xmlns="http://www.w3.org/2000/svg" xmlns:xlink="http://www.w3.org/1999/xlink" x="0px" y="0px"
	 viewBox="0 0 214 90.9" style="enable-background:new 0 0 214 90.9;" xml:space="preserve">
<style type="text/css">
	.st0{display:none;fill:#9D5BC2;stroke:#020202;stroke-miterlimit:10;}
	.st1{fill:#488ECC;stroke:#FFFFFF;stroke-width:0.25;stroke-miterlimit:10;}
	.st2{fill:#FFCC05;}
	.st3{fill:none;stroke:#FFFFFF;stroke-width:3;stroke-miterlimit:10;}
	.st4{fill:#FFFFFF;}
</style>
<g>
	<g id="Layer_1_2_">
		<g>
			<path class="st0" d="M51.9,3c0,0-0.6,0-0.9,0"/>
			<path class="st1" d="M83.1,16.4l-0.5-0.2L51,44.8V3C28.2,3.7,9.9,22.3,9.9,45.3c0,23.3,19,42.3,42.3,42.3s42.3-19,42.3-42.3
				C94.5,34.1,90.2,24,83.1,16.4z"/>
		</g>
		<path class="st2" d="M201.9,66.2l-35.2-23l-37.8,20.7l-0.2,0.2c7.3,13.3,21.4,22.2,37.6,22.1c15.1-0.1,30.2-7.1,37.6-19
			L201.9,66.2z"/>
		<circle class="st3" cx="52.2" cy="45.5" r="42.5"/>
		<circle class="st3" cx="166.5" cy="45.5" r="42.5"/>
		<g>
			<path class="st4" d="M98.6,39.4h2.7l1.5,8l0.4,3.2h0.1l0.4-3.2l1.5-8h2.6l-3.4,14.9H102L98.6,39.4z"/>
			<path class="st4" d="M108.5,51.4c0-0.3,0-0.7,0.1-1s0.1-0.6,0.2-0.8h1.9c0,0.6,0,1,0.1,1.4s0.1,0.7,0.3,0.9
				c0.1,0.2,0.3,0.4,0.5,0.5s0.5,0.1,0.8,0.1c0.4,0,0.7-0.1,0.9-0.4c0.2-0.2,0.3-0.5,0.3-0.8c0-0.2,0-0.3-0.1-0.5
				c0-0.2-0.1-0.3-0.2-0.5s-0.2-0.3-0.3-0.5c-0.1-0.2-0.3-0.3-0.4-0.5l-2-2.3c-0.3-0.3-0.5-0.7-0.8-1s-0.5-0.7-0.7-1.1
				c-0.2-0.4-0.3-0.8-0.5-1.2s-0.2-0.8-0.2-1.3c0-0.6,0.1-1.1,0.3-1.5s0.5-0.8,0.8-1.1s0.8-0.5,1.2-0.7c0.4-0.2,0.9-0.2,1.4-0.2
				c0.6,0,1.1,0.1,1.4,0.2s0.8,0.3,1.2,0.6c0.3,0.3,0.6,0.6,0.7,1c0.2,0.4,0.3,0.9,0.3,1.4c0,0.4,0,0.7-0.1,1s-0.1,0.6-0.2,0.9h-1.9
				c0-0.5,0-1-0.1-1.3s-0.1-0.7-0.2-0.9c-0.1-0.3-0.2-0.4-0.4-0.6s-0.4-0.2-0.7-0.2c-0.2,0-0.5,0-0.6,0.1c-0.2,0.1-0.3,0.2-0.4,0.3
				s-0.2,0.3-0.2,0.4s-0.1,0.3-0.1,0.5c0,0.4,0.1,0.7,0.3,1c0.2,0.3,0.4,0.6,0.7,1l2.2,2.6c0.2,0.2,0.4,0.4,0.6,0.7s0.4,0.6,0.6,1
				c0.2,0.3,0.4,0.7,0.5,1.1c0.1,0.4,0.2,0.8,0.2,1.3s-0.1,1-0.3,1.4c-0.2,0.4-0.4,0.8-0.8,1.1c-0.3,0.3-0.8,0.6-1.2,0.7
				c-0.5,0.2-1,0.3-1.6,0.3c-0.5,0-1-0.1-1.4-0.2c-0.5-0.1-0.9-0.3-1.2-0.6c-0.3-0.3-0.6-0.6-0.8-1.1
				C108.6,52.6,108.5,52,108.5,51.4z"/>
			<path class="st4" d="M117.4,52.3c0-0.7,0.2-1.3,0.5-1.6s0.7-0.5,1.2-0.5c0.6,0,0.9,0.2,1.2,0.6c0.3,0.4,0.5,0.8,0.5,1.6
				c0,0.7-0.2,1.1-0.5,1.5s-0.7,0.6-1.2,0.6s-0.9-0.2-1.2-0.5S117.4,53,117.4,52.3z"/>
		</g>
	</g>
</g>
</svg>
