<?xml version="1.0" encoding="utf-8"?>
<!-- Generator: Adobe Illustrator 21.0.2, SVG Export Plug-In . SVG Version: 6.00 Build 0)  -->
<svg version="1.1" id="Layer_2" xmlns="http://www.w3.org/2000/svg" xmlns:xlink="http://www.w3.org/1999/xlink" x="0px" y="0px"
	 viewBox="0 0 214 90.9" style="enable-background:new 0 0 214 90.9;" xml:space="preserve">
<style type="text/css">
	.st0{fill:#FFCC05;}
	.st1{fill:#FFFFFF;}
</style>
<path class="st0" d="M68.3,33.3c-0.2,0-0.4,0-0.6,0.1c-0.2-0.1-0.5-0.1-0.7-0.1h-2.6c1.9-1,3.3-3,3.3-5.3c0-3.3-2.7-6-6-6
	c-3.3,0-6,2.7-6,6c0,2.3,1.3,4.3,3.3,5.3h-2.6c-0.2,0-0.5,0-0.7,0.1c-0.2-0.1-0.4-0.1-0.6-0.1c-1.1,0-2,0.9-2,2V48c0,1.1,0.9,2,2,2
	c0.2,0,0.5,0,0.7-0.1V50c0,0.3,0,0.6,0.1,0.8c0,0.2-0.1,0.3-0.1,0.5v15.3c0,1.1,0.9,2,2,2H59c1.1,0,2-0.9,2-2V56c0.2,0,0.4,0,0.7,0
	c0.2,0,0.4,0,0.7,0v10.7c0,1.1,0.9,2,2,2h1.3c1.1,0,2-0.9,2-2V51.3c0-0.2,0-0.3-0.1-0.5c0-0.3,0.1-0.6,0.1-0.8v-0.1
	c0.2,0.1,0.4,0.1,0.7,0.1c1.1,0,2-0.9,2-2V35.3C70.3,34.2,69.4,33.3,68.3,33.3z"/>
<path class="st0" d="M87,33.3c-0.2,0-0.4,0-0.6,0.1c-0.2-0.1-0.5-0.1-0.7-0.1h-2.6c1.9-1,3.3-3,3.3-5.3c0-3.3-2.7-6-6-6
	c-3.3,0-6,2.7-6,6c0,2.3,1.3,4.3,3.3,5.3H75c-0.2,0-0.5,0-0.7,0.1c-0.2-0.1-0.4-0.1-0.6-0.1c-1.1,0-2,0.9-2,2V48c0,1.1,0.9,2,2,2
	c0.2,0,0.5,0,0.7-0.1V50c0,0.3,0,0.6,0.1,0.8c0,0.2-0.1,0.3-0.1,0.5v15.3c0,1.1,0.9,2,2,2h1.3c1.1,0,2-0.9,2-2V56c0.2,0,0.4,0,0.7,0
	c0.2,0,0.4,0,0.7,0v10.7c0,1.1,0.9,2,2,2h1.3c1.1,0,2-0.9,2-2V51.3c0-0.2,0-0.3-0.1-0.5c0-0.3,0.1-0.6,0.1-0.8v-0.1
	C86.5,50,86.8,50,87,50c1.1,0,2-0.9,2-2V35.3C89,34.2,88.1,33.3,87,33.3z"/>
<path class="st0" d="M105.7,33.3c-0.2,0-0.4,0-0.6,0.1c-0.2-0.1-0.5-0.1-0.7-0.1h-2.6c1.9-1,3.3-3,3.3-5.3c0-3.3-2.7-6-6-6
	c-3.3,0-6,2.7-6,6c0,2.3,1.3,4.3,3.3,5.3h-2.6c-0.2,0-0.5,0-0.7,0.1c-0.2-0.1-0.4-0.1-0.6-0.1c-1.1,0-2,0.9-2,2V48c0,1.1,0.9,2,2,2
	c0.2,0,0.5,0,0.7-0.1V50c0,0.3,0,0.6,0.1,0.8c0,0.2-0.1,0.3-0.1,0.5v15.3c0,1.1,0.9,2,2,2h1.3c1.1,0,2-0.9,2-2V56c0.2,0,0.4,0,0.7,0
	s0.4,0,0.7,0v10.7c0,1.1,0.9,2,2,2h1.3c1.1,0,2-0.9,2-2V51.3c0-0.2,0-0.3-0.1-0.5c0-0.3,0.1-0.6,0.1-0.8v-0.1
	c0.2,0.1,0.4,0.1,0.7,0.1c1.1,0,2-0.9,2-2V35.3C107.7,34.2,106.8,33.3,105.7,33.3z"/>
<path class="st0" d="M124.3,33.3c-0.2,0-0.4,0-0.6,0.1c-0.2-0.1-0.5-0.1-0.7-0.1h-2.6c1.9-1,3.3-3,3.3-5.3c0-3.3-2.7-6-6-6
	c-3.3,0-6,2.7-6,6c0,2.3,1.3,4.3,3.3,5.3h-2.6c-0.2,0-0.5,0-0.7,0.1c-0.2-0.1-0.4-0.1-0.6-0.1c-1.1,0-2,0.9-2,2V48c0,1.1,0.9,2,2,2
	c0.2,0,0.5,0,0.7-0.1V50c0,0.3,0,0.6,0.1,0.8c0,0.2-0.1,0.3-0.1,0.5v15.3c0,1.1,0.9,2,2,2h1.3c1.1,0,2-0.9,2-2V56c0.2,0,0.4,0,0.7,0
	c0.2,0,0.4,0,0.7,0v10.7c0,1.1,0.9,2,2,2h1.3c1.1,0,2-0.9,2-2V51.3c0-0.2,0-0.3-0.1-0.5c0-0.3,0.1-0.6,0.1-0.8v-0.1
	c0.2,0.1,0.4,0.1,0.7,0.1c1.1,0,2-0.9,2-2V35.3C126.3,34.2,125.4,33.3,124.3,33.3z"/>
<path class="st0" d="M143,33.3c-0.2,0-0.4,0-0.6,0.1c-0.2-0.1-0.5-0.1-0.7-0.1h-2.6c1.9-1,3.3-3,3.3-5.3c0-3.3-2.7-6-6-6
	c-3.3,0-6,2.7-6,6c0,2.3,1.3,4.3,3.3,5.3H131c-0.2,0-0.5,0-0.7,0.1c-0.2-0.1-0.4-0.1-0.6-0.1c-1.1,0-2,0.9-2,2V48c0,1.1,0.9,2,2,2
	c0.2,0,0.5,0,0.7-0.1V50c0,0.3,0,0.6,0.1,0.8c0,0.2-0.1,0.3-0.1,0.5v15.3c0,1.1,0.9,2,2,2h1.3c1.1,0,2-0.9,2-2V56c0.2,0,0.4,0,0.7,0
	c0.2,0,0.4,0,0.7,0v10.7c0,1.1,0.9,2,2,2h1.3c1.1,0,2-0.9,2-2V51.3c0-0.2,0-0.3-0.1-0.5c0-0.3,0.1-0.6,0.1-0.8v-0.1
	c0.2,0.1,0.4,0.1,0.7,0.1c1.1,0,2-0.9,2-2V35.3C145,34.2,144.1,33.3,143,33.3z"/>
<path class="st0" d="M162,33.3c-0.2,0-0.4,0-0.6,0.1c-0.2-0.1-0.5-0.1-0.7-0.1h-2.6c1.9-1,3.3-3,3.3-5.3c0-3.3-2.7-6-6-6
	c-3.3,0-6,2.7-6,6c0,2.3,1.3,4.3,3.3,5.3H150c-0.2,0-0.5,0-0.7,0.1c-0.2-0.1-0.4-0.1-0.6-0.1c-1.1,0-2,0.9-2,2V48c0,1.1,0.9,2,2,2
	c0.2,0,0.5,0,0.7-0.1V50c0,0.3,0,0.6,0.1,0.8c0,0.2-0.1,0.3-0.1,0.5v15.3c0,1.1,0.9,2,2,2h1.3c1.1,0,2-0.9,2-2V56c0.2,0,0.4,0,0.7,0
	c0.2,0,0.4,0,0.7,0v10.7c0,1.1,0.9,2,2,2h1.3c1.1,0,2-0.9,2-2V51.3c0-0.2,0-0.3-0.1-0.5c0-0.3,0.1-0.6,0.1-0.8v-0.1
	c0.2,0.1,0.4,0.1,0.7,0.1c1.1,0,2-0.9,2-2V35.3C164,34.2,163.1,33.3,162,33.3z"/>
<path class="st0" d="M181,33.3c-0.2,0-0.4,0-0.6,0.1c-0.2-0.1-0.5-0.1-0.7-0.1h-2.6c1.9-1,3.3-3,3.3-5.3c0-3.3-2.7-6-6-6
	c-3.3,0-6,2.7-6,6c0,2.3,1.3,4.3,3.3,5.3H169c-0.2,0-0.5,0-0.7,0.1c-0.2-0.1-0.4-0.1-0.6-0.1c-1.1,0-2,0.9-2,2V48c0,1.1,0.9,2,2,2
	c0.2,0,0.5,0,0.7-0.1V50c0,0.3,0,0.6,0.1,0.8c0,0.2-0.1,0.3-0.1,0.5v15.3c0,1.1,0.9,2,2,2h1.3c1.1,0,2-0.9,2-2V56c0.2,0,0.4,0,0.7,0
	c0.2,0,0.4,0,0.7,0v10.7c0,1.1,0.9,2,2,2h1.3c1.1,0,2-0.9,2-2V51.3c0-0.2,0-0.3-0.1-0.5c0-0.3,0.1-0.6,0.1-0.8v-0.1
	c0.2,0.1,0.4,0.1,0.7,0.1c1.1,0,2-0.9,2-2V35.3C183,34.2,182.1,33.3,181,33.3z"/>
<path class="st0" d="M200,33.3c-0.2,0-0.4,0-0.6,0.1c-0.2-0.1-0.5-0.1-0.7-0.1h-2.6c1.9-1,3.3-3,3.3-5.3c0-3.3-2.7-6-6-6
	c-3.3,0-6,2.7-6,6c0,2.3,1.3,4.3,3.3,5.3H188c-0.2,0-0.5,0-0.7,0.1c-0.2-0.1-0.4-0.1-0.6-0.1c-1.1,0-2,0.9-2,2V48c0,1.1,0.9,2,2,2
	c0.2,0,0.5,0,0.7-0.1V50c0,0.3,0,0.6,0.1,0.8c0,0.2-0.1,0.3-0.1,0.5v15.3c0,1.1,0.9,2,2,2h1.3c1.1,0,2-0.9,2-2V56c0.2,0,0.4,0,0.7,0
	c0.2,0,0.4,0,0.7,0v10.7c0,1.1,0.9,2,2,2h1.3c1.1,0,2-0.9,2-2V51.3c0-0.2,0-0.3-0.1-0.5c0-0.3,0.1-0.6,0.1-0.8v-0.1
	c0.2,0.1,0.4,0.1,0.7,0.1c1.1,0,2-0.9,2-2V35.3C202,34.2,201.1,33.3,200,33.3z"/>
<path class="st1" d="M45,41H34c-1.1,0-2-0.9-2-2v0c0-1.1,0.9-2,2-2h11c1.1,0,2,0.9,2,2v0C47,40.1,46.1,41,45,41z"/>
<path class="st1" d="M45,49H34c-1.1,0-2-0.9-2-2v0c0-1.1,0.9-2,2-2h11c1.1,0,2,0.9,2,2v0C47,48.1,46.1,49,45,49z"/>
<path id="armtop" class="st1" d="M23,33L23,33c-1.1,0-2,0.9-2,2v6c0,1.1,0.9,2,2,2h0c1.1,0,2-0.9,2-2v-6C25,33.9,24.1,33,23,33z"/>
<path id="armbottom" class="st1" d="M23,40L23,40c-1.1,0-2,0.9-2,2v6c0,1.1,0.9,2,2,2h0c1.1,0,2-0.9,2-2v-6C25,40.9,24.1,40,23,40z"
	/>
<path class="st1" d="M23,34.5c0-0.4,0.1-0.8,0.3-1.2c-0.2,0-0.4,0-0.6,0.1c-0.2-0.1-0.5-0.1-0.7-0.1h-2.6c1.9-1,3.3-3,3.3-5.3
	c0-3.3-2.7-6-6-6c-3.3,0-6,2.7-6,6c0,2.3,1.3,4.3,3.3,5.3h-2.6c-0.2,0-0.5,0-0.7,0.1c-0.2-0.1-0.4-0.1-0.6-0.1c-1.1,0-2,0.9-2,2V48
	c0,1.1,0.9,2,2,2c0.2,0,0.5,0,0.7-0.1V50c0,0.3,0,0.6,0.1,0.8c0,0.2-0.1,0.3-0.1,0.5v15.3c0,1.1,0.9,2,2,2H14c1.1,0,2-0.9,2-2V56
	c0.2,0,0.4,0,0.7,0s0.4,0,0.7,0v10.7c0,1.1,0.9,2,2,2h1.3c1.1,0,2-0.9,2-2V51.3c0-0.2,0-0.3-0.1-0.5c0-0.3,0.1-0.6,0.1-0.8v-0.1
	c0.1,0,0.2,0.1,0.3,0.1V34.5z"/>
</svg>
