<?xml version="1.0" encoding="utf-8"?>
<!-- Generator: Adobe Illustrator 21.0.2, SVG Export Plug-In . SVG Version: 6.00 Build 0)  -->
<svg version="1.1" id="Layer_1" xmlns="http://www.w3.org/2000/svg" xmlns:xlink="http://www.w3.org/1999/xlink" x="0px" y="0px"
	 viewBox="0 0 214 90.9" style="enable-background:new 0 0 214 90.9;" xml:space="preserve">
<style type="text/css">
	.st0{display:none;}
	.st1{display:inline;fill:#E6E6E6;}
	.st2{display:inline;fill:#FFCC05;}
	.st3{display:inline;}
	.st4{fill:#9D5BC2;}
	.st5{font-family:'FjallaOne-Regular';}
	.st6{font-size:23px;}
	.st7{display:inline;fill:#4EAFE9;}
	.st8{display:inline;fill:#9D5BC2;}
	.st9{display:inline;fill:none;stroke:#000000;stroke-width:5;stroke-miterlimit:10;}
	.st10{font-size:26px;}
	.st11{font-size:13px;}
	.st12{display:inline;fill:none;stroke:#EC1313;stroke-width:5;stroke-miterlimit:10;}
	.st13{display:inline;fill:#EC1313;}
</style>
<g id="Layer_1_1_" class="st0">
	<circle class="st1" cx="45.3" cy="45.5" r="41.2"/>
	<circle class="st1" cx="167.7" cy="45.5" r="40"/>
	<path class="st2" d="M130.5,21.2L168,46.1l40.6-21.9c3.4,6.4,5.4,13.7,5.4,21.4c0,25-20.3,45.3-45.3,45.3s-45.3-20.3-45.3-45.3
		C123.4,36.6,126,28.2,130.5,21.2"/>
	<g class="st3">
		<path class="st4" d="M45.3,0c-0.4,0-0.9,0-1.3,0"/>
		<path class="st4" d="M78.4,14.3l-0.5-0.2L44,44.8V0C19.6,0.7,0,20.7,0,45.3c0,25,20.3,45.3,45.3,45.3s45.3-20.3,45.3-45.3
			C90.6,33.3,86,22.5,78.4,14.3z"/>
	</g>
	<g class="st3">
		<path d="M26,48.8c0-0.6,0.1-1.1,0.2-1.5s0.3-0.8,0.5-1.1s0.5-0.6,0.8-0.8s0.6-0.4,0.9-0.6v-0.1c-0.2-0.1-0.5-0.3-0.7-0.5
			c-0.3-0.2-0.5-0.5-0.7-0.7c-0.2-0.3-0.4-0.6-0.5-1s-0.2-0.9-0.2-1.4v-1.3c0-0.6,0.1-1.2,0.2-1.6s0.3-0.8,0.6-1.2
			c0.2-0.3,0.5-0.6,0.8-0.8s0.7-0.4,1-0.5s0.7-0.2,1-0.2s0.7-0.1,0.9-0.1c0.3,0,0.6,0,0.9,0.1s0.7,0.1,1,0.2s0.7,0.3,1,0.5
			s0.6,0.5,0.8,0.8s0.4,0.7,0.6,1.2s0.2,1,0.2,1.6V41c0,0.5-0.1,1-0.2,1.4c-0.1,0.4-0.3,0.7-0.5,1s-0.4,0.5-0.7,0.7
			s-0.5,0.4-0.7,0.5v0.1c0.3,0.2,0.7,0.4,0.9,0.6c0.3,0.2,0.5,0.5,0.8,0.8c0.2,0.3,0.4,0.7,0.5,1.1s0.2,0.9,0.2,1.5V50
			c0,0.7-0.1,1.2-0.2,1.7s-0.2,1-0.4,1.3c-0.2,0.4-0.5,0.7-0.8,0.9s-0.7,0.4-1,0.6c-0.4,0.1-0.7,0.2-1.1,0.3
			c-0.4,0.1-0.8,0.1-1.2,0.1s-0.8,0-1.2-0.1c-0.4-0.1-0.8-0.2-1.1-0.3c-0.4-0.1-0.7-0.3-1-0.6S27,53.4,26.7,53
			c-0.2-0.4-0.4-0.8-0.5-1.3S26,50.7,26,50V48.8z M28.9,50.3c0,0.5,0.1,0.9,0.2,1.2s0.3,0.6,0.4,0.7c0.2,0.2,0.4,0.3,0.6,0.4
			s0.5,0.1,0.7,0.1s0.5,0,0.7-0.1s0.4-0.2,0.6-0.4s0.3-0.4,0.4-0.7s0.2-0.7,0.2-1.2v-2.1c0-0.4,0-0.8-0.1-1.1s-0.2-0.5-0.4-0.7
			s-0.3-0.3-0.6-0.4c-0.2-0.1-0.5-0.1-0.7-0.1h-0.3c-0.5,0-1,0.2-1.3,0.6c-0.3,0.4-0.5,1-0.5,1.8L28.9,50.3L28.9,50.3z M31,43.7
			c0.2,0,0.4,0,0.6-0.1s0.4-0.2,0.5-0.4s0.3-0.4,0.3-0.7s0.1-0.7,0.1-1.1v-1.6c0-0.8-0.1-1.4-0.4-1.8c-0.3-0.4-0.7-0.6-1.3-0.6
			s-1,0.2-1.3,0.6c-0.3,0.4-0.4,1-0.4,1.8v1.6c0,0.4,0,0.8,0.1,1.1s0.2,0.5,0.3,0.7c0.1,0.2,0.3,0.3,0.5,0.4
			c0.2,0.1,0.4,0.1,0.6,0.1H31z"/>
		<path d="M38.1,50.7c0-0.7,0.1-1.4,0.3-2.2h2.3v1.6c0,0.9,0.1,1.6,0.4,2c0.3,0.4,0.7,0.6,1.3,0.6s1-0.2,1.3-0.7s0.4-1.1,0.4-1.9
			v-3.7c0-0.5,0-0.9-0.1-1.2s-0.2-0.5-0.3-0.7s-0.3-0.3-0.5-0.3c-0.2-0.1-0.4-0.1-0.6-0.1c-0.4,0-0.8,0.1-1.1,0.4
			c-0.3,0.2-0.5,0.5-0.7,0.8h-2.1v-9.8h8.2v2.6h-5.8v4.7c0.3-0.4,0.7-0.6,1.2-0.8s1-0.3,1.5-0.3c1.2,0,2.1,0.4,2.6,1.2
			s0.8,2,0.8,3.5v3.3c0,1-0.1,1.8-0.4,2.5s-0.6,1.2-1,1.6c-0.4,0.4-0.9,0.7-1.5,0.9S43.2,55,42.6,55c-0.7,0-1.3-0.1-1.9-0.3
			s-1-0.5-1.4-0.8c-0.4-0.4-0.7-0.8-0.8-1.3C38.2,51.9,38.1,51.4,38.1,50.7z"/>
		<path d="M53.6,45.8c-0.4,0-0.9-0.1-1.3-0.2c-0.4-0.1-0.8-0.4-1.2-0.7c-0.3-0.3-0.6-0.8-0.8-1.5C50.1,42.8,50,42,50,41v-1.2
			c0-0.7,0.1-1.3,0.2-1.8c0.1-0.5,0.2-0.9,0.4-1.3c0.2-0.4,0.4-0.6,0.6-0.9s0.5-0.4,0.8-0.5s0.5-0.2,0.8-0.2s0.6-0.1,0.8-0.1
			c0.3,0,0.5,0,0.8,0.1c0.3,0,0.5,0.1,0.8,0.2c0.3,0.1,0.5,0.3,0.8,0.5c0.2,0.2,0.4,0.5,0.6,0.8s0.3,0.8,0.4,1.3s0.2,1.1,0.2,1.8V41
			c0,1-0.1,1.9-0.3,2.5S56.4,44.6,56,45s-0.7,0.6-1.2,0.7C54.4,45.8,54,45.8,53.6,45.8z M53.7,44.1c0.5,0,0.8-0.2,1-0.6
			c0.2-0.4,0.3-1,0.3-1.9v-2.2c0-0.9-0.1-1.5-0.3-1.9s-0.5-0.6-1-0.6s-0.8,0.2-1,0.6c-0.2,0.4-0.3,1.1-0.3,1.9v2.2
			c0,0.9,0.1,1.5,0.3,1.9C52.8,43.8,53.2,44.1,53.7,44.1z M60.5,35.3h2l-5.2,19.4h-2L60.5,35.3z M60.5,48.7c0-1,0.1-1.8,0.3-2.5
			c0.2-0.6,0.5-1.1,0.9-1.4c0.4-0.3,0.7-0.6,1.2-0.7c0.4-0.1,0.8-0.2,1.2-0.2c0.3,0,0.5,0,0.8,0.1c0.3,0,0.5,0.1,0.8,0.2
			c0.3,0.1,0.5,0.3,0.8,0.5c0.2,0.2,0.4,0.5,0.6,0.8s0.3,0.8,0.4,1.3s0.2,1.1,0.2,1.8v1.2c0,0.7-0.1,1.3-0.2,1.8s-0.3,0.9-0.4,1.3
			c-0.2,0.4-0.4,0.7-0.6,0.9s-0.5,0.4-0.8,0.5s-0.5,0.2-0.8,0.3s-0.5,0.1-0.8,0.1c-0.3,0-0.6,0-0.9-0.1c-0.3,0-0.6-0.1-0.8-0.3
			c-0.3-0.1-0.5-0.3-0.8-0.5c-0.2-0.2-0.4-0.5-0.6-0.9s-0.3-0.8-0.4-1.3c-0.1-0.5-0.2-1.1-0.2-1.8v-1.1
			C60.4,48.7,60.5,48.7,60.5,48.7z M62.8,50.5c0,0.9,0.1,1.5,0.3,1.9s0.5,0.6,1,0.6s0.8-0.2,1-0.6s0.3-1,0.3-1.9v-2.2
			c0-0.9-0.1-1.5-0.3-1.9s-0.5-0.6-1-0.6s-0.8,0.2-1,0.6c-0.2,0.4-0.3,1.1-0.3,1.9V50.5z"/>
	</g>
	<g class="st3">
		<path d="M148.1,50.8c0-0.3,0-0.7,0.1-1.1c0-0.4,0.1-0.8,0.2-1.2h2.3v1c0,0.6,0.1,1.1,0.2,1.5c0.1,0.4,0.2,0.7,0.4,1
			c0.2,0.2,0.4,0.4,0.6,0.5c0.2,0.1,0.5,0.2,0.8,0.2s0.5,0,0.8-0.1s0.4-0.2,0.6-0.4s0.3-0.4,0.4-0.7s0.1-0.6,0.1-1v-2.1
			c0-0.4,0-0.8-0.1-1.1s-0.2-0.6-0.3-0.8c-0.2-0.2-0.4-0.4-0.6-0.5s-0.6-0.2-0.9-0.2h-1.2v-2.1h1.2c0.2,0,0.5,0,0.7-0.1
			s0.4-0.2,0.6-0.4c0.2-0.2,0.3-0.4,0.4-0.7s0.1-0.6,0.1-1v-2c0-0.7-0.1-1.2-0.4-1.6c-0.3-0.3-0.7-0.5-1.2-0.5
			c-0.6,0-1.1,0.3-1.4,0.8c-0.3,0.5-0.5,1.3-0.5,2.3v1.1h-2.2c-0.1-0.4-0.2-0.7-0.2-1.1c-0.1-0.4-0.1-0.8-0.1-1.2
			c0-0.5,0.1-1,0.3-1.5s0.5-0.9,0.8-1.3s0.8-0.7,1.4-0.9c0.6-0.2,1.2-0.4,2-0.4s1.5,0.1,2.1,0.3s1.1,0.5,1.4,0.8
			c0.4,0.4,0.6,0.8,0.8,1.3s0.3,1.1,0.3,1.8v1.2c0,0.5-0.1,1-0.2,1.5c-0.1,0.4-0.3,0.8-0.5,1.1s-0.5,0.6-0.8,0.8s-0.6,0.4-0.9,0.5
			v0.1c0.4,0.1,0.7,0.3,1,0.5s0.6,0.5,0.8,0.8s0.4,0.7,0.6,1.2s0.2,1,0.2,1.6V50c0,0.9-0.1,1.6-0.4,2.2c-0.3,0.6-0.6,1.1-1,1.5
			s-0.9,0.6-1.5,0.8s-1.2,0.2-1.8,0.2c-1.5,0-2.6-0.4-3.4-1.1C148.5,53.1,148.1,52.1,148.1,50.8z"/>
		<path d="M160.3,52.5h2.2V39.4l-2.4,2.1l-1.3-1.5l4.4-4.5h2.2l0,0l0,0v17h2.2v2.2h-7.3L160.3,52.5L160.3,52.5z"/>
		<path d="M173.3,45.8c-0.4,0-0.9-0.1-1.3-0.2c-0.4-0.1-0.8-0.4-1.2-0.7c-0.3-0.3-0.6-0.8-0.8-1.5c-0.2-0.6-0.3-1.5-0.3-2.5v-1.2
			c0-0.7,0.1-1.3,0.2-1.8c0.1-0.5,0.3-0.9,0.4-1.3c0.2-0.4,0.4-0.6,0.6-0.9s0.5-0.4,0.8-0.5s0.5-0.2,0.8-0.2s0.6-0.1,0.8-0.1
			c0.3,0,0.5,0,0.8,0.1c0.3,0,0.5,0.1,0.8,0.2s0.5,0.3,0.8,0.5c0.2,0.2,0.4,0.5,0.6,0.8s0.3,0.8,0.4,1.3s0.2,1.1,0.2,1.8V41
			c0,1-0.1,1.9-0.3,2.5s-0.5,1.1-0.9,1.5s-0.7,0.6-1.2,0.7C174.1,45.8,173.7,45.8,173.3,45.8z M173.3,44.1c0.5,0,0.8-0.2,1-0.6
			c0.2-0.4,0.3-1,0.3-1.9v-2.2c0-0.9-0.1-1.5-0.3-1.9s-0.5-0.6-1-0.6s-0.8,0.2-1,0.6c-0.2,0.4-0.3,1.1-0.3,1.9v2.2
			c0,0.9,0.1,1.5,0.3,1.9C172.5,43.8,172.9,44.1,173.3,44.1z M180.1,35.3h2L177,54.7h-2L180.1,35.3z M180.2,48.7
			c0-1,0.1-1.8,0.3-2.5c0.2-0.6,0.5-1.1,0.9-1.4c0.4-0.3,0.7-0.6,1.2-0.7c0.4-0.1,0.8-0.2,1.2-0.2c0.3,0,0.5,0,0.8,0.1
			c0.3,0,0.5,0.1,0.8,0.2c0.3,0.1,0.5,0.3,0.8,0.5c0.2,0.2,0.4,0.5,0.6,0.8s0.3,0.8,0.4,1.3s0.2,1.1,0.2,1.8v1.2
			c0,0.7-0.1,1.3-0.2,1.8c-0.1,0.5-0.3,0.9-0.4,1.3s-0.4,0.7-0.6,0.9s-0.5,0.4-0.8,0.5s-0.5,0.2-0.8,0.3s-0.5,0.1-0.8,0.1
			s-0.6,0-0.9-0.1c-0.3,0-0.6-0.1-0.8-0.3s-0.5-0.3-0.8-0.5s-0.4-0.5-0.6-0.9s-0.3-0.8-0.4-1.3c-0.1-0.5-0.2-1.1-0.2-1.8v-1.1
			C180.1,48.7,180.2,48.7,180.2,48.7z M182.5,50.5c0,0.9,0.1,1.5,0.3,1.9s0.5,0.6,1,0.6s0.8-0.2,1-0.6s0.3-1,0.3-1.9v-2.2
			c0-0.9-0.1-1.5-0.3-1.9s-0.5-0.6-1-0.6s-0.8,0.2-1,0.6c-0.2,0.4-0.3,1.1-0.3,1.9V50.5z"/>
	</g>
	<text transform="matrix(1 0 0 1 95 54.8335)" class="st3 st5 st6">vs.</text>
</g>
<g id="Layer_2" class="st0">
	<path class="st7" d="M68.3,33.3c-0.2,0-0.4,0-0.6,0.1c-0.2-0.1-0.5-0.1-0.7-0.1h-2.6c1.9-1,3.3-3,3.3-5.3c0-3.3-2.7-6-6-6
		c-3.3,0-6,2.7-6,6c0,2.3,1.3,4.3,3.3,5.3h-2.6c-0.2,0-0.5,0-0.7,0.1c-0.2-0.1-0.4-0.1-0.6-0.1c-1.1,0-2,0.9-2,2V48c0,1.1,0.9,2,2,2
		c0.2,0,0.5,0,0.7-0.1V50c0,0.3,0,0.6,0.1,0.8c0,0.2-0.1,0.3-0.1,0.5v15.3c0,1.1,0.9,2,2,2H59c1.1,0,2-0.9,2-2V56c0.2,0,0.4,0,0.7,0
		c0.2,0,0.4,0,0.7,0v10.7c0,1.1,0.9,2,2,2h1.3c1.1,0,2-0.9,2-2V51.3c0-0.2,0-0.3-0.1-0.5c0-0.3,0.1-0.6,0.1-0.8v-0.1
		c0.2,0.1,0.4,0.1,0.7,0.1c1.1,0,2-0.9,2-2V35.3C70.3,34.2,69.4,33.3,68.3,33.3z"/>
	<path class="st7" d="M87,33.3c-0.2,0-0.4,0-0.6,0.1c-0.2-0.1-0.5-0.1-0.7-0.1h-2.6c1.9-1,3.3-3,3.3-5.3c0-3.3-2.7-6-6-6s-6,2.7-6,6
		c0,2.3,1.3,4.3,3.3,5.3H75c-0.2,0-0.5,0-0.7,0.1c-0.2-0.1-0.4-0.1-0.6-0.1c-1.1,0-2,0.9-2,2V48c0,1.1,0.9,2,2,2
		c0.2,0,0.5,0,0.7-0.1V50c0,0.3,0,0.6,0.1,0.8c0,0.2-0.1,0.3-0.1,0.5v15.3c0,1.1,0.9,2,2,2h1.3c1.1,0,2-0.9,2-2V56
		c0.2,0,0.4,0,0.7,0c0.2,0,0.4,0,0.7,0v10.7c0,1.1,0.9,2,2,2h1.3c1.1,0,2-0.9,2-2V51.3c0-0.2,0-0.3-0.1-0.5c0-0.3,0.1-0.6,0.1-0.8
		v-0.1C86.5,50,86.8,50,87,50c1.1,0,2-0.9,2-2V35.3C89,34.2,88.1,33.3,87,33.3z"/>
	<path class="st7" d="M105.7,33.3c-0.2,0-0.4,0-0.6,0.1c-0.2-0.1-0.5-0.1-0.7-0.1h-2.6c1.9-1,3.3-3,3.3-5.3c0-3.3-2.7-6-6-6
		s-6,2.7-6,6c0,2.3,1.3,4.3,3.3,5.3h-2.6c-0.2,0-0.5,0-0.7,0.1c-0.2-0.1-0.4-0.1-0.6-0.1c-1.1,0-2,0.9-2,2V48c0,1.1,0.9,2,2,2
		c0.2,0,0.5,0,0.7-0.1V50c0,0.3,0,0.6,0.1,0.8c0,0.2-0.1,0.3-0.1,0.5v15.3c0,1.1,0.9,2,2,2h1.3c1.1,0,2-0.9,2-2V56
		c0.2,0,0.4,0,0.7,0s0.4,0,0.7,0v10.7c0,1.1,0.9,2,2,2h1.3c1.1,0,2-0.9,2-2V51.3c0-0.2,0-0.3-0.1-0.5c0-0.3,0.1-0.6,0.1-0.8v-0.1
		c0.2,0.1,0.4,0.1,0.7,0.1c1.1,0,2-0.9,2-2V35.3C107.7,34.2,106.8,33.3,105.7,33.3z"/>
	<path class="st7" d="M124.3,33.3c-0.2,0-0.4,0-0.6,0.1c-0.2-0.1-0.5-0.1-0.7-0.1h-2.6c1.9-1,3.3-3,3.3-5.3c0-3.3-2.7-6-6-6
		s-6,2.7-6,6c0,2.3,1.3,4.3,3.3,5.3h-2.6c-0.2,0-0.5,0-0.7,0.1c-0.2-0.1-0.4-0.1-0.6-0.1c-1.1,0-2,0.9-2,2V48c0,1.1,0.9,2,2,2
		c0.2,0,0.5,0,0.7-0.1V50c0,0.3,0,0.6,0.1,0.8c0,0.2-0.1,0.3-0.1,0.5v15.3c0,1.1,0.9,2,2,2h1.3c1.1,0,2-0.9,2-2V56
		c0.2,0,0.4,0,0.7,0c0.2,0,0.4,0,0.7,0v10.7c0,1.1,0.9,2,2,2h1.3c1.1,0,2-0.9,2-2V51.3c0-0.2,0-0.3-0.1-0.5c0-0.3,0.1-0.6,0.1-0.8
		v-0.1c0.2,0.1,0.4,0.1,0.7,0.1c1.1,0,2-0.9,2-2V35.3C126.3,34.2,125.4,33.3,124.3,33.3z"/>
	<path class="st7" d="M143,33.3c-0.2,0-0.4,0-0.6,0.1c-0.2-0.1-0.5-0.1-0.7-0.1h-2.6c1.9-1,3.3-3,3.3-5.3c0-3.3-2.7-6-6-6
		s-6,2.7-6,6c0,2.3,1.3,4.3,3.3,5.3H131c-0.2,0-0.5,0-0.7,0.1c-0.2-0.1-0.4-0.1-0.6-0.1c-1.1,0-2,0.9-2,2V48c0,1.1,0.9,2,2,2
		c0.2,0,0.5,0,0.7-0.1V50c0,0.3,0,0.6,0.1,0.8c0,0.2-0.1,0.3-0.1,0.5v15.3c0,1.1,0.9,2,2,2h1.3c1.1,0,2-0.9,2-2V56
		c0.2,0,0.4,0,0.7,0c0.2,0,0.4,0,0.7,0v10.7c0,1.1,0.9,2,2,2h1.3c1.1,0,2-0.9,2-2V51.3c0-0.2,0-0.3-0.1-0.5c0-0.3,0.1-0.6,0.1-0.8
		v-0.1c0.2,0.1,0.4,0.1,0.7,0.1c1.1,0,2-0.9,2-2V35.3C145,34.2,144.1,33.3,143,33.3z"/>
	<path class="st7" d="M162,33.3c-0.2,0-0.4,0-0.6,0.1c-0.2-0.1-0.5-0.1-0.7-0.1h-2.6c1.9-1,3.3-3,3.3-5.3c0-3.3-2.7-6-6-6
		s-6,2.7-6,6c0,2.3,1.3,4.3,3.3,5.3H150c-0.2,0-0.5,0-0.7,0.1c-0.2-0.1-0.4-0.1-0.6-0.1c-1.1,0-2,0.9-2,2V48c0,1.1,0.9,2,2,2
		c0.2,0,0.5,0,0.7-0.1V50c0,0.3,0,0.6,0.1,0.8c0,0.2-0.1,0.3-0.1,0.5v15.3c0,1.1,0.9,2,2,2h1.3c1.1,0,2-0.9,2-2V56
		c0.2,0,0.4,0,0.7,0c0.2,0,0.4,0,0.7,0v10.7c0,1.1,0.9,2,2,2h1.3c1.1,0,2-0.9,2-2V51.3c0-0.2,0-0.3-0.1-0.5c0-0.3,0.1-0.6,0.1-0.8
		v-0.1c0.2,0.1,0.4,0.1,0.7,0.1c1.1,0,2-0.9,2-2V35.3C164,34.2,163.1,33.3,162,33.3z"/>
	<path class="st7" d="M181,33.3c-0.2,0-0.4,0-0.6,0.1c-0.2-0.1-0.5-0.1-0.7-0.1h-2.6c1.9-1,3.3-3,3.3-5.3c0-3.3-2.7-6-6-6
		s-6,2.7-6,6c0,2.3,1.3,4.3,3.3,5.3H169c-0.2,0-0.5,0-0.7,0.1c-0.2-0.1-0.4-0.1-0.6-0.1c-1.1,0-2,0.9-2,2V48c0,1.1,0.9,2,2,2
		c0.2,0,0.5,0,0.7-0.1V50c0,0.3,0,0.6,0.1,0.8c0,0.2-0.1,0.3-0.1,0.5v15.3c0,1.1,0.9,2,2,2h1.3c1.1,0,2-0.9,2-2V56
		c0.2,0,0.4,0,0.7,0c0.2,0,0.4,0,0.7,0v10.7c0,1.1,0.9,2,2,2h1.3c1.1,0,2-0.9,2-2V51.3c0-0.2,0-0.3-0.1-0.5c0-0.3,0.1-0.6,0.1-0.8
		v-0.1c0.2,0.1,0.4,0.1,0.7,0.1c1.1,0,2-0.9,2-2V35.3C183,34.2,182.1,33.3,181,33.3z"/>
	<path class="st7" d="M200,33.3c-0.2,0-0.4,0-0.6,0.1c-0.2-0.1-0.5-0.1-0.7-0.1h-2.6c1.9-1,3.3-3,3.3-5.3c0-3.3-2.7-6-6-6
		s-6,2.7-6,6c0,2.3,1.3,4.3,3.3,5.3H188c-0.2,0-0.5,0-0.7,0.1c-0.2-0.1-0.4-0.1-0.6-0.1c-1.1,0-2,0.9-2,2V48c0,1.1,0.9,2,2,2
		c0.2,0,0.5,0,0.7-0.1V50c0,0.3,0,0.6,0.1,0.8c0,0.2-0.1,0.3-0.1,0.5v15.3c0,1.1,0.9,2,2,2h1.3c1.1,0,2-0.9,2-2V56
		c0.2,0,0.4,0,0.7,0c0.2,0,0.4,0,0.7,0v10.7c0,1.1,0.9,2,2,2h1.3c1.1,0,2-0.9,2-2V51.3c0-0.2,0-0.3-0.1-0.5c0-0.3,0.1-0.6,0.1-0.8
		v-0.1c0.2,0.1,0.4,0.1,0.7,0.1c1.1,0,2-0.9,2-2V35.3C202,34.2,201.1,33.3,200,33.3z"/>
	<path class="st3" d="M45,41H34c-1.1,0-2-0.9-2-2l0,0c0-1.1,0.9-2,2-2h11c1.1,0,2,0.9,2,2l0,0C47,40.1,46.1,41,45,41z"/>
	<path class="st3" d="M45,49H34c-1.1,0-2-0.9-2-2l0,0c0-1.1,0.9-2,2-2h11c1.1,0,2,0.9,2,2l0,0C47,48.1,46.1,49,45,49z"/>
	<path id="armtop" class="st8" d="M23,33L23,33c-1.1,0-2,0.9-2,2v6c0,1.1,0.9,2,2,2l0,0c1.1,0,2-0.9,2-2v-6C25,33.9,24.1,33,23,33z"
		/>
	<path id="armbottom" class="st8" d="M23,40L23,40c-1.1,0-2,0.9-2,2v6c0,1.1,0.9,2,2,2l0,0c1.1,0,2-0.9,2-2v-6
		C25,40.9,24.1,40,23,40z"/>
	<path class="st8" d="M23,34.5c0-0.4,0.1-0.8,0.3-1.2c-0.2,0-0.4,0-0.6,0.1c-0.2-0.1-0.5-0.1-0.7-0.1h-2.6c1.9-1,3.3-3,3.3-5.3
		c0-3.3-2.7-6-6-6s-6,2.7-6,6c0,2.3,1.3,4.3,3.3,5.3h-2.6c-0.2,0-0.5,0-0.7,0.1c-0.2-0.1-0.4-0.1-0.6-0.1c-1.1,0-2,0.9-2,2V48
		c0,1.1,0.9,2,2,2c0.2,0,0.5,0,0.7-0.1V50c0,0.3,0,0.6,0.1,0.8c0,0.2-0.1,0.3-0.1,0.5v15.3c0,1.1,0.9,2,2,2H14c1.1,0,2-0.9,2-2V56
		c0.2,0,0.4,0,0.7,0s0.4,0,0.7,0v10.7c0,1.1,0.9,2,2,2h1.3c1.1,0,2-0.9,2-2V51.3c0-0.2,0-0.3-0.1-0.5c0-0.3,0.1-0.6,0.1-0.8v-0.1
		c0.1,0,0.2,0.1,0.3,0.1V34.5z"/>
</g>
<g id="Layer_3" class="st0">
	<rect x="13.5" y="14.5" class="st9" width="52" height="60"/>
	<text transform="matrix(1 0 0 1 33.25 62)" class="st3 st5 st10">1</text>
	<text transform="matrix(1.27 0 0 1 22.5 33.75)" class="st3 st5 st11">Tues.</text>
	<rect x="81.5" y="14.5" class="st9" width="52" height="60"/>
	<text transform="matrix(1 0 0 1 101.25 62)" class="st3 st5 st10">2</text>
	<text transform="matrix(1.27 0 0 1 92.5 33.75)" class="st3 st5 st11">Wed.</text>
	<rect x="149.5" y="14.5" class="st12" width="52" height="60"/>
	<text transform="matrix(1 0 0 1 169.25 62)" class="st13 st5 st10">3</text>
	<text transform="matrix(1.27 0 0 1 155.5 33.75)" class="st13 st5 st11">Thurs.</text>
</g>
<g id="Layer_4">
	<path d="M49,87C25.8,87,7,68.2,7,45S25.8,3,49,3s42,18.8,42,42S72.2,87,49,87z M49,8C28.6,8,12,24.6,12,45s16.6,37,37,37
		s37-16.6,37-37S69.4,8,49,8z"/>
	<g>
		<path d="M125.4,54.5l6.3-12.1c0.6-1.1,1-2.1,1.4-2.9c0.4-0.8,0.6-1.5,0.8-2.1s0.3-1.1,0.4-1.6c0.1-0.5,0.1-0.9,0.1-1.2
			c0-0.6-0.1-1.1-0.2-1.5c-0.1-0.4-0.3-0.7-0.5-0.9s-0.5-0.4-0.8-0.5s-0.7-0.1-1.1-0.1c-1,0-1.7,0.4-2.1,1.2c-0.4,0.8-0.7,2-0.7,3.5
			v1.6h-3c-0.1-0.6-0.2-1.2-0.3-1.7s-0.1-1.1-0.1-1.7c0-0.7,0.1-1.4,0.4-2.1c0.3-0.7,0.6-1.4,1.2-1.9c0.5-0.6,1.2-1,2-1.4
			s1.8-0.5,3-0.5s2.3,0.1,3.2,0.4s1.6,0.7,2.2,1.3c0.6,0.6,1,1.2,1.2,2c0.3,0.8,0.4,1.7,0.4,2.7c0,0.6-0.1,1.1-0.2,1.7
			c-0.1,0.6-0.3,1.2-0.5,1.8s-0.6,1.3-0.9,2.1c-0.4,0.8-0.9,1.6-1.4,2.6l-5.6,10.6h8.3V57h-13.2v-2.5H125.4z"/>
		<path d="M149.6,34.1h3.3l0.4,2.4l0,0c0.3-0.5,0.7-1,1.1-1.3s0.8-0.6,1.2-0.8s0.8-0.4,1.2-0.4c0.4-0.1,0.8-0.1,1.3-0.1
			c0.9,0,1.7,0.2,2.3,0.6s1.1,1.1,1.4,1.9c0.3-0.5,0.7-0.9,1.1-1.2c0.4-0.3,0.8-0.6,1.2-0.8s0.8-0.3,1.2-0.4s0.8-0.1,1.2-0.1
			c1.3,0,2.4,0.5,3.1,1.4c0.7,0.9,1.1,2.3,1.1,4.2V57h-4.2V39.6c0-0.5,0-0.9-0.1-1.3c-0.1-0.3-0.2-0.6-0.3-0.8
			c-0.2-0.2-0.4-0.4-0.6-0.5c-0.2-0.1-0.5-0.1-0.9-0.1s-0.8,0.1-1.2,0.4s-0.7,0.7-1.1,1.2c0,0.1,0,0.2,0,0.3s0,0.2,0,0.3V57H158
			V39.6c0-0.5,0-0.9-0.1-1.3c-0.1-0.3-0.2-0.6-0.3-0.8c-0.2-0.2-0.4-0.4-0.6-0.5c-0.2-0.1-0.5-0.1-0.9-0.1s-0.8,0.1-1.1,0.4
			c-0.4,0.3-0.7,0.7-1,1.1V57h-4.2V34.1H149.6z"/>
		<path d="M177.1,30.9c-0.8,0-1.4-0.2-1.8-0.7c-0.4-0.5-0.7-1.1-0.7-2c0-0.5,0.1-0.9,0.2-1.3c0.1-0.3,0.3-0.6,0.5-0.8
			c0.2-0.2,0.5-0.4,0.8-0.4c0.3-0.1,0.7-0.1,1.1-0.1c0.8,0,1.5,0.2,1.9,0.6s0.6,1.1,0.6,2s-0.2,1.5-0.7,2
			C178.6,30.6,178,30.9,177.1,30.9z M174.9,34.1h4.2V57h-4.2V34.1z"/>
		<path d="M183.5,34.1h3.2l0.4,2.4l0,0c0.3-0.5,0.7-1,1.1-1.3c0.4-0.3,0.8-0.6,1.2-0.8s0.8-0.4,1.3-0.4c0.4-0.1,0.8-0.1,1.3-0.1
			c1.3,0,2.4,0.5,3.1,1.4c0.7,0.9,1.1,2.3,1.1,4.2V57H192V39.6c0-1-0.2-1.7-0.5-2.1c-0.3-0.4-0.8-0.6-1.4-0.6
			c-0.4,0-0.8,0.1-1.3,0.4c-0.4,0.3-0.8,0.7-1.1,1.1V57h-4.2V34.1L183.5,34.1z"/>
		<path d="M199.8,54c0-1.2,0.2-2,0.7-2.5s1.1-0.8,1.9-0.8c0.8,0,1.5,0.3,1.9,0.8c0.5,0.5,0.7,1.4,0.7,2.5c0,1-0.2,1.8-0.7,2.4
			c-0.5,0.6-1.1,0.8-1.9,0.8c-0.8,0-1.4-0.3-1.9-0.8S199.8,55.1,199.8,54z"/>
	</g>
	<g>
		<path d="M105.2,43.9l-3.9-9.6h3.7l2.1,6.4l0,0l2.2-6.4h3.4l-3.7,9.3l4.1,10.2h-3.7l-2.4-6.7l0,0l-2.4,6.7h-3.4L105.2,43.9z"/>
	</g>
	<path d="M69.9,49.7l-17.7-6.8c-0.3-0.8-0.9-1.4-1.7-1.9V14c0-1.4-1.1-2.5-2.5-2.5s-2.5,1.1-2.5,2.5v27.9c-0.6,0.7-1,1.6-1,2.6
		c0,2.2,1.8,4,4,4c0.9,0,1.7-0.3,2.3-0.8l17.3,6.6c0.3,0.1,0.6,0.2,0.9,0.2c1,0,2-0.6,2.3-1.6C71.8,51.6,71.2,50.2,69.9,49.7z"/>
</g>
</svg>
