<?xml version="1.0" encoding="utf-8"?>
<!-- Generator: Adobe Illustrator 21.0.2, SVG Export Plug-In . SVG Version: 6.00 Build 0)  -->
<svg version="1.1" id="Layer_1" xmlns="http://www.w3.org/2000/svg" xmlns:xlink="http://www.w3.org/1999/xlink" x="0px" y="0px"
	 viewBox="0 0 100 100" style="enable-background:new 0 0 100 100;" xml:space="preserve">
<style type="text/css">
	.st0{fill:#FFFFFF;}
</style>
<path class="st0" d="M90.5,25.4c-0.3-0.3-0.8-0.4-1.2-0.4l-5.8,0.8v-1.3c0-0.5-0.2-0.9-0.6-1.2c-0.4-0.3-0.8-0.4-1.3-0.3l-5.2,1.2
	c-0.1-0.3-0.3-0.7-0.6-0.9c-0.4-0.3-0.9-0.4-1.3-0.2l-24.4,6.9l-0.3-0.1l-25.5-6.8c-0.4-0.1-0.9,0-1.3,0.3c-0.3,0.2-0.5,0.5-0.5,0.8
	L17.3,23c-0.4-0.1-0.9,0-1.3,0.3c-0.4,0.3-0.6,0.7-0.6,1.2V26l-5.7-1c-0.4-0.1-0.9,0-1.2,0.3C8.2,25.6,8,26.1,8,26.5v52
	c0,0.7,0.5,1.4,1.2,1.5l40,7c0.1,0,0.2,0,0.3,0c0,0,0,0,0,0c0,0,0,0,0,0s0,0,0,0c0,0,0,0,0,0c0.1,0,0.2,0,0.3,0l40-7
	c0.7-0.1,1.2-0.7,1.2-1.5v-52C91,26.1,90.8,25.7,90.5,25.4z M25.5,27.8L48,32.5v18c0,0.8,0.7,1.5,1.5,1.5s1.5-0.7,1.5-1.5V32.9
	l22.5-5v47.4L51,81.5v-17c0-0.8-0.7-1.5-1.5-1.5S48,63.7,48,64.5v17l-22.5-6.2V27.8z M76.5,27.3l4-0.9v48.9l-4,0.9V27.3z M18.5,26.3
	l4,0.8v49l-4-0.9V26.3z M11,28.3l4.5,0.8v47.5c0,0.7,0.5,1.3,1.2,1.5l6.6,1.4L11,77.2V28.3z M88,77.2l-12.3,2.2l6.6-1.4
	c0.7-0.1,1.2-0.8,1.2-1.5V28.9l4.5-0.6V77.2z"/>
</svg>
