<?xml version="1.0" encoding="utf-8"?>
<!-- Generator: Adobe Illustrator 21.0.2, SVG Export Plug-In . SVG Version: 6.00 Build 0)  -->
<svg version="1.1" id="Layer_1" xmlns="http://www.w3.org/2000/svg" xmlns:xlink="http://www.w3.org/1999/xlink" x="0px" y="0px"
	 viewBox="0 0 54 60" style="enable-background:new 0 0 54 60;" xml:space="preserve">
<style type="text/css">
	.st0{fill:#FFFFFF;}
</style>
<path class="st0" d="M53.1,0.3c-0.9-0.6-2.2-0.4-2.8,0.6L41.7,14H2c-1.1,0-2,0.9-2,2v42c0,1.1,0.9,2,2,2h42c1.1,0,2-0.9,2-2V16
	c0-0.3-0.1-0.6-0.2-0.9l7.9-12C54.3,2.2,54,0.9,53.1,0.3z M42,56H4V18h35.1L22.6,43l-11.3-9.5c-0.8-0.7-2.1-0.6-2.8,0.2
	c-0.7,0.8-0.6,2.1,0.2,2.8l13,11c0.4,0.3,0.8,0.5,1.3,0.5c0.1,0,0.2,0,0.3,0c0.6-0.1,1.1-0.4,1.4-0.9L42,20.8V56z"/>
</svg>
