<?xml version="1.0" encoding="utf-8"?>
<!-- Generator: Adobe Illustrator 21.0.2, SVG Export Plug-In . SVG Version: 6.00 Build 0)  -->
<svg version="1.1" id="Layer_1" xmlns="http://www.w3.org/2000/svg" xmlns:xlink="http://www.w3.org/1999/xlink" x="0px" y="0px"
	 viewBox="0 0 100 100" style="enable-background:new 0 0 100 100;" xml:space="preserve">
<style type="text/css">
	.st0{fill:#FFFFFF;}
</style>
<g>
	<path class="st0" d="M43,84.4v5.5c0.1,0.1,0.4,0.1,0.5,0.1h12c0.1,0,0.4,0,0.5-0.1v-5.5c-4.2,0-7.4,0.1-9.7,0.1
		C44.9,84.4,43.9,84.4,43,84.4z"/>
	<path class="st0" d="M42.8,81c0.1,0.4,0.1,0.7,0.1,0.9l0,0C43,81.5,42.9,81.2,42.8,81z"/>
	<path class="st0" d="M70,51c0-11.3-9.2-20.5-20.5-20.5S29,39.7,29,51c0,0,0.2,8,4.4,12.9c6,7,8.2,12.4,9.1,15.5c3,0,9.2,0,14,0
		c0.9-3.2,3.1-8.5,9.1-15.5C70.7,58,70,51.4,70,51.3V51z"/>
	<path class="st0" d="M75,50.9c-0.1-14-11.5-25.4-25.5-25.4C35.4,25.5,24,36.9,24,51c0,0.4,0.2,9.8,5.6,16.1
		c8.1,9.5,8.4,15.4,8.4,15.4V90c0,3.3,2.8,5,5.5,5h12c2.7,0,5.5-1.7,5.5-5v-7.4c0-0.1,0.3-6,8.4-15.5C75.5,60,75.1,52.1,75,50.9z
		 M42.8,81c0.1,0.3,0.2,0.6,0.2,0.9l0,0C42.9,81.6,42.9,81.3,42.8,81z M56,89.9C55.9,90,55.6,90,55.5,90h-12c-0.2,0-0.4,0-0.5-0.1
		v-5.5c0.9,0,1.9,0,3.3,0c2.3,0,5.5,0,9.7-0.1V89.9z M65.6,63.9c-6,7-8.2,12.3-9.1,15.5c-4.9,0-11.1,0.1-14,0
		c-0.8-3.2-3.1-8.6-9.1-15.5C29.2,59,29,51,29,51c0-11.3,9.2-20.5,20.5-20.5S70,39.7,70,51v0.3C70,51.3,70.7,57.9,65.6,63.9z"/>
</g>
<path class="st0" d="M49.5,23c-1.4,0-2.5-1.1-2.5-2.5v-13C47,6.1,48.1,5,49.5,5S52,6.1,52,7.5v13C52,21.9,50.9,23,49.5,23z"/>
<path class="st0" d="M72.8,32c-0.6,0-1.3-0.3-1.7-0.8c-1-1-0.9-2.6,0-3.5l9.3-9.1c1-1,2.6-0.9,3.5,0c1,1,0.9,2.6,0,3.5l-9.3,9.1
	C74.1,31.8,73.4,32,72.8,32z"/>
<path class="st0" d="M19.8,51.8c-0.5,0.5-1.1,0.7-1.8,0.7H5c-1.4,0-2.5-1.1-2.5-2.5s1.1-2.5,2.5-2.5l13,0.1c1.4,0,2.5,1.1,2.5,2.5
	C20.5,50.7,20.2,51.4,19.8,51.8z"/>
<path class="st0" d="M79.2,48.2c0.5-0.5,1.1-0.7,1.8-0.7l13,0.1c1.4,0,2.5,1.1,2.5,2.5s-1.1,2.5-2.5,2.5l-13-0.1
	c-1.4,0-2.5-1.1-2.5-2.5C78.5,49.3,78.8,48.6,79.2,48.2z"/>
<path class="st0" d="M25.2,33c0.6,0,1.3-0.3,1.7-0.8c1-1,0.9-2.6,0-3.5l-9.3-9.1c-1-1-2.6-0.9-3.5,0c-1,1-0.9,2.6,0,3.5l9.3,9.1
	C23.9,32.8,24.6,33,25.2,33z"/>
</svg>
