<?xml version="1.0" encoding="utf-8"?>
<!-- Generator: Adobe Illustrator 21.0.2, SVG Export Plug-In . SVG Version: 6.00 Build 0)  -->
<svg version="1.1" id="Layer_1" xmlns="http://www.w3.org/2000/svg" xmlns:xlink="http://www.w3.org/1999/xlink" x="0px" y="0px"
	 viewBox="0 0 94 90" style="enable-background:new 0 0 94 90;" xml:space="preserve">
<style type="text/css">
	.st0{fill:#FFFFFF;}
</style>
<g>
	<path class="st0" d="M40.3,76c0.1,0.4,0.1,0.7,0.1,0.9l0,0C40.5,76.5,40.4,76.2,40.3,76z"/>
	<path class="st0" d="M72.5,45.9C72.4,31.9,61,20.5,47,20.5c-14.1,0-25.5,11.4-25.5,25.5c0,0.4,0.2,9.8,5.6,16.1
		c8.1,9.5,8.4,15.4,8.4,15.4V85c0,3.3,2.8,5,5.5,5h12c2.7,0,5.5-1.7,5.5-5v-7.4c0-0.1,0.3-6,8.4-15.5C73,55,72.6,47.1,72.5,45.9z
		 M53.5,84.9C53.4,85,53.1,85,53,85H41c-0.2,0-0.4,0-0.5-0.1v-5.5c0.9,0,1.9,0,3.3,0c2.3,0,5.5,0,9.7-0.1V84.9z M63.1,58.9
		c-6,7-8.2,12.3-9.1,15.5c-4.9,0-11.1,0.1-14,0c-0.8-3.2-3.1-8.6-9.1-15.5C26.7,54,26.5,46,26.5,46c0-11.3,9.2-20.5,20.5-20.5
		S67.5,34.7,67.5,46v0.3C67.5,46.3,68.2,52.9,63.1,58.9z"/>
</g>
<path class="st0" d="M47,18c-1.4,0-2.5-1.1-2.5-2.5v-13C44.5,1.1,45.6,0,47,0s2.5,1.1,2.5,2.5v13C49.5,16.9,48.4,18,47,18z"/>
<path class="st0" d="M70.3,27c-0.6,0-1.3-0.3-1.7-0.8c-1-1-0.9-2.6,0-3.5l9.3-9.1c1-1,2.6-0.9,3.5,0c1,1,0.9,2.6,0,3.5l-9.3,9.1
	C71.6,26.8,70.9,27,70.3,27z"/>
<path class="st0" d="M17.3,46.8c-0.5,0.5-1.1,0.7-1.8,0.7h-13C1.1,47.5,0,46.4,0,45s1.1-2.5,2.5-2.5l13,0.1c1.4,0,2.5,1.1,2.5,2.5
	C18,45.7,17.7,46.4,17.3,46.8z"/>
<path class="st0" d="M76.7,43.2c0.5-0.5,1.1-0.7,1.8-0.7l13,0.1c1.4,0,2.5,1.1,2.5,2.5s-1.1,2.5-2.5,2.5l-13-0.1
	c-1.4,0-2.5-1.1-2.5-2.5C76,44.3,76.3,43.6,76.7,43.2z"/>
<path class="st0" d="M22.7,28c0.6,0,1.3-0.3,1.7-0.8c1-1,0.9-2.6,0-3.5l-9.3-9.1c-1-1-2.6-0.9-3.5,0c-1,1-0.9,2.6,0,3.5l9.3,9.1
	C21.4,27.8,22.1,28,22.7,28z"/>
</svg>
