<?xml version="1.0" encoding="utf-8"?>
<!-- Generator: Adobe Illustrator 21.0.2, SVG Export Plug-In . SVG Version: 6.00 Build 0)  -->
<svg version="1.1" id="Layer_1" xmlns="http://www.w3.org/2000/svg" xmlns:xlink="http://www.w3.org/1999/xlink" x="0px" y="0px"
	 viewBox="0 0 57 52" style="enable-background:new 0 0 57 52;" xml:space="preserve">
<style type="text/css">
	.st0{fill:#808080;}
</style>
<path class="st0" d="M55.5,44.9L39,31.8c1.9-3.2,3-6.8,3-10.8C42,9.4,32.6,0,21,0S0,9.4,0,21s9.4,21,21,21c4.8,0,9.1-1.6,12.6-4.3
	l16.9,13.4c0.7,0.6,1.6,0.9,2.5,0.9c1.2,0,2.3-0.5,3.1-1.5C57.5,48.8,57.2,46.2,55.5,44.9z M8,21c0-7.2,5.8-13,13-13s13,5.8,13,13
	s-5.8,13-13,13S8,28.2,8,21z"/>
</svg>
