<?xml version="1.0" encoding="utf-8"?>
<!-- Generator: Adobe Illustrator 21.0.2, SVG Export Plug-In . SVG Version: 6.00 Build 0)  -->
<svg version="1.1" xmlns="http://www.w3.org/2000/svg" xmlns:xlink="http://www.w3.org/1999/xlink" x="0px" y="0px"
	 viewBox="0 0 214 90.9" style="enable-background:new 0 0 214 90.9;" xml:space="preserve">
<style type="text/css">
	.st0{fill:#E6E6E6;}
	.st1{fill:#FFCC05;}
	.st2{fill:#9D5BC2;}
	.st3{display:none;}
	.st4{display:inline;fill:#9D5BC2;}
	.st5{display:inline;fill:#4EAFE9;}
	.st6{display:inline;}
	.st7{display:inline;fill:none;stroke:#000000;stroke-width:5;stroke-miterlimit:10;}
	.st8{font-family:'FjallaOne-Regular';}
	.st9{font-size:26px;}
	.st10{font-size:13px;}
	.st11{display:inline;fill:none;stroke:#EC1313;stroke-width:5;stroke-miterlimit:10;}
	.st12{display:inline;fill:#EC1313;}
</style>
<g id="Layer_1">
	<circle class="st0" cx="45.3" cy="45.5" r="41.2"/>
	<circle class="st0" cx="167.7" cy="45.5" r="40"/>
	<path class="st1" d="M130.5,21.2L168,46.1l40.6-21.9c3.4,6.4,5.4,13.7,5.4,21.4c0,25-20.3,45.3-45.3,45.3s-45.3-20.3-45.3-45.3
		C123.4,36.6,126,28.2,130.5,21.2"/>
	<g>
		<path class="st2" d="M45.3,0c-0.4,0-0.9,0-1.3,0"/>
		<path class="st2" d="M78.4,14.3l-0.5-0.2L44,44.8V0C19.6,0.7,0,20.7,0,45.3c0,25,20.3,45.3,45.3,45.3s45.3-20.3,45.3-45.3
			C90.6,33.3,86,22.5,78.4,14.3z"/>
	</g>
	<g>
		<path d="M26,48.8c0-0.6,0.1-1.1,0.2-1.5s0.3-0.8,0.5-1.1c0.2-0.3,0.5-0.6,0.8-0.8c0.3-0.2,0.6-0.4,0.9-0.6v-0.1
			c-0.2-0.1-0.5-0.3-0.7-0.5c-0.3-0.2-0.5-0.5-0.7-0.7c-0.2-0.3-0.4-0.6-0.5-1c-0.1-0.4-0.2-0.9-0.2-1.4v-1.3c0-0.6,0.1-1.2,0.2-1.6
			s0.3-0.8,0.6-1.2c0.2-0.3,0.5-0.6,0.8-0.8c0.3-0.2,0.7-0.4,1-0.5c0.3-0.1,0.7-0.2,1-0.2c0.3,0,0.7-0.1,0.9-0.1
			c0.3,0,0.6,0,0.9,0.1s0.7,0.1,1,0.2s0.7,0.3,1,0.5c0.3,0.2,0.6,0.5,0.8,0.8c0.2,0.3,0.4,0.7,0.6,1.2s0.2,1,0.2,1.6V41
			c0,0.5-0.1,1-0.2,1.4c-0.1,0.4-0.3,0.7-0.5,1c-0.2,0.3-0.4,0.5-0.7,0.7c-0.3,0.2-0.5,0.4-0.7,0.5v0.1c0.3,0.2,0.7,0.4,0.9,0.6
			c0.3,0.2,0.5,0.5,0.8,0.8c0.2,0.3,0.4,0.7,0.5,1.1s0.2,0.9,0.2,1.5V50c0,0.7-0.1,1.2-0.2,1.7S35.2,52.7,35,53
			c-0.2,0.4-0.5,0.7-0.8,0.9c-0.3,0.2-0.7,0.4-1,0.6c-0.4,0.1-0.7,0.2-1.1,0.3c-0.4,0.1-0.8,0.1-1.2,0.1s-0.8,0-1.2-0.1
			c-0.4-0.1-0.8-0.2-1.1-0.3c-0.4-0.1-0.7-0.3-1-0.6S27,53.4,26.7,53c-0.2-0.4-0.4-0.8-0.5-1.3S26,50.7,26,50V48.8z M28.9,50.3
			c0,0.5,0.1,0.9,0.2,1.2c0.1,0.3,0.3,0.6,0.4,0.7c0.2,0.2,0.4,0.3,0.6,0.4s0.5,0.1,0.7,0.1s0.5,0,0.7-0.1c0.2-0.1,0.4-0.2,0.6-0.4
			s0.3-0.4,0.4-0.7s0.2-0.7,0.2-1.2v-2.1c0-0.4,0-0.8-0.1-1.1c-0.1-0.3-0.2-0.5-0.4-0.7c-0.2-0.2-0.3-0.3-0.6-0.4
			c-0.2-0.1-0.5-0.1-0.7-0.1h-0.3c-0.5,0-1,0.2-1.3,0.6c-0.3,0.4-0.5,1-0.5,1.8V50.3z M31,43.7c0.2,0,0.4,0,0.6-0.1
			c0.2-0.1,0.4-0.2,0.5-0.4s0.3-0.4,0.3-0.7s0.1-0.7,0.1-1.1v-1.6c0-0.8-0.1-1.4-0.4-1.8c-0.3-0.4-0.7-0.6-1.3-0.6s-1,0.2-1.3,0.6
			c-0.3,0.4-0.4,1-0.4,1.8v1.6c0,0.4,0,0.8,0.1,1.1c0.1,0.3,0.2,0.5,0.3,0.7c0.1,0.2,0.3,0.3,0.5,0.4c0.2,0.1,0.4,0.1,0.6,0.1H31z"
			/>
		<path d="M38.1,50.7c0-0.7,0.1-1.4,0.3-2.2h2.3v1.6c0,0.9,0.1,1.6,0.4,2c0.3,0.4,0.7,0.6,1.3,0.6c0.6,0,1-0.2,1.3-0.7
			s0.4-1.1,0.4-1.9v-3.7c0-0.5,0-0.9-0.1-1.2c-0.1-0.3-0.2-0.5-0.3-0.7c-0.1-0.2-0.3-0.3-0.5-0.3c-0.2-0.1-0.4-0.1-0.6-0.1
			c-0.4,0-0.8,0.1-1.1,0.4c-0.3,0.2-0.5,0.5-0.7,0.8h-2.1v-9.8h8.2v2.6h-5.8v4.7c0.3-0.4,0.7-0.6,1.2-0.8c0.5-0.2,1-0.3,1.5-0.3
			c1.2,0,2.1,0.4,2.6,1.2s0.8,2,0.8,3.5v3.3c0,1-0.1,1.8-0.4,2.5s-0.6,1.2-1,1.6c-0.4,0.4-0.9,0.7-1.5,0.9c-0.6,0.2-1.1,0.3-1.7,0.3
			c-0.7,0-1.3-0.1-1.9-0.3s-1-0.5-1.4-0.8c-0.4-0.4-0.7-0.8-0.8-1.3C38.2,51.9,38.1,51.4,38.1,50.7z"/>
		<path d="M53.6,45.8c-0.4,0-0.9-0.1-1.3-0.2c-0.4-0.1-0.8-0.4-1.2-0.7c-0.3-0.3-0.6-0.8-0.8-1.5C50.1,42.8,50,42,50,41v-1.2
			c0-0.7,0.1-1.3,0.2-1.8c0.1-0.5,0.2-0.9,0.4-1.3c0.2-0.4,0.4-0.6,0.6-0.9s0.5-0.4,0.8-0.5s0.5-0.2,0.8-0.2c0.3,0,0.6-0.1,0.8-0.1
			c0.3,0,0.5,0,0.8,0.1c0.3,0,0.5,0.1,0.8,0.2c0.3,0.1,0.5,0.3,0.8,0.5c0.2,0.2,0.4,0.5,0.6,0.8s0.3,0.8,0.4,1.3s0.2,1.1,0.2,1.8V41
			c0,1-0.1,1.9-0.3,2.5c-0.2,0.6-0.5,1.1-0.9,1.5c-0.4,0.4-0.7,0.6-1.2,0.7C54.4,45.8,54,45.8,53.6,45.8z M53.7,44.1
			c0.5,0,0.8-0.2,1-0.6c0.2-0.4,0.3-1,0.3-1.9v-2.2c0-0.9-0.1-1.5-0.3-1.9s-0.5-0.6-1-0.6c-0.5,0-0.8,0.2-1,0.6
			c-0.2,0.4-0.3,1.1-0.3,1.9v2.2c0,0.9,0.1,1.5,0.3,1.9C52.8,43.8,53.2,44.1,53.7,44.1z M60.5,35.3h2l-5.2,19.4h-2L60.5,35.3z
			 M60.5,48.7c0-1,0.1-1.8,0.3-2.5c0.2-0.6,0.5-1.1,0.9-1.4c0.4-0.3,0.7-0.6,1.2-0.7c0.4-0.1,0.8-0.2,1.2-0.2c0.3,0,0.5,0,0.8,0.1
			c0.3,0,0.5,0.1,0.8,0.2c0.3,0.1,0.5,0.3,0.8,0.5c0.2,0.2,0.4,0.5,0.6,0.8s0.3,0.8,0.4,1.3s0.2,1.1,0.2,1.8v1.2
			c0,0.7-0.1,1.3-0.2,1.8c-0.1,0.5-0.3,0.9-0.4,1.3c-0.2,0.4-0.4,0.7-0.6,0.9s-0.5,0.4-0.8,0.5c-0.3,0.1-0.5,0.2-0.8,0.3
			s-0.5,0.1-0.8,0.1c-0.3,0-0.6,0-0.9-0.1c-0.3,0-0.6-0.1-0.8-0.3c-0.3-0.1-0.5-0.3-0.8-0.5c-0.2-0.2-0.4-0.5-0.6-0.9
			s-0.3-0.8-0.4-1.3c-0.1-0.5-0.2-1.1-0.2-1.8V48.7z M62.8,50.5c0,0.9,0.1,1.5,0.3,1.9c0.2,0.4,0.5,0.6,1,0.6c0.5,0,0.8-0.2,1-0.6
			s0.3-1,0.3-1.9v-2.2c0-0.9-0.1-1.5-0.3-1.9s-0.5-0.6-1-0.6c-0.5,0-0.8,0.2-1,0.6c-0.2,0.4-0.3,1.1-0.3,1.9V50.5z"/>
	</g>
	<g>
		<path d="M148.1,50.8c0-0.3,0-0.7,0.1-1.1c0-0.4,0.1-0.8,0.2-1.2h2.3v1c0,0.6,0.1,1.1,0.2,1.5c0.1,0.4,0.2,0.7,0.4,1
			c0.2,0.2,0.4,0.4,0.6,0.5c0.2,0.1,0.5,0.2,0.8,0.2c0.3,0,0.5,0,0.8-0.1s0.4-0.2,0.6-0.4s0.3-0.4,0.4-0.7s0.1-0.6,0.1-1v-2.1
			c0-0.4,0-0.8-0.1-1.1s-0.2-0.6-0.3-0.8c-0.2-0.2-0.4-0.4-0.6-0.5s-0.6-0.2-0.9-0.2h-1.2v-2.1h1.2c0.2,0,0.5,0,0.7-0.1
			c0.2-0.1,0.4-0.2,0.6-0.4c0.2-0.2,0.3-0.4,0.4-0.7s0.1-0.6,0.1-1v-2c0-0.7-0.1-1.2-0.4-1.6c-0.3-0.3-0.7-0.5-1.2-0.5
			c-0.6,0-1.1,0.3-1.4,0.8c-0.3,0.5-0.5,1.3-0.5,2.3v1.1h-2.2c-0.1-0.4-0.2-0.7-0.2-1.1c-0.1-0.4-0.1-0.8-0.1-1.2
			c0-0.5,0.1-1,0.3-1.5c0.2-0.5,0.5-0.9,0.8-1.3s0.8-0.7,1.4-0.9c0.6-0.2,1.2-0.4,2-0.4c0.8,0,1.5,0.1,2.1,0.3s1.1,0.5,1.4,0.8
			c0.4,0.4,0.6,0.8,0.8,1.3c0.2,0.5,0.3,1.1,0.3,1.8v1.2c0,0.5-0.1,1-0.2,1.5c-0.1,0.4-0.3,0.8-0.5,1.1s-0.5,0.6-0.8,0.8
			c-0.3,0.2-0.6,0.4-0.9,0.5v0.1c0.4,0.1,0.7,0.3,1,0.5c0.3,0.2,0.6,0.5,0.8,0.8c0.2,0.3,0.4,0.7,0.6,1.2s0.2,1,0.2,1.6v1.3
			c0,0.9-0.1,1.6-0.4,2.2c-0.3,0.6-0.6,1.1-1,1.5c-0.4,0.4-0.9,0.6-1.5,0.8c-0.6,0.2-1.2,0.2-1.8,0.2c-1.5,0-2.6-0.4-3.4-1.1
			C148.5,53.1,148.1,52.1,148.1,50.8z"/>
		<path d="M160.3,52.5h2.2V39.4l-2.4,2.1l-1.3-1.5l4.4-4.5h2.2l0,0l0,0v17h2.2v2.2h-7.3V52.5z"/>
		<path d="M173.3,45.8c-0.4,0-0.9-0.1-1.3-0.2c-0.4-0.1-0.8-0.4-1.2-0.7c-0.3-0.3-0.6-0.8-0.8-1.5c-0.2-0.6-0.3-1.5-0.3-2.5v-1.2
			c0-0.7,0.1-1.3,0.2-1.8c0.1-0.5,0.3-0.9,0.4-1.3c0.2-0.4,0.4-0.6,0.6-0.9s0.5-0.4,0.8-0.5s0.5-0.2,0.8-0.2s0.6-0.1,0.8-0.1
			c0.3,0,0.5,0,0.8,0.1c0.3,0,0.5,0.1,0.8,0.2s0.5,0.3,0.8,0.5c0.2,0.2,0.4,0.5,0.6,0.8s0.3,0.8,0.4,1.3s0.2,1.1,0.2,1.8V41
			c0,1-0.1,1.9-0.3,2.5c-0.2,0.6-0.5,1.1-0.9,1.5c-0.4,0.4-0.7,0.6-1.2,0.7C174.1,45.8,173.7,45.8,173.3,45.8z M173.3,44.1
			c0.5,0,0.8-0.2,1-0.6c0.2-0.4,0.3-1,0.3-1.9v-2.2c0-0.9-0.1-1.5-0.3-1.9s-0.5-0.6-1-0.6c-0.5,0-0.8,0.2-1,0.6
			c-0.2,0.4-0.3,1.1-0.3,1.9v2.2c0,0.9,0.1,1.5,0.3,1.9C172.5,43.8,172.9,44.1,173.3,44.1z M180.1,35.3h2L177,54.7h-2L180.1,35.3z
			 M180.2,48.7c0-1,0.1-1.8,0.3-2.5c0.2-0.6,0.5-1.1,0.9-1.4c0.4-0.3,0.7-0.6,1.2-0.7c0.4-0.1,0.8-0.2,1.2-0.2c0.3,0,0.5,0,0.8,0.1
			c0.3,0,0.5,0.1,0.8,0.2c0.3,0.1,0.5,0.3,0.8,0.5c0.2,0.2,0.4,0.5,0.6,0.8s0.3,0.8,0.4,1.3s0.2,1.1,0.2,1.8v1.2
			c0,0.7-0.1,1.3-0.2,1.8c-0.1,0.5-0.3,0.9-0.4,1.3s-0.4,0.7-0.6,0.9s-0.5,0.4-0.8,0.5s-0.5,0.2-0.8,0.3s-0.5,0.1-0.8,0.1
			c-0.3,0-0.6,0-0.9-0.1c-0.3,0-0.6-0.1-0.8-0.3s-0.5-0.3-0.8-0.5s-0.4-0.5-0.6-0.9s-0.3-0.8-0.4-1.3c-0.1-0.5-0.2-1.1-0.2-1.8V48.7
			z M182.5,50.5c0,0.9,0.1,1.5,0.3,1.9c0.2,0.4,0.5,0.6,1,0.6c0.5,0,0.8-0.2,1-0.6s0.3-1,0.3-1.9v-2.2c0-0.9-0.1-1.5-0.3-1.9
			s-0.5-0.6-1-0.6c-0.5,0-0.8,0.2-1,0.6c-0.2,0.4-0.3,1.1-0.3,1.9V50.5z"/>
	</g>
	<g>
		<path d="M95.2,39.4H98l1.5,8.2l0.4,3.3h0.1l0.4-3.3l1.5-8.2h2.7l-3.5,15.5h-2.4L95.2,39.4z"/>
		<path d="M105.7,51.6c0-0.3,0-0.7,0.1-1s0.1-0.6,0.2-0.8h2c0,0.6,0,1,0.1,1.4c0.1,0.4,0.1,0.7,0.3,0.9c0.1,0.2,0.3,0.4,0.5,0.5
			c0.2,0.1,0.5,0.1,0.8,0.1c0.4,0,0.7-0.1,0.9-0.4c0.2-0.2,0.3-0.5,0.3-0.8c0-0.2,0-0.3-0.1-0.5c0-0.2-0.1-0.3-0.2-0.5
			c-0.1-0.2-0.2-0.3-0.3-0.5c-0.1-0.2-0.3-0.3-0.4-0.5l-2.1-2.4c-0.3-0.3-0.5-0.7-0.8-1c-0.3-0.3-0.5-0.7-0.7-1.1
			c-0.2-0.4-0.3-0.8-0.5-1.2s-0.2-0.8-0.2-1.3c0-0.6,0.1-1.1,0.3-1.6s0.5-0.8,0.8-1.1c0.3-0.3,0.8-0.5,1.2-0.7s0.9-0.2,1.4-0.2
			c0.6,0,1.1,0.1,1.5,0.2s0.8,0.3,1.2,0.6c0.3,0.3,0.6,0.6,0.7,1c0.2,0.4,0.3,0.9,0.3,1.4c0,0.4,0,0.7-0.1,1s-0.1,0.6-0.2,0.9h-2
			c0-0.5,0-1-0.1-1.3s-0.1-0.7-0.2-0.9c-0.1-0.3-0.2-0.4-0.4-0.6s-0.4-0.2-0.7-0.2c-0.2,0-0.5,0-0.6,0.1c-0.2,0.1-0.3,0.2-0.4,0.3
			c-0.1,0.1-0.2,0.3-0.2,0.4s-0.1,0.3-0.1,0.5c0,0.4,0.1,0.7,0.3,1c0.2,0.3,0.4,0.6,0.7,1l2.3,2.7c0.2,0.2,0.4,0.4,0.6,0.7
			c0.2,0.3,0.4,0.6,0.6,1c0.2,0.3,0.4,0.7,0.5,1.1c0.1,0.4,0.2,0.8,0.2,1.3c0,0.5-0.1,1-0.3,1.5c-0.2,0.4-0.4,0.8-0.8,1.1
			c-0.3,0.3-0.8,0.6-1.2,0.7c-0.5,0.2-1,0.3-1.7,0.3c-0.5,0-1-0.1-1.5-0.2c-0.5-0.1-0.9-0.3-1.2-0.6c-0.3-0.3-0.6-0.6-0.8-1.1
			C105.8,52.8,105.7,52.2,105.7,51.6z"/>
		<path d="M115.1,52.8c0-0.8,0.2-1.4,0.5-1.7s0.7-0.5,1.3-0.5c0.6,0,1,0.2,1.3,0.6c0.3,0.4,0.5,0.9,0.5,1.7c0,0.7-0.2,1.2-0.5,1.6
			c-0.3,0.4-0.7,0.6-1.3,0.6c-0.5,0-1-0.2-1.3-0.5S115.1,53.5,115.1,52.8z"/>
	</g>
</g>
<g id="Layer_2" class="st3">
	<path class="st4" d="M23.3,33.3c-0.2,0-0.4,0-0.6,0.1c-0.2-0.1-0.5-0.1-0.7-0.1h-2.6c1.9-1,3.3-3,3.3-5.3c0-3.3-2.7-6-6-6
		c-3.3,0-6,2.7-6,6c0,2.3,1.3,4.3,3.3,5.3h-2.6c-0.2,0-0.5,0-0.7,0.1c-0.2-0.1-0.4-0.1-0.6-0.1c-1.1,0-2,0.9-2,2V48c0,1.1,0.9,2,2,2
		c0.2,0,0.5,0,0.7-0.1V50c0,0.3,0,0.6,0.1,0.8c0,0.2-0.1,0.3-0.1,0.5v15.3c0,1.1,0.9,2,2,2H14c1.1,0,2-0.9,2-2V56c0.2,0,0.4,0,0.7,0
		c0.2,0,0.4,0,0.7,0v10.7c0,1.1,0.9,2,2,2h1.3c1.1,0,2-0.9,2-2V51.3c0-0.2,0-0.3-0.1-0.5c0-0.3,0.1-0.6,0.1-0.8v-0.1
		c0.2,0.1,0.4,0.1,0.7,0.1c1.1,0,2-0.9,2-2V35.3C25.3,34.2,24.4,33.3,23.3,33.3z"/>
	<path class="st5" d="M68.3,33.3c-0.2,0-0.4,0-0.6,0.1c-0.2-0.1-0.5-0.1-0.7-0.1h-2.6c1.9-1,3.3-3,3.3-5.3c0-3.3-2.7-6-6-6
		c-3.3,0-6,2.7-6,6c0,2.3,1.3,4.3,3.3,5.3h-2.6c-0.2,0-0.5,0-0.7,0.1c-0.2-0.1-0.4-0.1-0.6-0.1c-1.1,0-2,0.9-2,2V48c0,1.1,0.9,2,2,2
		c0.2,0,0.5,0,0.7-0.1V50c0,0.3,0,0.6,0.1,0.8c0,0.2-0.1,0.3-0.1,0.5v15.3c0,1.1,0.9,2,2,2H59c1.1,0,2-0.9,2-2V56c0.2,0,0.4,0,0.7,0
		c0.2,0,0.4,0,0.7,0v10.7c0,1.1,0.9,2,2,2h1.3c1.1,0,2-0.9,2-2V51.3c0-0.2,0-0.3-0.1-0.5c0-0.3,0.1-0.6,0.1-0.8v-0.1
		c0.2,0.1,0.4,0.1,0.7,0.1c1.1,0,2-0.9,2-2V35.3C70.3,34.2,69.4,33.3,68.3,33.3z"/>
	<path class="st5" d="M87,33.3c-0.2,0-0.4,0-0.6,0.1c-0.2-0.1-0.5-0.1-0.7-0.1h-2.6c1.9-1,3.3-3,3.3-5.3c0-3.3-2.7-6-6-6
		c-3.3,0-6,2.7-6,6c0,2.3,1.3,4.3,3.3,5.3H75c-0.2,0-0.5,0-0.7,0.1c-0.2-0.1-0.4-0.1-0.6-0.1c-1.1,0-2,0.9-2,2V48c0,1.1,0.9,2,2,2
		c0.2,0,0.5,0,0.7-0.1V50c0,0.3,0,0.6,0.1,0.8c0,0.2-0.1,0.3-0.1,0.5v15.3c0,1.1,0.9,2,2,2h1.3c1.1,0,2-0.9,2-2V56
		c0.2,0,0.4,0,0.7,0c0.2,0,0.4,0,0.7,0v10.7c0,1.1,0.9,2,2,2h1.3c1.1,0,2-0.9,2-2V51.3c0-0.2,0-0.3-0.1-0.5c0-0.3,0.1-0.6,0.1-0.8
		v-0.1C86.5,50,86.8,50,87,50c1.1,0,2-0.9,2-2V35.3C89,34.2,88.1,33.3,87,33.3z"/>
	<path class="st5" d="M105.7,33.3c-0.2,0-0.4,0-0.6,0.1c-0.2-0.1-0.5-0.1-0.7-0.1h-2.6c1.9-1,3.3-3,3.3-5.3c0-3.3-2.7-6-6-6
		c-3.3,0-6,2.7-6,6c0,2.3,1.3,4.3,3.3,5.3h-2.6c-0.2,0-0.5,0-0.7,0.1c-0.2-0.1-0.4-0.1-0.6-0.1c-1.1,0-2,0.9-2,2V48c0,1.1,0.9,2,2,2
		c0.2,0,0.5,0,0.7-0.1V50c0,0.3,0,0.6,0.1,0.8c0,0.2-0.1,0.3-0.1,0.5v15.3c0,1.1,0.9,2,2,2h1.3c1.1,0,2-0.9,2-2V56
		c0.2,0,0.4,0,0.7,0s0.4,0,0.7,0v10.7c0,1.1,0.9,2,2,2h1.3c1.1,0,2-0.9,2-2V51.3c0-0.2,0-0.3-0.1-0.5c0-0.3,0.1-0.6,0.1-0.8v-0.1
		c0.2,0.1,0.4,0.1,0.7,0.1c1.1,0,2-0.9,2-2V35.3C107.7,34.2,106.8,33.3,105.7,33.3z"/>
	<path class="st5" d="M124.3,33.3c-0.2,0-0.4,0-0.6,0.1c-0.2-0.1-0.5-0.1-0.7-0.1h-2.6c1.9-1,3.3-3,3.3-5.3c0-3.3-2.7-6-6-6
		c-3.3,0-6,2.7-6,6c0,2.3,1.3,4.3,3.3,5.3h-2.6c-0.2,0-0.5,0-0.7,0.1c-0.2-0.1-0.4-0.1-0.6-0.1c-1.1,0-2,0.9-2,2V48c0,1.1,0.9,2,2,2
		c0.2,0,0.5,0,0.7-0.1V50c0,0.3,0,0.6,0.1,0.8c0,0.2-0.1,0.3-0.1,0.5v15.3c0,1.1,0.9,2,2,2h1.3c1.1,0,2-0.9,2-2V56
		c0.2,0,0.4,0,0.7,0c0.2,0,0.4,0,0.7,0v10.7c0,1.1,0.9,2,2,2h1.3c1.1,0,2-0.9,2-2V51.3c0-0.2,0-0.3-0.1-0.5c0-0.3,0.1-0.6,0.1-0.8
		v-0.1c0.2,0.1,0.4,0.1,0.7,0.1c1.1,0,2-0.9,2-2V35.3C126.3,34.2,125.4,33.3,124.3,33.3z"/>
	<path class="st5" d="M143,33.3c-0.2,0-0.4,0-0.6,0.1c-0.2-0.1-0.5-0.1-0.7-0.1h-2.6c1.9-1,3.3-3,3.3-5.3c0-3.3-2.7-6-6-6
		c-3.3,0-6,2.7-6,6c0,2.3,1.3,4.3,3.3,5.3H131c-0.2,0-0.5,0-0.7,0.1c-0.2-0.1-0.4-0.1-0.6-0.1c-1.1,0-2,0.9-2,2V48c0,1.1,0.9,2,2,2
		c0.2,0,0.5,0,0.7-0.1V50c0,0.3,0,0.6,0.1,0.8c0,0.2-0.1,0.3-0.1,0.5v15.3c0,1.1,0.9,2,2,2h1.3c1.1,0,2-0.9,2-2V56
		c0.2,0,0.4,0,0.7,0c0.2,0,0.4,0,0.7,0v10.7c0,1.1,0.9,2,2,2h1.3c1.1,0,2-0.9,2-2V51.3c0-0.2,0-0.3-0.1-0.5c0-0.3,0.1-0.6,0.1-0.8
		v-0.1c0.2,0.1,0.4,0.1,0.7,0.1c1.1,0,2-0.9,2-2V35.3C145,34.2,144.1,33.3,143,33.3z"/>
	<path class="st5" d="M162,33.3c-0.2,0-0.4,0-0.6,0.1c-0.2-0.1-0.5-0.1-0.7-0.1h-2.6c1.9-1,3.3-3,3.3-5.3c0-3.3-2.7-6-6-6
		c-3.3,0-6,2.7-6,6c0,2.3,1.3,4.3,3.3,5.3H150c-0.2,0-0.5,0-0.7,0.1c-0.2-0.1-0.4-0.1-0.6-0.1c-1.1,0-2,0.9-2,2V48c0,1.1,0.9,2,2,2
		c0.2,0,0.5,0,0.7-0.1V50c0,0.3,0,0.6,0.1,0.8c0,0.2-0.1,0.3-0.1,0.5v15.3c0,1.1,0.9,2,2,2h1.3c1.1,0,2-0.9,2-2V56
		c0.2,0,0.4,0,0.7,0c0.2,0,0.4,0,0.7,0v10.7c0,1.1,0.9,2,2,2h1.3c1.1,0,2-0.9,2-2V51.3c0-0.2,0-0.3-0.1-0.5c0-0.3,0.1-0.6,0.1-0.8
		v-0.1c0.2,0.1,0.4,0.1,0.7,0.1c1.1,0,2-0.9,2-2V35.3C164,34.2,163.1,33.3,162,33.3z"/>
	<path class="st5" d="M181,33.3c-0.2,0-0.4,0-0.6,0.1c-0.2-0.1-0.5-0.1-0.7-0.1h-2.6c1.9-1,3.3-3,3.3-5.3c0-3.3-2.7-6-6-6
		c-3.3,0-6,2.7-6,6c0,2.3,1.3,4.3,3.3,5.3H169c-0.2,0-0.5,0-0.7,0.1c-0.2-0.1-0.4-0.1-0.6-0.1c-1.1,0-2,0.9-2,2V48c0,1.1,0.9,2,2,2
		c0.2,0,0.5,0,0.7-0.1V50c0,0.3,0,0.6,0.1,0.8c0,0.2-0.1,0.3-0.1,0.5v15.3c0,1.1,0.9,2,2,2h1.3c1.1,0,2-0.9,2-2V56
		c0.2,0,0.4,0,0.7,0c0.2,0,0.4,0,0.7,0v10.7c0,1.1,0.9,2,2,2h1.3c1.1,0,2-0.9,2-2V51.3c0-0.2,0-0.3-0.1-0.5c0-0.3,0.1-0.6,0.1-0.8
		v-0.1c0.2,0.1,0.4,0.1,0.7,0.1c1.1,0,2-0.9,2-2V35.3C183,34.2,182.1,33.3,181,33.3z"/>
	<path class="st5" d="M200,33.3c-0.2,0-0.4,0-0.6,0.1c-0.2-0.1-0.5-0.1-0.7-0.1h-2.6c1.9-1,3.3-3,3.3-5.3c0-3.3-2.7-6-6-6
		c-3.3,0-6,2.7-6,6c0,2.3,1.3,4.3,3.3,5.3H188c-0.2,0-0.5,0-0.7,0.1c-0.2-0.1-0.4-0.1-0.6-0.1c-1.1,0-2,0.9-2,2V48c0,1.1,0.9,2,2,2
		c0.2,0,0.5,0,0.7-0.1V50c0,0.3,0,0.6,0.1,0.8c0,0.2-0.1,0.3-0.1,0.5v15.3c0,1.1,0.9,2,2,2h1.3c1.1,0,2-0.9,2-2V56
		c0.2,0,0.4,0,0.7,0c0.2,0,0.4,0,0.7,0v10.7c0,1.1,0.9,2,2,2h1.3c1.1,0,2-0.9,2-2V51.3c0-0.2,0-0.3-0.1-0.5c0-0.3,0.1-0.6,0.1-0.8
		v-0.1c0.2,0.1,0.4,0.1,0.7,0.1c1.1,0,2-0.9,2-2V35.3C202,34.2,201.1,33.3,200,33.3z"/>
	<path class="st6" d="M45,41H34c-1.1,0-2-0.9-2-2v0c0-1.1,0.9-2,2-2h11c1.1,0,2,0.9,2,2v0C47,40.1,46.1,41,45,41z"/>
	<path class="st6" d="M45,49H34c-1.1,0-2-0.9-2-2v0c0-1.1,0.9-2,2-2h11c1.1,0,2,0.9,2,2v0C47,48.1,46.1,49,45,49z"/>
</g>
<g id="Layer_3" class="st3">
	<rect x="13.5" y="14.5" class="st7" width="52" height="60"/>
	<text transform="matrix(1 0 0 1 33.25 62)" class="st6 st8 st9">1</text>
	<text transform="matrix(1.27 0 0 1 22.5 33.75)" class="st6 st8 st10">Tues.</text>
	<rect x="81.5" y="14.5" class="st7" width="52" height="60"/>
	<text transform="matrix(1 0 0 1 101.25 62)" class="st6 st8 st9">2</text>
	<text transform="matrix(1.27 0 0 1 92.5 33.75)" class="st6 st8 st10">Wed.</text>
	<rect x="149.5" y="14.5" class="st11" width="52" height="60"/>
	<text transform="matrix(1 0 0 1 169.25 62)" class="st12 st8 st9">3</text>
	<text transform="matrix(1.27 0 0 1 155.5 33.75)" class="st12 st8 st10">Thurs.</text>
</g>
</svg>
