<?xml version="1.0" encoding="utf-8"?>
<!-- Generator: Adobe Illustrator 21.0.2, SVG Export Plug-In . SVG Version: 6.00 Build 0)  -->
<svg version="1.1" id="Layer_3" xmlns="http://www.w3.org/2000/svg" xmlns:xlink="http://www.w3.org/1999/xlink" x="0px" y="0px"
	 viewBox="0 0 214 90.9" style="enable-background:new 0 0 214 90.9;" xml:space="preserve">
<style type="text/css">
	.st0{fill:#E6E6E6;}
	.st1{fill:#FFCC05;}
	.st2{fill:#9D5BC2;}
	.st3{font-family: 'Roboto Condensed', sans-serif;}
	.st4{font-size:28px;}
</style>
<g>
	<g id="Layer_1_2_">
		<circle class="st0" cx="45.3" cy="45.5" r="41.2"/>
		<circle class="st0" cx="167.7" cy="45.5" r="40"/>
		<path class="st1" d="M205.6,67.7L167.9,43l-40.5,22.2l-0.2,0.2c7.8,14.2,22.9,23.8,40.2,23.7c16.2-0.1,32.3-7.6,40.3-20.4
			L205.6,67.7z"/>
		<g>
			<path class="st2" d="M45,0c0,0-0.6,0-1,0"/>
			<path class="st2" d="M78.4,14.3l-0.5-0.2L44,44.8V0C19.6,0.7,0,20.7,0,45.3c0,25,20.3,45.3,45.3,45.3s45.3-20.3,45.3-45.3
				C90.6,33.3,86,22.5,78.4,14.3z"/>
		</g>
		<g>
			<path d="M95,39h2.9l1.6,8.6l0.4,3.4h0.1l0.4-3.4L102,39h2.8l-3.6,16h-2.5L95,39z"/>
			<path d="M105.6,51.9c0-0.3,0-0.7,0.1-1s0.1-0.6,0.2-0.8h2.1c0,0.6,0,1,0.1,1.4c0.1,0.4,0.1,0.7,0.3,0.9c0.1,0.2,0.3,0.4,0.5,0.5
				s0.5,0.1,0.8,0.1c0.4,0,0.7-0.1,0.9-0.4c0.2-0.2,0.3-0.5,0.3-0.8c0-0.2,0-0.3-0.1-0.5c0-0.2-0.1-0.3-0.2-0.5s-0.2-0.3-0.3-0.5
				c-0.1-0.2-0.3-0.3-0.4-0.5l-2.2-2.5c-0.3-0.3-0.5-0.7-0.8-1s-0.5-0.7-0.7-1.1c-0.2-0.4-0.3-0.8-0.5-1.2s-0.2-0.8-0.2-1.3
				c0-0.6,0.1-1.1,0.3-1.7s0.5-0.8,0.8-1.1c0.3-0.3,0.8-0.5,1.2-0.7s0.9-0.2,1.4-0.2c0.6,0,1.1,0.1,1.6,0.2s0.8,0.3,1.2,0.6
				c0.3,0.3,0.6,0.6,0.7,1c0.2,0.4,0.3,0.9,0.3,1.4c0,0.4,0,0.7-0.1,1s-0.1,0.6-0.2,0.9h-2.1c0-0.5,0-1-0.1-1.3
				c-0.1-0.3-0.1-0.7-0.2-0.9c-0.1-0.3-0.2-0.4-0.4-0.6s-0.4-0.2-0.7-0.2c-0.2,0-0.5,0-0.6,0.1c-0.2,0.1-0.3,0.2-0.4,0.3
				s-0.2,0.3-0.2,0.4S108,42,108,42.2c0,0.4,0.1,0.7,0.3,1c0.2,0.3,0.4,0.6,0.7,1l2.4,2.8c0.2,0.2,0.4,0.4,0.6,0.7s0.4,0.6,0.6,1
				c0.2,0.3,0.4,0.7,0.5,1.1c0.1,0.4,0.2,0.8,0.2,1.3c0,0.5-0.1,1-0.3,1.6c-0.2,0.4-0.4,0.8-0.8,1.1c-0.3,0.3-0.8,0.6-1.2,0.7
				c-0.5,0.2-1,0.3-1.8,0.3c-0.5,0-1-0.1-1.6-0.2c-0.5-0.1-0.9-0.3-1.2-0.6c-0.3-0.3-0.6-0.6-0.8-1.1
				C105.7,53.1,105.6,52.5,105.6,51.9z"/>
			<path d="M115.1,52.8c0-0.8,0.2-1.4,0.5-1.7s0.7-0.5,1.3-0.5c0.6,0,1,0.2,1.3,0.6c0.3,0.4,0.5,0.9,0.5,1.7c0,0.7-0.2,1.2-0.5,1.6
				c-0.3,0.4-0.7,0.6-1.3,0.6c-0.5,0-1-0.2-1.3-0.5S115.1,53.5,115.1,52.8z"/>
		</g>
	</g>
</g>
<text transform="matrix(1 0 0 1 21.2002 55.5)" class="st3 st4">85%</text>
<text transform="matrix(1 0 0 1 143.6152 54.5)" class="st3 st4">31%</text>
</svg>
