<?xml version="1.0" encoding="utf-8"?>
<!-- Generator: Adobe Illustrator 21.0.2, SVG Export Plug-In . SVG Version: 6.00 Build 0)  -->
<svg version="1.1" id="Layer_1" xmlns="http://www.w3.org/2000/svg" xmlns:xlink="http://www.w3.org/1999/xlink" x="0px" y="0px"
	 viewBox="0 0 89.3 92" style="enable-background:new 0 0 89.3 92;" xml:space="preserve">
<style type="text/css">
	.st0{fill:#FFFFFF;}
</style>
<path class="st0" d="M88.1,34.7L47.8,0.8c-1.3-1.1-3.1-1.1-4.5,0l-42,33.9c-1.5,1.2-1.7,3.4-0.5,4.9c0.7,0.9,1.7,1.3,2.7,1.3
	c0.8,0,1.5-0.3,2.2-0.8l3.2-2.6v51c0,1.9,1.6,3.5,3.5,3.5h21.8c1.9,0,3.5-1.6,3.5-3.5l0,0V58.1h15.6v30.4c0,1.9,1.6,3.5,3.5,3.5H77
	c1.9,0,3.5-1.6,3.5-3.5V37.4l3.1,2.6c1.5,1.2,3.7,1.1,4.9-0.4C89.8,38.2,89.6,36,88.1,34.7z M73.5,32.6V85H60.3V54.6
	c0-1.9-1.6-3.5-3.5-3.5H34.2c-1.9,0-3.5,1.6-3.5,3.5V85H15.9V32.3c0-0.1,0-0.2,0-0.4L45.5,8l28.2,23.6C73.5,32,73.5,32.3,73.5,32.6z
	"/>
</svg>
